<svg width="13" height="15" viewBox="0 0 13 15" fill="none" xmlns="http://www.w3.org/2000/svg">
<path d="M11.8574 6.69852H3.48689V2.94852C3.48689 2.43122 3.90709 2.01102 4.42439 2.01102H8.57617C9.09347 2.01102 9.51367 2.43122 9.51367 2.94852V4.08691C9.51367 4.16058 9.57394 4.22084 9.6476 4.22084H10.5851C10.6588 4.22084 10.719 4.16058 10.719 4.08691V2.94852C10.719 1.76493 9.75977 0.805664 8.57617 0.805664H4.42439C3.24079 0.805664 2.28153 1.76493 2.28153 2.94852V6.69852H1.14314C0.846819 6.69852 0.607422 6.93792 0.607422 7.23424V13.6628C0.607422 13.9591 0.846819 14.1985 1.14314 14.1985H11.8574C12.1537 14.1985 12.3931 13.9591 12.3931 13.6628V7.23424C12.3931 6.93792 12.1537 6.69852 11.8574 6.69852ZM11.1878 12.9932H1.81278V7.90388H11.1878V12.9932ZM6.03153 10.6662V11.5534C6.03153 11.6271 6.0918 11.6874 6.16546 11.6874H6.8351C6.90876 11.6874 6.96903 11.6271 6.96903 11.5534V10.6662C7.10722 10.5669 7.21037 10.4264 7.26362 10.2649C7.31688 10.1033 7.31749 9.92899 7.26538 9.76705C7.21326 9.60511 7.11111 9.46388 6.97362 9.36369C6.83613 9.2635 6.6704 9.20952 6.50028 9.20952C6.33016 9.20952 6.16443 9.2635 6.02694 9.36369C5.88945 9.46388 5.78729 9.60511 5.73518 9.76705C5.68307 9.92899 5.68368 10.1033 5.73694 10.2649C5.79019 10.4264 5.89334 10.5669 6.03153 10.6662Z" fill="white" fill-opacity="0.85"/>
</svg>
