<svg width="28" height="28" viewBox="0 0 28 28" fill="none" xmlns="http://www.w3.org/2000/svg">
<circle cx="14" cy="14" r="14" fill="#A8B7CF" fill-opacity="0.3"/>
<path d="M18.4444 5L22 8.6M22 8.6L18.4444 12.2M22 8.6H10.2667C8.77319 8.6 8.02646 8.6 7.45603 8.89428C6.95426 9.15314 6.54631 9.56619 6.29065 10.0742C6 10.6518 6 11.4079 6 12.92V13.1M6 19.4H17.7333C19.2268 19.4 19.9735 19.4 20.544 19.1057C21.0457 18.8469 21.4537 18.4338 21.7094 17.9258C22 17.3482 22 16.5921 22 15.08V14.9M6 19.4L9.55556 23M6 19.4L9.55556 15.8" stroke="white" stroke-width="2" stroke-linecap="round" stroke-linejoin="round"/>
</svg>
