<svg width="15" height="73" viewBox="0 0 15 73" fill="none" xmlns="http://www.w3.org/2000/svg">
<path fill-rule="evenodd" clip-rule="evenodd" d="M14.5741 17.6545C14.5741 8.15085 5.21085 9.50362 0.0253906 0V73C5.21085 63.4964 14.5741 64.8491 14.5741 55.3455C14.5741 42.7818 14.5741 30.2182 14.5741 17.6545V17.6545Z" fill="#0069CC"/>
<path d="M3.19102 36.0432L7.24533 30.8631C7.30796 30.7836 7.25144 30.666 7.14909 30.666H5.96824C5.89339 30.666 5.82159 30.7012 5.77576 30.7592L1.87574 35.7423C1.8082 35.8284 1.77148 35.9346 1.77148 36.044C1.77148 36.1534 1.8082 36.2597 1.87574 36.3457L5.77576 41.3273C5.82159 41.3869 5.89339 41.4205 5.96824 41.4205H7.14909C7.25144 41.4205 7.30796 41.3029 7.24533 41.2234L3.19102 36.0432ZM7.835 36.0432L11.8893 30.8631C11.9519 30.7836 11.8954 30.666 11.7931 30.666H10.6122C10.5374 30.666 10.4656 30.7012 10.4197 30.7592L6.51971 35.7423C6.45217 35.8284 6.41546 35.9346 6.41546 36.044C6.41546 36.1534 6.45217 36.2597 6.51971 36.3457L10.4197 41.3273C10.4656 41.3869 10.5374 41.4205 10.6122 41.4205H11.7931C11.8954 41.4205 11.9519 41.3029 11.8893 41.2234L7.835 36.0432Z" fill="white" fill-opacity="0.85"/>
</svg>
