<svg width="35" height="43" viewBox="0 0 35 43" fill="none" xmlns="http://www.w3.org/2000/svg">
<path d="M6.11605 0.552734C4.54607 0.552734 3.04038 1.17641 1.93023 2.28656C0.820086 3.39671 0.196411 4.90239 0.196411 6.47238L0.196411 36.5259C0.196411 38.0959 0.820086 39.6016 1.93023 40.7118C3.04038 41.8219 4.54607 42.4456 6.11605 42.4456L33.4375 42.4456C33.7998 42.4456 34.1473 42.3017 34.4034 42.0455C34.6596 41.7893 34.8036 41.4418 34.8036 41.0795C34.8036 40.7172 34.6596 40.3697 34.4034 40.1136C34.1473 39.8574 33.7998 39.7134 33.4375 39.7134L6.11605 39.7134C5.34959 39.7134 4.60879 39.4372 4.0294 38.9354C3.45002 38.4337 3.07084 37.7399 2.96134 36.9813L33.4375 36.9813C33.7998 36.9813 34.1473 36.8374 34.4034 36.5812C34.6596 36.325 34.8036 35.9775 34.8036 35.6152L34.8036 6.47238C34.8036 4.90239 34.1799 3.39671 33.0697 2.28656C31.9596 1.17641 30.4539 0.552734 28.8839 0.552734L6.11605 0.552734ZM21.1428 16.0294C21.1438 16.996 20.7607 17.9235 20.0779 18.6077C19.3951 19.2918 18.4684 19.6768 17.5018 19.6777C16.5352 19.6787 15.6078 19.2956 14.9236 18.6128C14.2394 17.93 13.8544 17.0033 13.8535 16.0367C13.853 15.5581 13.9468 15.084 14.1295 14.6417C14.3122 14.1993 14.5803 13.7972 14.9184 13.4585C15.6012 12.7743 16.5279 12.3893 17.4945 12.3884C18.4611 12.3874 19.3886 12.7705 20.0728 13.4533C20.757 14.1361 21.1419 15.0628 21.1428 16.0294ZM23.875 22.98V23.9636C23.875 25.9398 21.1611 27.4188 17.5 27.4188C13.8389 27.4188 11.125 25.938 11.125 23.9654V22.98C11.1243 22.7861 11.1618 22.5939 11.2354 22.4146C11.309 22.2352 11.4172 22.072 11.5539 21.9345C11.6906 21.797 11.853 21.6877 12.032 21.613C12.2109 21.5383 12.4028 21.4996 12.5967 21.4992H22.4033C22.5972 21.4996 22.7891 21.5383 22.968 21.613C23.1469 21.6877 23.3094 21.797 23.4461 21.9345C23.5828 22.072 23.691 22.2352 23.7646 22.4146C23.8382 22.5939 23.8757 22.7861 23.875 22.98Z" fill="white" fill-opacity="0.5"/>
</svg>
