<svg width="164" height="101" viewBox="0 0 164 101" fill="none" xmlns="http://www.w3.org/2000/svg">
<path d="M2.49622 99.415C2.54422 99.9652 2.13711 100.45 1.58692 100.498C1.03672 100.546 0.551788 100.139 0.503784 99.5889L2.49622 99.415ZM163.388 10.0804C163.897 10.2948 164.136 10.8812 163.922 11.3902C163.707 11.8991 163.121 12.1379 162.612 11.9235L163.388 10.0804ZM0.293686 96.5165C0.26643 95.9648 0.691504 95.4956 1.24312 95.4683C1.79473 95.4411 2.26399 95.8661 2.29125 96.4177L0.293686 96.5165ZM2.22523 90.4732C2.20995 91.0253 1.75001 91.4604 1.19794 91.4451C0.645865 91.4299 0.210711 90.9699 0.225995 90.4178L2.22523 90.4732ZM0.636583 84.3297C0.695759 83.7806 1.18887 83.3835 1.73797 83.4426C2.28708 83.5018 2.68425 83.9949 2.62507 84.544L0.636583 84.3297ZM3.50095 78.6663C3.39736 79.2088 2.87361 79.5646 2.33113 79.461C1.78865 79.3574 1.43286 78.8336 1.53645 78.2912L3.50095 78.6663ZM2.92675 72.3438C3.07438 71.8116 3.62548 71.4998 4.15767 71.6474C4.68985 71.7951 5.00161 72.3462 4.85398 72.8784L2.92675 72.3438ZM6.67566 67.218C6.48527 67.7364 5.91066 68.0024 5.39223 67.812C4.8738 67.6216 4.60787 67.047 4.79826 66.5285L6.67566 67.218ZM7.1323 60.883C7.36342 60.3814 7.95741 60.1621 8.45901 60.3932C8.96061 60.6244 9.17987 61.2183 8.94875 61.7199L7.1323 60.883ZM11.648 56.4156C11.3788 56.8978 10.7696 57.0704 10.2874 56.8012C9.80515 56.532 9.63248 55.9228 9.90171 55.4406L11.648 56.4156ZM13.0742 50.2274C13.3786 49.7665 13.9989 49.6396 14.4597 49.944C14.9206 50.2483 15.0475 50.8686 14.7431 51.3295L13.0742 50.2274ZM18.2017 46.4796C17.8653 46.9177 17.2376 47.0002 16.7995 46.6639C16.3614 46.3276 16.2789 45.6998 16.6152 45.2617L18.2017 46.4796ZM20.4894 40.5562C20.8546 40.1419 21.4865 40.102 21.9008 40.4671C22.3152 40.8322 22.3551 41.4641 21.99 41.8785L20.4894 40.5562ZM26.0753 37.534C25.6844 37.9241 25.0512 37.9235 24.6611 37.5325C24.271 37.1416 24.2716 36.5084 24.6625 36.1183L26.0753 37.534ZM29.1023 31.9515C29.5162 31.5858 30.1481 31.625 30.5138 32.0389C30.8794 32.4528 30.8403 33.0847 30.4264 33.4504L29.1023 31.9515ZM35.0144 29.6291C34.5801 29.9703 33.9515 29.8948 33.6103 29.4605C33.2691 29.0262 33.3446 28.3975 33.7789 28.0563L35.0144 29.6291ZM38.6656 24.4315C39.118 24.1147 39.7415 24.2246 40.0584 24.6769C40.3752 25.1293 40.2653 25.7529 39.813 26.0697L38.6656 24.4315ZM44.7982 22.7706C44.3298 23.0633 43.7129 22.921 43.4202 22.4526C43.1274 21.9843 43.2698 21.3673 43.7381 21.0746L44.7982 22.7706ZM48.9748 17.9826C49.4572 17.7137 50.0663 17.8868 50.3351 18.3693C50.604 18.8517 50.4309 19.4607 49.9485 19.7296L48.9748 17.9826ZM55.2445 16.9443C54.7496 17.1896 54.1497 16.9873 53.9044 16.4925C53.6591 15.9976 53.8614 15.3976 54.3563 15.1524L55.2445 16.9443ZM59.8649 12.5811C60.3707 12.3592 60.9606 12.5893 61.1825 13.0951C61.4044 13.6008 61.1743 14.1907 60.6685 14.4126L59.8649 12.5811ZM66.1993 12.1345C65.684 12.3333 65.1052 12.0767 64.9064 11.5614C64.7077 11.0461 64.9643 10.4673 65.4796 10.2685L66.1993 12.1345ZM71.1922 8.2097C71.7158 8.03397 72.2827 8.31596 72.4585 8.83953C72.6342 9.36312 72.3522 9.93002 71.8286 10.1058L71.1922 8.2097ZM77.5435 8.32547C77.0128 8.47824 76.4587 8.17184 76.3059 7.6411C76.1532 7.11036 76.4596 6.55627 76.9903 6.40351L77.5435 8.32547ZM82.8615 4.84975C83.3983 4.71996 83.9387 5.04992 84.0685 5.58674C84.1983 6.12356 83.8683 6.66395 83.3315 6.79374L82.8615 4.84975ZM89.1805 5.51134C88.6387 5.61807 88.1129 5.26531 88.0061 4.72344C87.8994 4.18156 88.2522 3.65577 88.794 3.54904L89.1805 5.51134ZM94.7766 2.50279C95.3226 2.41929 95.8328 2.79416 95.9163 3.34009C95.9998 3.88603 95.625 4.39629 95.079 4.4798L94.7766 2.50279ZM101.016 3.70137C100.467 3.76141 99.9728 3.36503 99.9128 2.81602C99.8528 2.267 100.249 1.77327 100.798 1.71322L101.016 3.70137ZM106.848 1.18333C107.399 1.14705 107.875 1.5644 107.911 2.11549C107.947 2.66658 107.53 3.14273 106.979 3.17901L106.848 1.18333ZM112.959 2.91636C112.407 2.92847 111.95 2.49069 111.938 1.93853C111.926 1.38638 112.363 0.928956 112.915 0.916841L112.959 2.91636ZM118.99 0.918486C119.542 0.930984 119.98 1.38871 119.967 1.94085C119.955 2.493 119.497 2.93047 118.945 2.91798L118.99 0.918486ZM124.923 3.189C124.372 3.15139 123.956 2.67422 123.994 2.12322C124.031 1.57222 124.508 1.15603 125.059 1.19365L124.923 3.189ZM131.11 1.74821C131.659 1.8115 132.052 2.30756 131.989 2.85621C131.926 3.40486 131.43 3.79832 130.881 3.73504L131.11 1.74821ZM136.804 4.56206C136.26 4.47252 135.89 3.95814 135.98 3.41316C136.069 2.86819 136.584 2.49898 137.129 2.58851L136.804 4.56206ZM143.1 3.72118C143.64 3.83756 143.984 4.36957 143.867 4.90945C143.751 5.44933 143.219 5.79265 142.679 5.67627L143.1 3.72118ZM148.49 7.08433C147.957 6.94053 147.641 6.39169 147.785 5.85845C147.929 5.32522 148.478 5.00952 149.011 5.15332L148.49 7.08433ZM154.84 6.89068C155.365 7.06242 155.651 7.62716 155.479 8.15207C155.308 8.67697 154.743 8.96327 154.218 8.79152L154.84 6.89068ZM159.844 10.8027C159.329 10.6026 159.074 10.0231 159.274 9.50833C159.474 8.99357 160.054 8.7385 160.568 8.93861L159.844 10.8027ZM0.503784 99.5889C0.413921 98.5589 0.344001 97.5347 0.293686 96.5165L2.29125 96.4177C2.34032 97.4108 2.40852 98.4099 2.49622 99.415L0.503784 99.5889ZM0.225995 90.4178C0.28292 88.3617 0.420801 86.332 0.636583 84.3297L2.62507 84.544C2.415 86.4933 2.28069 88.47 2.22523 90.4732L0.225995 90.4178ZM1.53645 78.2912C1.92097 76.2776 2.38556 74.2947 2.92675 72.3438L4.85398 72.8784C4.32729 74.7771 3.87516 76.7067 3.50095 78.6663L1.53645 78.2912ZM4.79826 66.5285C5.50207 64.6121 6.28131 62.7299 7.1323 60.883L8.94875 61.7199C8.11971 63.5192 7.36086 65.3522 6.67566 67.218L4.79826 66.5285ZM9.90171 55.4406C10.8925 53.666 11.9512 51.9279 13.0742 50.2274L14.7431 51.3295C13.647 52.9894 12.6141 54.6851 11.648 56.4156L9.90171 55.4406ZM16.6152 45.2617C17.8486 43.6551 19.1412 42.0863 20.4894 40.5562L21.99 41.8785C20.6709 43.3755 19.407 44.9095 18.2017 46.4796L16.6152 45.2617ZM24.6625 36.1183C26.0932 34.6907 27.5742 33.3014 29.1023 31.9515L30.4264 33.4504C28.928 34.774 27.4766 36.1356 26.0753 37.534L24.6625 36.1183ZM33.7789 28.0563C35.3667 26.809 36.9967 25.6005 38.6656 24.4315L39.813 26.0697C38.1734 27.218 36.5729 28.4048 35.0144 29.6291L33.7789 28.0563ZM43.7381 21.0746C45.45 20.0046 47.1966 18.9737 48.9748 17.9826L49.9485 19.7296C48.199 20.7046 46.4813 21.7186 44.7982 22.7706L43.7381 21.0746ZM54.3563 15.1524C56.1655 14.2556 58.0027 13.3982 59.8649 12.5811L60.6685 14.4126C58.8345 15.2173 57.0255 16.0615 55.2445 16.9443L54.3563 15.1524ZM65.4796 10.2685C67.363 9.54204 69.2681 8.85551 71.1922 8.2097L71.8286 10.1058C69.9323 10.7422 68.055 11.4188 66.1993 12.1345L65.4796 10.2685ZM76.9903 6.40351C78.9322 5.84457 80.8901 5.32639 82.8615 4.84975L83.3315 6.79374C81.3879 7.26366 79.4577 7.77449 77.5435 8.32547L76.9903 6.40351ZM88.794 3.54904C90.7783 3.15821 92.7734 2.8092 94.7766 2.50279L95.079 4.4798C93.104 4.7819 91.1369 5.126 89.1805 5.51134L88.794 3.54904ZM100.798 1.71322C102.81 1.4932 104.827 1.31631 106.848 1.18333L106.979 3.17901C104.987 3.3101 102.999 3.48446 101.016 3.70137L100.798 1.71322ZM112.915 0.916841C114.941 0.872399 116.966 0.872688 118.99 0.918486L118.945 2.91798C116.951 2.87285 114.955 2.87256 112.959 2.91636L112.915 0.916841ZM125.059 1.19365C127.082 1.3317 129.1 1.51629 131.11 1.74821L130.881 3.73504C128.902 3.50673 126.915 3.32496 124.923 3.189L125.059 1.19365ZM137.129 2.58851C139.13 2.9173 141.121 3.29459 143.1 3.72118L142.679 5.67627C140.733 5.25673 138.774 4.88558 136.804 4.56206L137.129 2.58851ZM149.011 5.15332C150.97 5.68165 152.914 6.26049 154.84 6.89068L154.218 8.79152C152.326 8.17245 150.416 7.60364 148.49 7.08433L149.011 5.15332ZM160.568 8.93861C161.514 9.30608 162.454 9.68663 163.388 10.0804L162.612 11.9235C161.694 11.537 160.772 11.1635 159.844 10.8027L160.568 8.93861Z" fill="white" fill-opacity="0.23"/>
</svg>
