<svg width="23" height="16" viewBox="0 0 23 16" fill="none" xmlns="http://www.w3.org/2000/svg">
<path d="M22.3455 3.14628C22.2183 2.69897 21.9703 2.29118 21.6261 1.9635C21.2819 1.63583 20.8535 1.3997 20.3836 1.27864C18.6633 0.832031 11.7397 0.832031 11.7397 0.832031C11.7397 0.832031 4.81571 0.84555 3.09541 1.29216C2.6255 1.41323 2.19711 1.64936 1.8529 1.97706C1.50868 2.30475 1.26065 2.71256 1.13351 3.15988C0.613162 6.06953 0.411309 10.5032 1.1478 13.2964C1.27495 13.7437 1.52299 14.1515 1.8672 14.4792C2.21142 14.8069 2.6398 15.043 3.1097 15.1641C4.83 15.6107 11.7538 15.6107 11.7538 15.6107C11.7538 15.6107 18.6775 15.6107 20.3977 15.1641C20.8676 15.043 21.296 14.8069 21.6403 14.4792C21.9845 14.1515 22.2325 13.7437 22.3597 13.2964C22.9085 10.3827 23.0777 5.95182 22.3455 3.14636V3.14628Z" fill="white"/>
<path d="M14.7742 7.88607L10.2398 11.0857L10.2398 4.6864L14.7742 7.88607Z" fill="#1890FF"/>
</svg>
