<svg width="21" height="21" viewBox="0 0 21 21" fill="none" xmlns="http://www.w3.org/2000/svg">
<path opacity="0.4" fill-rule="evenodd" clip-rule="evenodd" d="M3.91016 18.5884C3.91016 17.7484 4.59016 17.0684 5.43016 17.0684C6.26016 17.0684 6.94016 17.7484 6.94016 18.5884C6.94016 19.4184 6.26016 20.0984 5.43016 20.0984C4.59016 20.0984 3.91016 19.4184 3.91016 18.5884ZM15.1602 18.5884C15.1602 17.7484 15.8402 17.0684 16.6802 17.0684C17.5102 17.0684 18.1902 17.7484 18.1902 18.5884C18.1902 19.4184 17.5102 20.0984 16.6802 20.0984C15.8402 20.0984 15.1602 19.4184 15.1602 18.5884Z" fill="white" fill-opacity="0.5"/>
<path fill-rule="evenodd" clip-rule="evenodd" d="M18.1907 4.34933C18.8007 4.34933 19.2007 4.55933 19.6007 5.01933C20.0007 5.47933 20.0707 6.13933 19.9807 6.73833L19.0307 13.2983C18.8507 14.5593 17.7707 15.4883 16.5007 15.4883H5.59074C4.26074 15.4883 3.16074 14.4683 3.05074 13.1493L2.13074 2.24833L0.620742 1.98833C0.220742 1.91833 -0.0592579 1.52833 0.0107421 1.12833C0.0807421 0.71833 0.470742 0.44833 0.880742 0.50833L3.26574 0.86833C3.60574 0.92933 3.85574 1.20833 3.88574 1.54833L4.07574 3.78833C4.10574 4.10933 4.36574 4.34933 4.68574 4.34933H18.1907ZM12.1307 9.54833H14.9007C15.3207 9.54833 15.6507 9.20833 15.6507 8.79833C15.6507 8.37833 15.3207 8.04833 14.9007 8.04833H12.1307C11.7107 8.04833 11.3807 8.37833 11.3807 8.79833C11.3807 9.20833 11.7107 9.54833 12.1307 9.54833Z" fill="white" fill-opacity="0.5"/>
</svg>
