<svg width="38" height="38" viewBox="0 0 38 38" fill="none" xmlns="http://www.w3.org/2000/svg">
<circle cx="19" cy="19" r="19" fill="#254B86"/>
<path fill-rule="evenodd" clip-rule="evenodd" d="M8.59952 27.562C7.86884 28.2926 7.86884 29.4773 8.59952 30.208C9.3302 30.9387 10.5149 30.9387 11.2455 30.208L19.404 22.0495L27.5629 30.2084C28.2936 30.9391 29.4782 30.9391 30.2089 30.2084C30.9396 29.4777 30.9396 28.2931 30.2089 27.5624L22.05 19.4035L30.2087 11.2448C30.9394 10.5141 30.9394 9.32947 30.2087 8.59879C29.478 7.86811 28.2934 7.86811 27.5627 8.59879L19.404 16.7575L11.2457 8.59924C10.5151 7.86856 9.3304 7.86856 8.59972 8.59924C7.86904 9.32991 7.86904 10.5146 8.59972 11.2453L16.758 19.4035L8.59952 27.562Z" fill="#3F77AA"/>
</svg>
