<svg width="15" height="16" viewBox="0 0 15 16" fill="none" xmlns="http://www.w3.org/2000/svg">
<path d="M6.24278 2.04646C4.85297 2.04646 3.52009 2.54326 2.53735 3.42756C1.55461 4.31186 1.00252 5.51123 1.00252 6.76182C1.00252 6.94048 1.08139 7.11182 1.22178 7.23815C1.36217 7.36448 1.55258 7.43545 1.75112 7.43545C1.94967 7.43545 2.14008 7.36448 2.28047 7.23815C2.42086 7.11182 2.49973 6.94048 2.49973 6.76182C2.49973 5.86854 2.89409 5.01185 3.59605 4.38021C4.298 3.74856 5.25006 3.39371 6.24278 3.39371C7.23549 3.39371 8.18755 3.74856 8.88951 4.38021C9.59147 5.01185 9.98582 5.86854 9.98582 6.76182C9.98347 7.37123 9.79996 7.96897 9.45431 8.49303L6.78926 13.4981C6.65798 13.7027 6.46922 13.8726 6.24191 13.9908C6.01459 14.1091 5.75672 14.1714 5.49417 14.1717C5.09708 14.1717 4.71626 14.0297 4.43548 13.7771C4.15469 13.5244 3.99695 13.1817 3.99695 12.8244C3.99695 12.6458 3.91808 12.4744 3.77769 12.3481C3.6373 12.2218 3.44689 12.1508 3.24834 12.1508C3.0498 12.1508 2.85939 12.2218 2.719 12.3481C2.5786 12.4744 2.49973 12.6458 2.49973 12.8244C2.49973 13.5391 2.81522 14.2244 3.37678 14.7297C3.93835 15.235 4.69999 15.5189 5.49417 15.5189C6.02955 15.5185 6.55501 15.3889 7.01583 15.1437C7.47665 14.8984 7.85598 14.5465 8.1143 14.1245L10.7793 9.1195C11.2422 8.40369 11.485 7.58997 11.483 6.76182C11.483 5.51123 10.9309 4.31186 9.9482 3.42756C8.96546 2.54326 7.63258 2.04646 6.24278 2.04646ZM1.00252 10.1299C0.854455 10.1299 0.709719 10.1694 0.586611 10.2435C0.463503 10.3175 0.367551 10.4227 0.310891 10.5458C0.254231 10.6689 0.239406 10.8043 0.268291 10.935C0.297176 11.0656 0.368474 11.1857 0.473169 11.2799C0.577864 11.3741 0.711253 11.4382 0.856469 11.4642C1.00168 11.4902 1.15221 11.4769 1.289 11.4259C1.42579 11.3749 1.5427 11.2886 1.62496 11.1778C1.70722 11.067 1.75112 10.9368 1.75112 10.8036C1.75112 10.6249 1.67225 10.4536 1.53186 10.3272C1.39147 10.2009 1.20106 10.1299 1.00252 10.1299ZM11.1761 0.833943C11.0975 0.780867 11.008 0.742248 10.9127 0.720294C10.8175 0.69834 10.7184 0.693479 10.6211 0.705989C10.5238 0.718499 10.4301 0.748136 10.3455 0.793206C10.2609 0.838277 10.187 0.897899 10.1281 0.968668C10.0691 1.03944 10.0262 1.11997 10.0018 1.20566C9.97736 1.29135 9.97196 1.38053 9.98586 1.46811C9.99976 1.55568 10.0327 1.63993 10.0828 1.71605C10.1329 1.79217 10.1991 1.85866 10.2778 1.91174C11.1159 2.47575 11.7965 3.2077 12.2656 4.04957C12.7347 4.89144 12.9794 5.82007 12.9803 6.76182C12.9803 6.94048 13.0591 7.11182 13.1995 7.23815C13.3399 7.36448 13.5303 7.43545 13.7289 7.43545C13.9274 7.43545 14.1178 7.36448 14.2582 7.23815C14.3986 7.11182 14.4775 6.94048 14.4775 6.76182C14.4731 5.61147 14.1728 4.47764 13.6001 3.44919C13.0273 2.42074 12.1976 1.52561 11.1761 0.833943V0.833943ZM6.24278 6.0882C6.44132 6.0882 6.63173 6.15917 6.77212 6.2855C6.91251 6.41183 6.99139 6.58317 6.99139 6.76182C6.99139 6.94048 7.07026 7.11182 7.21065 7.23815C7.35104 7.36448 7.54145 7.43545 7.73999 7.43545C7.93854 7.43545 8.12895 7.36448 8.26934 7.23815C8.40973 7.11182 8.4886 6.94048 8.4886 6.76182C8.4886 6.22586 8.25199 5.71184 7.83082 5.33285C7.40964 4.95387 6.83841 4.74096 6.24278 4.74096C5.64715 4.74096 5.07591 4.95387 4.65474 5.33285C4.23356 5.71184 3.99695 6.22586 3.99695 6.76182C3.99595 7.16487 4.12891 7.55898 4.37874 7.89351C4.4819 8.02527 4.5998 8.14716 4.73059 8.25727L4.88031 8.40546C4.96239 8.51616 5.00619 8.64625 5.00619 8.77932C5.00619 8.9124 4.96239 9.04249 4.88031 9.15319C4.76741 9.29976 4.7237 9.48064 4.75879 9.65616C4.79387 9.83169 4.90488 9.98753 5.06746 10.0895C5.19263 10.1681 5.34152 10.2104 5.49417 10.2108C5.61486 10.2106 5.73371 10.1842 5.8406 10.1337C5.94748 10.0833 6.03923 10.0103 6.10803 9.92112C6.36391 9.58487 6.50084 9.18686 6.50084 8.77932C6.50084 8.37179 6.36391 7.97378 6.10803 7.63753C6.0293 7.53703 5.94167 7.44242 5.84601 7.35461L5.74121 7.26031C5.6974 7.22313 5.65732 7.18256 5.62143 7.13905C5.53815 7.02754 5.49383 6.89617 5.49417 6.76182C5.49417 6.58317 5.57304 6.41183 5.71343 6.2855C5.85382 6.15917 6.04423 6.0882 6.24278 6.0882V6.0882ZM3.24834 10.1299C3.3964 10.1299 3.54114 10.0904 3.66425 10.0164C3.78735 9.94239 3.88331 9.83719 3.93997 9.7141C3.99663 9.59101 4.01145 9.45557 3.98257 9.3249C3.95368 9.19423 3.88238 9.0742 3.77769 8.97999C3.67299 8.88578 3.5396 8.82163 3.39439 8.79564C3.24917 8.76964 3.09865 8.78298 2.96186 8.83397C2.82507 8.88495 2.70815 8.97129 2.6259 9.08207C2.54364 9.19285 2.49973 9.32309 2.49973 9.45632C2.49973 9.63497 2.5786 9.80631 2.719 9.93264C2.85939 10.059 3.0498 10.1299 3.24834 10.1299Z" fill="white"/>
</svg>
