<svg width="24" height="22" viewBox="0 0 24 22" fill="none" xmlns="http://www.w3.org/2000/svg">
<path d="M21.7709 7.53149H19.2006V3.41101C19.2006 2.00672 18.0582 0.864258 16.654 0.864258H2.54634C1.1423 0.864258 0 2.00672 0 3.41101V11.1208C0 12.525 1.1423 13.6675 2.54634 13.6675H4.39952V16.3333C4.39952 16.6574 4.59467 16.9495 4.89414 17.0735C4.99329 17.1145 5.09738 17.1345 5.20057 17.1345C5.40905 17.1345 5.61406 17.053 5.76727 16.8997L7.99911 14.6674V16.0689C7.99911 17.2982 8.99911 18.2984 10.2284 18.2984H16.4314L19.0327 20.9001C19.1859 21.0534 19.3909 21.1348 19.5994 21.1348C19.7026 21.1348 19.8066 21.1148 19.9058 21.0738C20.2053 20.9498 20.4004 20.6577 20.4004 20.3336V18.2984H21.771C23.0002 18.2984 24.0001 17.2982 24.0001 16.0689V9.76091C24 8.53157 23.0001 7.53149 21.7709 7.53149ZM5.20057 12.0651H2.54634C2.02594 12.0651 1.60242 11.6415 1.60242 11.1209V3.41101C1.60242 2.89036 2.02586 2.46668 2.54634 2.46668H16.6541C17.1746 2.46668 17.5982 2.89028 17.5982 3.41101V11.1208C17.5982 11.6414 17.1747 12.065 16.6541 12.065H8.66691C8.45447 12.065 8.25067 12.1494 8.10028 12.2997L6.00178 14.3986V12.8662C6.00178 12.4238 5.64307 12.0651 5.20057 12.0651ZM22.3976 16.0688C22.3976 16.4145 22.1165 16.6959 21.7709 16.6959H19.5992C19.1568 16.6959 18.798 17.0546 18.798 17.4971V18.399L17.3297 16.9306C17.1796 16.7803 16.9757 16.6959 16.7632 16.6959H10.2283C9.88267 16.6959 9.60146 16.4146 9.60146 16.0688V13.6674H16.654C18.0582 13.6674 19.2006 12.5249 19.2006 11.1207V9.13383H21.7709C22.1165 9.13383 22.3976 9.41505 22.3976 9.76083V16.0688Z" fill="white" fill-opacity="0.5"/>
</svg>
