<svg width="37" height="37" viewBox="0 0 37 37" fill="none" xmlns="http://www.w3.org/2000/svg">
<circle cx="18.5" cy="18.5" r="18.5" fill="#547FFF"/>
<g filter="url(#filter0_d_28_5202)">
<path fill-rule="evenodd" clip-rule="evenodd" d="M22.3673 18.8679C20.6248 19.4749 20.1051 19.9003 21.9309 20.4347C23.314 20.8394 22.8473 21.4715 22.5249 21.8258C22.2129 22.1691 22.2519 22.5411 22.295 22.9527L22.2992 22.9938C22.4463 24.4126 20.7872 24.4669 19.4324 24.3682C18.2198 24.2797 18.489 25.7929 18.6687 26.8023L18.6687 26.8023C18.72 27.0908 18.764 27.3382 18.764 27.4952H10.7756C10.7756 27.4952 13.3559 23.3576 11.3413 22.1893C6.81186 19.5617 6.84095 14.6844 9.0194 11.1556C10.96 8.01219 18.5537 7.81607 20.5886 9.95192C20.8245 10.1998 20.5167 10.6358 20.5167 10.6358C20.6753 10.9052 20.7878 11.258 20.9064 11.6298L20.9064 11.6298C21.0899 12.2048 21.2878 12.8254 21.693 13.2536C21.9852 13.562 21.8546 13.8957 21.7512 14.16C21.6816 14.3378 21.6244 14.4841 21.7162 14.5703C21.8222 14.6698 22.0039 14.8052 22.2141 14.9617L22.2142 14.9617L22.2142 14.9618C22.7888 15.3896 23.5763 15.976 23.612 16.4233C23.6582 17.0032 23.2474 17.1755 22.9669 17.2931C22.8277 17.3515 22.7206 17.3964 22.7172 17.471C22.7107 17.6104 22.7469 17.7597 22.7831 17.9087C22.8743 18.2849 22.9651 18.6593 22.3673 18.8679ZM31.1789 20.6711L23.7598 19.7699L31.1789 18.8691V20.6711ZM29.7872 25.7022L30.5829 24.1416L23.7598 20.7266L29.7872 25.7022ZM29.7872 13.8184L30.5829 15.3793L23.7598 18.7947L29.7872 13.8184Z" fill="white"/>
</g>
<defs>
<filter id="filter0_d_28_5202" x="6.58984" y="7.53906" width="25.5889" height="20.9561" filterUnits="userSpaceOnUse" color-interpolation-filters="sRGB">
<feFlood flood-opacity="0" result="BackgroundImageFix"/>
<feColorMatrix in="SourceAlpha" type="matrix" values="0 0 0 0 0 0 0 0 0 0 0 0 0 0 0 0 0 0 127 0" result="hardAlpha"/>
<feOffset/>
<feGaussianBlur stdDeviation="0.5"/>
<feComposite in2="hardAlpha" operator="out"/>
<feColorMatrix type="matrix" values="0 0 0 0 0 0 0 0 0 0 0 0 0 0 0 0 0 0 0.23 0"/>
<feBlend mode="normal" in2="BackgroundImageFix" result="effect1_dropShadow_28_5202"/>
<feBlend mode="normal" in="SourceGraphic" in2="effect1_dropShadow_28_5202" result="shape"/>
</filter>
</defs>
</svg>
