<svg width="23" height="23" viewBox="0 0 23 23" fill="none" xmlns="http://www.w3.org/2000/svg">
<path d="M10.9162 2.30953C11.2317 1.47755 12.4254 1.47755 12.7418 2.30953L14.7823 7.96183C14.8535 8.14596 14.9789 8.30417 15.1419 8.41557C15.3048 8.52698 15.4977 8.58634 15.6952 8.58582H20.7097C21.6363 8.58582 22.0404 9.73915 21.312 10.304L17.7435 13.5146C17.5837 13.6375 17.4669 13.8078 17.4099 14.0012C17.3528 14.1946 17.3585 14.4011 17.4261 14.591L18.7293 20.1142C19.0467 21.0014 18.0196 21.7634 17.2428 21.2173L12.3958 18.1417C12.2299 18.025 12.0319 17.9624 11.829 17.9624C11.6261 17.9624 11.4282 18.025 11.2622 18.1417L6.41528 21.2173C5.63949 21.7634 4.61135 21.0004 4.92876 20.1142L6.23193 14.591C6.29953 14.4011 6.30523 14.1946 6.2482 14.0012C6.19118 13.8078 6.07436 13.6375 5.91451 13.5146L2.34609 10.304C1.61663 9.73915 2.02276 8.58582 2.9474 8.58582H7.96192C8.15936 8.58647 8.35235 8.52717 8.51534 8.41575C8.67834 8.30432 8.80366 8.14604 8.87473 7.96183L10.9152 2.30953H10.9162Z" stroke="#A8B7CF" stroke-width="2" stroke-linecap="round" stroke-linejoin="round"/>
</svg>
