<svg width="16" height="19" viewBox="0 0 16 19" fill="none" xmlns="http://www.w3.org/2000/svg">
<path d="M8 9.5L4.26122 6.47337C3.70573 6.02369 3.42798 5.79884 3.22831 5.52322C3.05139 5.27901 2.92 5.00651 2.84014 4.71814C2.75 4.39268 2.75 4.04146 2.75 3.33903V1M8 9.5L11.7388 6.47337C12.2943 6.02369 12.572 5.79884 12.7717 5.52322C12.9486 5.27901 13.08 5.00651 13.1599 4.71814C13.25 4.39268 13.25 4.04146 13.25 3.33903V1M8 9.5L4.26123 12.5266C3.70573 12.9763 3.42798 13.2012 3.22831 13.4768C3.05139 13.721 2.92 13.9935 2.84014 14.2819C2.75 14.6073 2.75 14.9585 2.75 15.661V18M8 9.5L11.7388 12.5266C12.2943 12.9763 12.572 13.2012 12.7717 13.4768C12.9486 13.721 13.08 13.9935 13.1599 14.2819C13.25 14.6073 13.25 14.9585 13.25 15.661V18M1 1H15M1 18H15" stroke="#D9D9D9" stroke-width="2" stroke-linecap="round" stroke-linejoin="round"/>
<path d="M8.00056 8.30078C5.72024 6.45116 3.94163 4.97424 4.11775 5.00076L11.8961 5.00076C12.1162 4.91819 10.0318 6.60712 8.00056 8.30078Z" fill="#1890FF"/>
<rect x="3.75" y="16" width="8.5" height="1" fill="#1890FF"/>
</svg>
