<svg width="307" height="162" viewBox="0 0 307 162" fill="none" xmlns="http://www.w3.org/2000/svg">
<path d="M260.39 147.86H266.04V148.44H263.55V155H262.87V148.44H260.39V147.86ZM265.413 151.42C265.453 150.833 265.656 150.4 266.023 150.12C266.39 149.833 266.883 149.69 267.503 149.69C268.77 149.69 269.403 150.243 269.403 151.35V154.09C269.403 154.343 269.526 154.47 269.773 154.47C269.853 154.47 269.92 154.457 269.973 154.43V154.96C269.84 154.987 269.703 155 269.563 155C269.27 155 269.073 154.927 268.973 154.78C268.873 154.627 268.823 154.4 268.823 154.1H268.803C268.556 154.467 268.3 154.733 268.033 154.9C267.766 155.06 267.396 155.14 266.923 155.14C266.41 155.14 265.993 155.017 265.673 154.77C265.353 154.517 265.193 154.14 265.193 153.64C265.193 153.453 265.22 153.287 265.273 153.14C265.326 152.987 265.386 152.86 265.453 152.76C265.526 152.653 265.636 152.56 265.783 152.48C265.936 152.393 266.066 152.33 266.173 152.29C266.28 152.243 266.44 152.2 266.653 152.16C266.873 152.12 267.04 152.093 267.153 152.08C267.266 152.06 267.45 152.037 267.703 152.01C267.816 151.997 267.903 151.987 267.963 151.98C268.256 151.953 268.463 151.897 268.583 151.81C268.71 151.723 268.773 151.547 268.773 151.28C268.773 150.887 268.653 150.613 268.413 150.46C268.173 150.3 267.843 150.22 267.423 150.22C267.003 150.22 266.67 150.32 266.423 150.52C266.183 150.713 266.056 151.013 266.043 151.42H265.413ZM268.773 152.18H268.753C268.7 152.28 268.523 152.357 268.223 152.41C268.11 152.43 267.93 152.46 267.683 152.5C267.436 152.533 267.246 152.563 267.113 152.59C266.98 152.61 266.816 152.65 266.623 152.71C266.436 152.763 266.293 152.823 266.193 152.89C266.1 152.957 266.013 153.053 265.933 153.18C265.86 153.3 265.823 153.44 265.823 153.6C265.823 153.907 265.936 154.153 266.163 154.34C266.39 154.527 266.66 154.62 266.973 154.62C267.48 154.62 267.906 154.473 268.253 154.18C268.6 153.88 268.773 153.487 268.773 153V152.18ZM270.659 149.84H271.239V151.05H271.259C271.419 150.623 271.669 150.3 272.009 150.08C272.349 149.853 272.749 149.75 273.209 149.77V150.4C272.649 150.373 272.189 150.54 271.829 150.9C271.469 151.253 271.289 151.703 271.289 152.25V155H270.659V149.84ZM278.173 154.58C278.173 155.38 277.993 155.99 277.633 156.41C277.273 156.837 276.69 157.05 275.883 157.05C275.316 157.05 274.826 156.917 274.413 156.65C274.006 156.39 273.783 156.003 273.743 155.49H274.373C274.433 155.843 274.603 156.103 274.883 156.27C275.163 156.437 275.496 156.52 275.883 156.52C276.99 156.52 277.543 155.873 277.543 154.58V153.88H277.523C277.376 154.207 277.16 154.467 276.873 154.66C276.586 154.847 276.256 154.94 275.883 154.94C275.096 154.94 274.51 154.697 274.123 154.21C273.743 153.723 273.553 153.083 273.553 152.29C273.553 151.55 273.76 150.933 274.173 150.44C274.593 149.94 275.163 149.69 275.883 149.69C276.25 149.69 276.583 149.79 276.883 149.99C277.183 150.19 277.396 150.437 277.523 150.73H277.543V149.84H278.173V154.58ZM275.883 154.41C276.403 154.41 276.81 154.21 277.103 153.81C277.396 153.403 277.543 152.92 277.543 152.36C277.543 151.787 277.403 151.287 277.123 150.86C276.85 150.433 276.436 150.22 275.883 150.22C275.323 150.22 274.9 150.43 274.613 150.85C274.326 151.263 274.183 151.767 274.183 152.36C274.183 152.927 274.326 153.41 274.613 153.81C274.906 154.21 275.33 154.41 275.883 154.41ZM283.08 152.06C283.066 151.56 282.91 151.13 282.61 150.77C282.31 150.403 281.92 150.22 281.44 150.22C280.953 150.22 280.563 150.4 280.27 150.76C279.976 151.113 279.8 151.547 279.74 152.06H283.08ZM279.74 152.59C279.74 153.117 279.883 153.587 280.17 154C280.463 154.413 280.886 154.62 281.44 154.62C282.3 154.62 282.84 154.18 283.06 153.3H283.69C283.41 154.527 282.66 155.14 281.44 155.14C280.66 155.14 280.076 154.887 279.69 154.38C279.303 153.867 279.11 153.213 279.11 152.42C279.11 151.94 279.186 151.503 279.34 151.11C279.493 150.71 279.75 150.373 280.11 150.1C280.476 149.827 280.92 149.69 281.44 149.69C281.966 149.69 282.406 149.833 282.76 150.12C283.12 150.407 283.373 150.763 283.52 151.19C283.666 151.617 283.73 152.083 283.71 152.59H279.74ZM285.555 149.84H286.605V150.37H285.555V153.85C285.555 154.077 285.588 154.243 285.655 154.35C285.722 154.457 285.858 154.517 286.065 154.53C286.245 154.53 286.425 154.52 286.605 154.5V155.03C286.545 155.03 286.452 155.033 286.325 155.04C286.198 155.047 286.105 155.05 286.045 155.05C285.618 155.05 285.322 154.967 285.155 154.8C284.995 154.633 284.918 154.333 284.925 153.9V150.37H284.025V149.84H284.925V148.29H285.555V149.84ZM287.884 155V153.94H288.724V155H287.884ZM287.884 151.06V150H288.724V151.06H287.884ZM296.9 149.77C296.847 149.377 296.69 149.063 296.43 148.83C296.17 148.59 295.84 148.47 295.44 148.47C295.054 148.47 294.724 148.57 294.45 148.77C294.184 148.97 293.984 149.24 293.85 149.58C293.724 149.913 293.634 150.243 293.58 150.57C293.534 150.89 293.51 151.233 293.51 151.6H293.53C293.697 151.253 293.947 150.973 294.28 150.76C294.62 150.547 294.99 150.44 295.39 150.44C296.084 150.44 296.64 150.66 297.06 151.1C297.487 151.533 297.7 152.093 297.7 152.78C297.7 153.467 297.477 154.033 297.03 154.48C296.59 154.92 296.024 155.14 295.33 155.14C294.464 155.14 293.837 154.86 293.45 154.3C293.07 153.733 292.88 152.777 292.88 151.43C292.88 151.21 292.89 150.98 292.91 150.74C292.937 150.5 293 150.203 293.1 149.85C293.207 149.497 293.344 149.187 293.51 148.92C293.677 148.653 293.92 148.423 294.24 148.23C294.567 148.037 294.947 147.94 295.38 147.94C296.667 147.94 297.384 148.55 297.53 149.77H296.9ZM295.38 150.97C294.847 150.97 294.424 151.147 294.11 151.5C293.797 151.847 293.64 152.287 293.64 152.82C293.64 153.353 293.784 153.787 294.07 154.12C294.364 154.453 294.804 154.62 295.39 154.62C295.877 154.62 296.277 154.447 296.59 154.1C296.91 153.747 297.07 153.32 297.07 152.82C297.07 152.293 296.917 151.853 296.61 151.5C296.31 151.147 295.9 150.97 295.38 150.97ZM299.007 155V153.94H299.847V155H299.007ZM301.81 153C301.824 153.48 301.99 153.87 302.31 154.17C302.637 154.47 303.044 154.62 303.53 154.62C304.05 154.62 304.47 154.433 304.79 154.06C305.117 153.687 305.28 153.237 305.28 152.71C305.28 152.19 305.11 151.757 304.77 151.41C304.437 151.063 304.01 150.89 303.49 150.89C302.817 150.89 302.297 151.167 301.93 151.72H301.39L302.07 148.09H305.57V148.67H302.51L302.06 150.99L302.08 151.01C302.254 150.81 302.474 150.653 302.74 150.54C303.007 150.42 303.28 150.36 303.56 150.36C304.274 150.36 304.844 150.587 305.27 151.04C305.697 151.487 305.91 152.067 305.91 152.78C305.91 153.46 305.674 154.023 305.2 154.47C304.734 154.917 304.16 155.14 303.48 155.14C302.814 155.14 302.267 154.95 301.84 154.57C301.414 154.183 301.194 153.66 301.18 153H301.81Z" fill="white"/>
<path d="M10.3897 152.77C10.363 153.33 10.5064 153.78 10.8197 154.12C11.1397 154.453 11.5797 154.62 12.1397 154.62C12.6264 154.62 13.0464 154.483 13.3997 154.21C13.753 153.93 13.9297 153.55 13.9297 153.07C13.9297 152.59 13.773 152.223 13.4597 151.97C13.1464 151.717 12.743 151.59 12.2497 151.59H11.7197V151.06H12.2497C12.6164 151.06 12.943 150.95 13.2297 150.73C13.523 150.51 13.6697 150.197 13.6697 149.79C13.6697 149.35 13.5264 149.02 13.2397 148.8C12.953 148.58 12.5864 148.47 12.1397 148.47C11.6264 148.47 11.2297 148.633 10.9497 148.96C10.6697 149.287 10.5364 149.713 10.5497 150.24H9.91969C9.91969 149.567 10.1197 149.017 10.5197 148.59C10.9264 148.157 11.463 147.94 12.1297 147.94C12.7297 147.94 13.2397 148.093 13.6597 148.4C14.0864 148.7 14.2997 149.14 14.2997 149.72C14.2997 150.107 14.1964 150.44 13.9897 150.72C13.783 150.993 13.493 151.177 13.1197 151.27V151.29C13.573 151.363 13.9264 151.553 14.1797 151.86C14.433 152.167 14.5597 152.553 14.5597 153.02C14.5597 153.687 14.3264 154.207 13.8597 154.58C13.3997 154.953 12.8297 155.14 12.1497 155.14C11.403 155.14 10.803 154.93 10.3497 154.51C9.90302 154.083 9.70635 153.503 9.75969 152.77H10.3897ZM15.9563 155V153.94H16.7963V155H15.9563ZM19.5095 148.17C19.8095 148.017 20.1562 147.94 20.5495 147.94C20.9429 147.94 21.2862 148.017 21.5795 148.17C21.8795 148.317 22.1162 148.507 22.2895 148.74C22.4629 148.967 22.6029 149.247 22.7095 149.58C22.8229 149.907 22.8962 150.227 22.9295 150.54C22.9695 150.847 22.9895 151.18 22.9895 151.54C22.9895 153.94 22.1762 155.14 20.5495 155.14C18.9229 155.14 18.1095 153.943 18.1095 151.55C18.1095 151.19 18.1262 150.853 18.1595 150.54C18.1995 150.227 18.2729 149.907 18.3795 149.58C18.4929 149.247 18.6362 148.967 18.8095 148.74C18.9829 148.507 19.2162 148.317 19.5095 148.17ZM22.3595 151.54C22.3595 149.493 21.7562 148.47 20.5495 148.47C19.3429 148.47 18.7395 149.493 18.7395 151.54C18.7395 153.593 19.3429 154.62 20.5495 154.62C21.7562 154.62 22.3595 153.593 22.3595 151.54Z" fill="white"/>
<path d="M16.9308 138.119C22.4308 75.6195 67.9307 30.6195 120.431 18.6194" stroke="#FF6600" stroke-width="8" stroke-linecap="round"/>
<path d="M134.432 16.1185C157.432 13.1185 182.432 16.6185 205.432 26.6186" stroke="#FFAA00" stroke-width="8" stroke-linecap="round"/>
<path d="M218.43 33.1196C234.93 43.1196 250.43 56.6196 261.93 73.6196" stroke="#FCD74B" stroke-width="8" stroke-linecap="round"/>
<path d="M269.432 86.1195C275.932 97.6195 283.432 117.62 284.932 138.119" stroke="#84CC30" stroke-width="8" stroke-linecap="round"/>
<g filter="url(#filter0_d_28_5184)">
<circle cx="229.93" cy="40.5" r="9.5" fill="#F0F0F0"/>
<circle cx="229.93" cy="40.5" r="8" stroke="#FFAA00" stroke-width="3"/>
</g>
<path d="M220.452 52.1483C221.873 51.5769 223.382 52.7489 223.181 54.2669L221.046 70.3535C220.814 72.0996 218.578 72.7306 217.381 71.4386C213.606 67.3652 210.032 64.826 204.876 62.0405C203.359 61.2211 203.452 58.9852 205.051 58.342L220.452 52.1483Z" fill="#F0F0F0"/>
<path fill-rule="evenodd" clip-rule="evenodd" d="M56.4802 138.5C56.4969 138.002 56.5179 137.505 56.543 137.008C56.6257 135.37 55.3778 133.972 53.7468 133.864C53.7054 134.362 53.668 134.861 53.6346 135.36C53.6013 135.858 53.572 136.358 53.5468 136.857C53.5191 137.404 53.4964 137.952 53.4785 138.5H56.4802ZM247.381 138.5C247.363 137.952 247.34 137.404 247.312 136.857C247.287 136.358 247.258 135.858 247.225 135.36C247.191 134.861 247.154 134.362 247.112 133.864C245.481 133.972 244.234 135.37 244.316 137.008C244.341 137.505 244.362 138.002 244.379 138.5H247.381ZM57.4476 128.07C57.2004 129.692 55.6977 130.812 54.0781 130.591C54.1373 130.094 54.2006 129.598 54.2679 129.103C54.3352 128.607 54.4065 128.113 54.4819 127.618C54.9484 124.558 55.5689 121.522 56.3412 118.52C56.4658 118.036 56.5943 117.553 56.7268 117.071C56.8592 116.589 56.9956 116.108 57.1358 115.627C58.7122 116.06 59.6554 117.679 59.2466 119.268C58.4993 122.172 57.899 125.109 57.4476 128.07ZM61.9192 110.689C61.3534 112.229 59.6575 113.026 58.1143 112.487C58.2714 112.012 58.4325 111.539 58.5974 111.067C58.7621 110.595 58.9308 110.124 59.1033 109.655C59.6364 108.203 60.2065 106.764 60.8133 105.336C61.4238 103.901 62.0698 102.481 62.7507 101.079C62.9692 100.63 63.1913 100.182 63.4169 99.7355C63.6426 99.2893 63.8718 98.8449 64.1046 98.4023C65.5637 99.1397 66.1661 100.914 65.4492 102.39C64.7902 103.747 64.1649 105.121 63.5741 106.51C62.9869 107.891 62.4352 109.285 61.9192 110.689ZM69.8058 94.4557C68.9454 95.8528 67.1246 96.2972 65.7192 95.4618C65.9677 95.0279 66.2196 94.5959 66.475 94.166C66.7303 93.7362 66.9891 93.3083 67.2513 92.8825C68.8849 90.2299 70.6512 87.657 72.5439 85.1731C72.8468 84.7755 73.153 84.3802 73.4624 83.9872C73.7716 83.5944 74.084 83.204 74.3996 82.8159C75.6847 83.827 75.9247 85.686 74.9301 86.9913C73.0974 89.3965 71.3873 91.8876 69.8058 94.4557ZM80.767 80.067C79.6489 81.2683 77.7759 81.3465 76.5619 80.251C76.8907 79.8746 77.2226 79.5006 77.5577 79.1291C77.8924 78.758 78.2301 78.3893 78.5709 78.0231C79.6315 76.8836 80.7215 75.7683 81.8403 74.6784C82.9685 73.5792 84.1233 72.5085 85.3032 71.467C85.6781 71.1361 86.0556 70.8082 86.4356 70.4832C86.8156 70.1582 87.1981 69.8361 87.5831 69.5171C88.6465 70.7597 88.5189 72.6302 87.2885 73.7162C86.1453 74.7252 85.0267 75.7625 83.9337 76.8272C82.85 77.883 81.7942 78.9633 80.767 80.067ZM94.4364 68.005C93.1056 68.9657 91.2529 68.6775 90.2755 67.366C90.6717 67.0609 91.0702 66.7589 91.4711 66.4599C91.8719 66.161 92.275 65.8652 92.6805 65.5726C95.2311 63.7313 97.873 62.0132 100.597 60.4243C101.028 60.1724 101.462 59.9238 101.898 59.6784C102.334 59.4332 102.771 59.1912 103.211 58.9526C104.014 60.3778 103.526 62.1884 102.108 63.0156C99.4684 64.5556 96.908 66.2208 94.4364 68.005ZM110.228 58.7903C108.737 59.477 106.974 58.8373 106.268 57.3619C106.715 57.139 107.165 56.9194 107.616 56.7033C108.066 56.4873 108.519 56.2747 108.973 56.0654C110.401 55.4078 111.847 54.7835 113.309 54.1934C114.78 53.5998 116.264 53.0422 117.76 52.5209C118.233 52.3563 118.706 52.1954 119.181 52.0381C119.655 51.8807 120.131 51.7269 120.608 51.5768C121.123 53.1296 120.298 54.8136 118.748 55.3538C117.297 55.8593 115.858 56.3999 114.432 56.9754C113.014 57.5475 111.613 58.1528 110.228 58.7903ZM127.589 52.7423C125.994 53.1312 124.386 52.1661 123.975 50.5825C124.457 50.4493 124.94 50.3199 125.424 50.1941C125.908 50.0683 126.392 49.9462 126.878 49.8277C129.957 49.0769 133.072 48.4738 136.212 48.0206C136.707 47.9492 137.202 47.8815 137.698 47.8175C138.194 47.7535 138.691 47.6933 139.187 47.6368C139.397 49.2595 138.266 50.7553 136.641 50.9898C133.596 51.4294 130.575 52.0143 127.589 52.7423ZM145.819 50.1101C144.179 50.1885 142.784 48.9349 142.682 47.3019C143.18 47.263 143.679 47.2279 144.178 47.1964C144.677 47.1651 145.176 47.1374 145.676 47.1135C147.258 47.0379 148.843 47 150.43 47C152.017 47 153.602 47.0379 155.183 47.1135C155.683 47.1374 156.182 47.1651 156.681 47.1964C157.18 47.2279 157.679 47.263 158.177 47.3019C158.075 48.9349 156.68 50.1885 155.04 50.1101C153.506 50.0368 151.969 50 150.43 50C148.89 50 147.353 50.0368 145.819 50.1101ZM164.219 50.9898C162.594 50.7553 161.462 49.2595 161.672 47.6368C162.169 47.6933 162.665 47.7535 163.161 47.8175C163.657 47.8815 164.152 47.9492 164.647 48.0206C167.787 48.4738 170.902 49.0769 173.981 49.8277C174.467 49.9462 174.952 50.0683 175.436 50.1941C175.92 50.3199 176.403 50.4493 176.885 50.5825C176.473 52.1661 174.865 53.1312 173.27 52.7423C170.284 52.0143 167.264 51.4294 164.219 50.9898ZM182.112 55.3538C180.561 54.8136 179.736 53.1296 180.251 51.5768C180.728 51.7269 181.204 51.8807 181.679 52.0381C182.153 52.1954 182.627 52.3563 183.099 52.5209C184.595 53.0422 186.079 53.5998 187.55 54.1934C189.012 54.7835 190.458 55.4078 191.886 56.0654C192.34 56.2746 192.793 56.4873 193.244 56.7033C193.695 56.9194 194.144 57.139 194.591 57.3619C193.885 58.8373 192.122 59.477 190.631 58.7903C189.247 58.1527 187.845 57.5475 186.427 56.9754C185.001 56.3999 183.562 55.8593 182.112 55.3538ZM198.751 63.0156C197.333 62.1884 196.846 60.3778 197.648 58.9526C198.088 59.1912 198.526 59.4332 198.961 59.6784C199.397 59.9238 199.831 60.1724 200.263 60.4243C202.986 62.0131 205.628 63.7313 208.179 65.5726C208.584 65.8652 208.987 66.161 209.388 66.4599C209.789 66.7589 210.188 67.0609 210.584 67.366C209.606 68.6774 207.754 68.9657 206.423 68.005C203.951 66.2208 201.391 64.5556 198.751 63.0156ZM213.571 73.7162C212.34 72.6302 212.213 70.7597 213.276 69.5171C213.661 69.8361 214.044 70.1582 214.424 70.4832C214.804 70.8082 215.181 71.1361 215.556 71.467C216.736 72.5085 217.891 73.5792 219.019 74.6784C220.138 75.7683 221.228 76.8836 222.288 78.0231C222.629 78.3893 222.967 78.758 223.302 79.1291C223.637 79.5006 223.969 79.8746 224.297 80.251C223.083 81.3465 221.21 81.2683 220.092 80.067C219.065 78.9633 218.009 77.883 216.926 76.8272C215.833 75.7625 214.714 74.7252 213.571 73.7162ZM225.929 86.9913C224.935 85.686 225.174 83.827 226.46 82.8159C226.775 83.204 227.088 83.5944 227.397 83.9872C227.706 84.3802 228.012 84.7755 228.315 85.1731C230.208 87.657 231.974 90.2299 233.608 92.8825C233.87 93.3083 234.129 93.7361 234.384 94.166C234.64 94.5959 234.892 95.0279 235.14 95.4618C233.735 96.2972 231.914 95.8528 231.053 94.4556C229.472 91.8876 227.762 89.3965 225.929 86.9913ZM235.41 102.39C234.693 100.914 235.296 99.1396 236.755 98.4023C236.987 98.8448 237.217 99.2893 237.442 99.7355C237.668 100.182 237.89 100.63 238.109 101.079C238.789 102.481 239.435 103.901 240.046 105.336C240.653 106.764 241.223 108.203 241.756 109.655C241.928 110.124 242.097 110.595 242.262 111.067C242.427 111.539 242.588 112.012 242.745 112.487C241.202 113.026 239.506 112.229 238.94 110.689C238.424 109.285 237.872 107.891 237.285 106.51C236.694 105.121 236.069 103.747 235.41 102.39ZM246.591 129.103C246.659 129.598 246.722 130.094 246.781 130.591C245.162 130.811 243.659 129.692 243.412 128.07C242.96 125.109 242.36 122.172 241.613 119.268C241.204 117.679 242.147 116.06 243.723 115.627C243.864 116.108 244 116.589 244.132 117.071C244.265 117.553 244.393 118.036 244.518 118.52C245.29 121.521 245.911 124.558 246.377 127.618C246.453 128.113 246.524 128.607 246.591 129.103Z" fill="#F0F0F0" fill-opacity="0.3"/>
<path d="M142.637 77.68H131.077L129.957 84.04L130.037 84.12C131.477 82.68 133.303 81.96 135.517 81.96C138.183 81.96 140.29 82.8667 141.837 84.68C143.383 86.4933 144.157 88.76 144.157 91.48C144.157 94.36 143.13 96.7733 141.077 98.72C139.023 100.64 136.583 101.573 133.757 101.52C130.85 101.52 128.397 100.76 126.397 99.24C124.423 97.6933 123.41 95.5067 123.357 92.68H129.037C129.17 93.96 129.65 94.9867 130.477 95.76C131.303 96.5067 132.357 96.88 133.637 96.88C135.077 96.88 136.237 96.3467 137.117 95.28C138.023 94.1867 138.477 92.92 138.477 91.48C138.477 89.9867 138.037 88.7467 137.157 87.76C136.303 86.7467 135.13 86.24 133.637 86.24C132.65 86.24 131.837 86.4133 131.197 86.76C130.557 87.1067 129.943 87.68 129.357 88.48H124.237L126.997 73H142.637V77.68ZM147.263 94.84H153.543V101H147.263V94.84ZM162.516 86.88C162.516 87.8133 162.516 88.5867 162.516 89.2C162.543 89.7867 162.636 90.6267 162.796 91.72C162.956 92.8133 163.183 93.6933 163.476 94.36C163.769 95 164.223 95.5867 164.836 96.12C165.476 96.6267 166.223 96.88 167.076 96.88C167.956 96.88 168.703 96.6267 169.316 96.12C169.956 95.5867 170.423 95 170.716 94.36C171.009 93.6933 171.236 92.8133 171.396 91.72C171.556 90.6267 171.649 89.7867 171.676 89.2C171.703 88.5867 171.716 87.8133 171.716 86.88C171.716 86.2667 171.703 85.7733 171.676 85.4C171.676 85.0267 171.649 84.4667 171.596 83.72C171.543 82.9467 171.463 82.3067 171.356 81.8C171.249 81.2933 171.076 80.72 170.836 80.08C170.623 79.44 170.356 78.9333 170.036 78.56C169.716 78.16 169.303 77.8267 168.796 77.56C168.289 77.2667 167.716 77.12 167.076 77.12C166.356 77.12 165.716 77.28 165.156 77.6C164.596 77.92 164.156 78.4 163.836 79.04C163.516 79.68 163.263 80.2933 163.076 80.88C162.889 81.44 162.756 82.1733 162.676 83.08C162.596 83.9867 162.543 84.6667 162.516 85.12C162.516 85.5467 162.516 86.1333 162.516 86.88ZM156.836 86.88C156.836 81.76 157.769 78.08 159.636 75.84C161.529 73.5733 164.009 72.44 167.076 72.44C168.543 72.44 169.876 72.6933 171.076 73.2C172.276 73.68 173.356 74.4667 174.316 75.56C175.303 76.6267 176.063 78.12 176.596 80.04C177.129 81.96 177.396 84.24 177.396 86.88C177.396 89.5733 177.129 91.9067 176.596 93.88C176.063 95.8267 175.303 97.3467 174.316 98.44C173.329 99.5067 172.236 100.293 171.036 100.8C169.863 101.28 168.543 101.52 167.076 101.52C163.983 101.52 161.503 100.387 159.636 98.12C157.769 95.8533 156.836 92.1067 156.836 86.88Z" fill="#F0F0F0"/>
<path d="M106.883 122V110.688C106.883 110.536 106.932 110.411 107.031 110.312C107.135 110.208 107.284 110.156 107.477 110.156H108.07V121.492C108.07 121.674 108.013 121.805 107.898 121.883C107.789 121.961 107.643 122 107.461 122H106.883ZM110.398 121.375V110.773C110.398 110.576 110.445 110.424 110.539 110.32C110.633 110.211 110.794 110.156 111.023 110.156H116.875V111.234H111.586V115.484H115.305C115.445 115.484 115.562 115.5 115.656 115.531C115.75 115.557 115.823 115.599 115.875 115.656C115.932 115.708 115.971 115.773 115.992 115.852C116.013 115.924 116.023 116.005 116.023 116.094V116.562H111.586V120.93H116.875V122H111.023C110.945 122 110.867 121.984 110.789 121.953C110.716 121.917 110.651 121.87 110.594 121.812C110.536 121.75 110.49 121.682 110.453 121.609C110.417 121.531 110.398 121.453 110.398 121.375ZM119.164 122V110.727C119.164 110.56 119.221 110.424 119.336 110.32C119.456 110.211 119.617 110.156 119.82 110.156H120.352V120.93H125.242V121.383C125.242 121.591 125.19 121.747 125.086 121.852C124.987 121.951 124.815 122 124.57 122H119.164ZM128.078 111.234V122H126.891V111.234H124.172V110.688C124.172 110.531 124.224 110.404 124.328 110.305C124.432 110.206 124.591 110.156 124.805 110.156H130.781V110.727C130.781 110.909 130.734 111.039 130.641 111.117C130.547 111.195 130.422 111.234 130.266 111.234H128.078ZM138.461 118.734C138.461 119.714 138.109 120.539 137.406 121.211C136.714 121.878 135.875 122.211 134.891 122.211C133.833 122.211 132.966 121.888 132.289 121.242C131.607 120.596 131.258 119.745 131.242 118.688H131.93H131.984C132.25 118.688 132.411 118.831 132.469 119.117C132.656 120.461 133.464 121.133 134.891 121.133C135.552 121.133 136.112 120.909 136.57 120.461C137.039 120.003 137.273 119.443 137.273 118.781C137.273 118.068 136.995 117.495 136.438 117.062C136.214 116.891 135.932 116.732 135.594 116.586C135.339 116.482 135.018 116.372 134.633 116.258C134.138 116.112 133.742 115.974 133.445 115.844C133.049 115.677 132.724 115.49 132.469 115.281C131.865 114.781 131.562 114.065 131.562 113.133C131.562 112.211 131.888 111.448 132.539 110.844C133.18 110.25 133.964 109.953 134.891 109.953C135.807 109.953 136.581 110.258 137.211 110.867C137.852 111.487 138.172 112.255 138.172 113.172H137.539C137.201 113.172 137 113.021 136.938 112.719C136.859 112.323 136.672 111.971 136.375 111.664C135.964 111.237 135.469 111.023 134.891 111.023C134.292 111.023 133.786 111.219 133.375 111.609C132.958 112 132.75 112.492 132.75 113.086C132.75 113.773 133.068 114.297 133.703 114.656C133.938 114.786 134.242 114.911 134.617 115.031L135.562 115.312C136.464 115.583 137.159 115.987 137.648 116.523C138.19 117.117 138.461 117.854 138.461 118.734ZM153.117 117.617C153.117 118.872 152.667 119.951 151.766 120.852C150.865 121.758 149.786 122.211 148.531 122.211C147.297 122.211 146.229 121.763 145.328 120.867C144.422 119.971 143.969 118.909 143.969 117.68C143.969 116.409 144.411 115.318 145.297 114.406C146.188 113.484 147.266 113.023 148.531 113.023C149.776 113.023 150.852 113.477 151.758 114.383C152.664 115.289 153.117 116.367 153.117 117.617ZM152 117.57C152 116.612 151.664 115.784 150.992 115.086C150.315 114.383 149.5 114.031 148.547 114.031C147.568 114.031 146.742 114.396 146.07 115.125C145.414 115.833 145.086 116.68 145.086 117.664C145.086 118.622 145.422 119.451 146.094 120.148C146.771 120.852 147.589 121.203 148.547 121.203C149.536 121.203 150.365 120.844 151.031 120.125C151.677 119.422 152 118.57 152 117.57ZM158.961 121.672C158.919 121.776 158.862 121.857 158.789 121.914C158.716 121.971 158.612 122 158.477 122H157.969C157.714 122 157.539 121.891 157.445 121.672L154.008 113.531C153.977 113.469 153.984 113.406 154.031 113.344C154.078 113.281 154.151 113.25 154.25 113.25H155.094L158.18 120.609L161.312 113.25H162.156C162.25 113.25 162.32 113.281 162.367 113.344C162.414 113.401 162.417 113.479 162.375 113.578L158.961 121.672ZM165.586 117.516C165.586 117.354 165.633 117.232 165.727 117.148C165.82 117.065 165.951 117.023 166.117 117.023H171.227C171.081 116.159 170.693 115.445 170.062 114.883C169.427 114.315 168.674 114.031 167.805 114.031C166.94 114.031 166.188 114.315 165.547 114.883C164.917 115.445 164.531 116.159 164.391 117.023C164.375 117.138 164.365 117.237 164.359 117.32C164.354 117.404 164.352 117.482 164.352 117.555C164.352 117.628 164.354 117.701 164.359 117.773C164.365 117.846 164.37 117.93 164.375 118.023C164.432 118.888 164.799 119.635 165.477 120.266C166.154 120.891 166.924 121.203 167.789 121.203C168.477 121.203 169.107 121.021 169.68 120.656C170.273 120.276 170.688 119.768 170.922 119.133H172.109C171.786 120.049 171.229 120.792 170.438 121.359C169.646 121.927 168.768 122.211 167.805 122.211C166.544 122.211 165.466 121.76 164.57 120.859C163.685 119.969 163.242 118.893 163.242 117.633C163.242 116.378 163.685 115.297 164.57 114.391C165.466 113.479 166.539 113.023 167.789 113.023C169.06 113.023 170.143 113.49 171.039 114.422C171.93 115.344 172.375 116.44 172.375 117.711L172.359 118.031H165.586V117.516ZM177.703 114.211C176.036 114.346 175.203 115.237 175.203 116.883V121.484C175.203 121.677 175.146 121.812 175.031 121.891C174.922 121.964 174.789 122 174.633 122H174.086V113.727C174.086 113.576 174.13 113.458 174.219 113.375C174.312 113.292 174.456 113.25 174.648 113.25H175.203V114.516H175.234C175.464 113.99 175.794 113.609 176.227 113.375C176.581 113.188 177.073 113.07 177.703 113.023V114.211ZM186.672 122V120.461H186.641C185.87 121.628 184.734 122.211 183.234 122.211C181.917 122.211 180.805 121.771 179.898 120.891C178.987 120.01 178.531 118.914 178.531 117.602C178.531 116.299 178.992 115.208 179.914 114.328C180.826 113.458 181.932 113.023 183.234 113.023C184.76 113.023 185.896 113.609 186.641 114.781H186.672V113.758C186.672 113.581 186.719 113.453 186.812 113.375C186.906 113.292 187.055 113.25 187.258 113.25H187.797V121.523C187.797 121.721 187.75 121.852 187.656 121.914C187.562 121.971 187.422 122 187.234 122H186.672ZM186.742 117.633C186.742 116.648 186.406 115.805 185.734 115.102C185.052 114.388 184.219 114.031 183.234 114.031C182.198 114.031 181.341 114.375 180.664 115.062C179.987 115.75 179.648 116.612 179.648 117.648C179.648 118.669 179.99 119.518 180.672 120.195C181.354 120.867 182.208 121.203 183.234 121.203C184.219 121.203 185.052 120.852 185.734 120.148C186.406 119.456 186.742 118.617 186.742 117.633ZM189.82 122V110.75C189.82 110.562 189.862 110.417 189.945 110.312C190.029 110.208 190.172 110.156 190.375 110.156H190.938V121.391C190.938 121.635 190.896 121.799 190.812 121.883C190.729 121.961 190.583 122 190.375 122H189.82ZM193.023 122V110.75C193.023 110.562 193.065 110.417 193.148 110.312C193.232 110.208 193.375 110.156 193.578 110.156H194.141V121.391C194.141 121.635 194.099 121.799 194.016 121.883C193.932 121.961 193.786 122 193.578 122H193.023ZM116.156 134.602C116.156 135.914 115.701 137.01 114.789 137.891C113.883 138.771 112.771 139.211 111.453 139.211C109.979 139.211 108.841 138.628 108.039 137.461H108.008V138.5C108.008 138.698 107.956 138.831 107.852 138.898C107.753 138.966 107.617 139 107.445 139H106.891V127.664C106.891 127.508 106.935 127.385 107.023 127.297C107.117 127.203 107.26 127.156 107.453 127.156H108.008V131.781H108.039C108.862 130.609 110 130.023 111.453 130.023C112.755 130.023 113.859 130.458 114.766 131.328C115.693 132.208 116.156 133.299 116.156 134.602ZM115.031 134.648C115.031 133.612 114.695 132.75 114.023 132.062C113.346 131.375 112.49 131.031 111.453 131.031C110.469 131.031 109.635 131.388 108.953 132.102C108.281 132.805 107.945 133.648 107.945 134.633C107.945 135.617 108.281 136.456 108.953 137.148C109.635 137.852 110.469 138.203 111.453 138.203C112.479 138.203 113.331 137.867 114.008 137.195C114.69 136.518 115.031 135.669 115.031 134.648ZM125.523 139V137.461H125.492C124.721 138.628 123.586 139.211 122.086 139.211C120.768 139.211 119.656 138.771 118.75 137.891C117.839 137.01 117.383 135.914 117.383 134.602C117.383 133.299 117.844 132.208 118.766 131.328C119.677 130.458 120.784 130.023 122.086 130.023C123.612 130.023 124.747 130.609 125.492 131.781H125.523V130.758C125.523 130.581 125.57 130.453 125.664 130.375C125.758 130.292 125.906 130.25 126.109 130.25H126.648V138.523C126.648 138.721 126.602 138.852 126.508 138.914C126.414 138.971 126.273 139 126.086 139H125.523ZM125.594 134.633C125.594 133.648 125.258 132.805 124.586 132.102C123.904 131.388 123.07 131.031 122.086 131.031C121.049 131.031 120.193 131.375 119.516 132.062C118.839 132.75 118.5 133.612 118.5 134.648C118.5 135.669 118.841 136.518 119.523 137.195C120.206 137.867 121.06 138.203 122.086 138.203C123.07 138.203 123.904 137.852 124.586 137.148C125.258 136.456 125.594 135.617 125.594 134.633ZM135.25 139V134.188C135.25 133.719 135.188 133.286 135.062 132.891C134.922 132.427 134.706 132.057 134.414 131.781C133.883 131.281 133.25 131.031 132.516 131.031C131.776 131.031 131.141 131.281 130.609 131.781C130.323 132.052 130.109 132.411 129.969 132.859C129.849 133.245 129.789 133.659 129.789 134.102V139H128.672V130.781C128.672 130.615 128.711 130.484 128.789 130.391C128.872 130.297 129.026 130.25 129.25 130.25H129.789V131.367C130.388 130.471 131.297 130.023 132.516 130.023C133.74 130.023 134.695 130.414 135.383 131.195C136.039 131.945 136.367 132.943 136.367 134.188V138.57C136.367 138.737 136.312 138.852 136.203 138.914C136.094 138.971 135.969 139 135.828 139H135.25ZM138.016 134.602C138.016 133.299 138.479 132.208 139.406 131.328C140.312 130.458 141.417 130.023 142.719 130.023C144.172 130.023 145.31 130.609 146.133 131.781H146.164V127.156H146.719C146.911 127.156 147.052 127.203 147.141 127.297C147.234 127.385 147.281 127.508 147.281 127.664V139H146.727C146.555 139 146.417 138.966 146.312 138.898C146.214 138.831 146.164 138.698 146.164 138.5V137.461H146.133C145.331 138.628 144.193 139.211 142.719 139.211C141.401 139.211 140.289 138.771 139.383 137.891C138.471 137.01 138.016 135.914 138.016 134.602ZM139.141 134.648C139.141 135.669 139.482 136.518 140.164 137.195C140.841 137.867 141.693 138.203 142.719 138.203C143.703 138.203 144.536 137.852 145.219 137.148C145.891 136.456 146.227 135.617 146.227 134.633C146.227 133.648 145.891 132.805 145.219 132.102C144.536 131.388 143.703 131.031 142.719 131.031C141.682 131.031 140.826 131.375 140.148 132.062C139.477 132.75 139.141 133.612 139.141 134.648ZM158.609 136.539C158.609 138.32 157.693 139.211 155.859 139.211C155.078 139.211 154.435 138.956 153.93 138.445C153.466 137.977 153.216 137.393 153.18 136.695C153.174 136.529 153.227 136.438 153.336 136.422L153.445 136.406H153.898C154.133 136.417 154.271 136.529 154.312 136.742C154.422 137.716 154.938 138.203 155.859 138.203C156.948 138.203 157.492 137.68 157.492 136.633C157.492 136.122 157.281 135.716 156.859 135.414C156.693 135.294 156.474 135.177 156.203 135.062L155.461 134.773C155.148 134.654 154.898 134.547 154.711 134.453C154.451 134.318 154.234 134.172 154.062 134.016C153.641 133.63 153.43 133.109 153.43 132.453C153.43 131.74 153.667 131.156 154.141 130.703C154.609 130.25 155.203 130.023 155.922 130.023C156.594 130.023 157.159 130.253 157.617 130.711C157.992 131.086 158.214 131.531 158.281 132.047C158.281 132.281 158.146 132.401 157.875 132.406H157.516C157.307 132.401 157.188 132.307 157.156 132.125C157.031 131.396 156.604 131.031 155.875 131.031C154.99 131.031 154.547 131.469 154.547 132.344C154.547 132.781 154.758 133.13 155.18 133.391C155.341 133.49 155.56 133.591 155.836 133.695L156.016 133.766C156.057 133.781 156.12 133.805 156.203 133.836L156.578 133.977C156.88 134.096 157.13 134.211 157.328 134.32C157.589 134.461 157.805 134.62 157.977 134.797C158.398 135.229 158.609 135.81 158.609 136.539ZM168.07 136.422C168.471 136.422 168.602 136.562 168.461 136.844C167.518 138.422 166.146 139.211 164.344 139.211C163.042 139.211 161.935 138.773 161.023 137.898C160.102 137.013 159.641 135.924 159.641 134.633C159.641 133.352 160.104 132.26 161.031 131.359C161.953 130.469 163.057 130.023 164.344 130.023C165.307 130.023 166.18 130.276 166.961 130.781C167.628 131.214 168.141 131.773 168.5 132.461C168.646 132.747 168.513 132.891 168.102 132.891H167.719C167.536 132.891 167.411 132.818 167.344 132.672C166.688 131.578 165.698 131.031 164.375 131.031C163.37 131.031 162.518 131.375 161.82 132.062C161.112 132.75 160.758 133.596 160.758 134.602C160.758 135.617 161.107 136.471 161.805 137.164C162.503 137.857 163.359 138.203 164.375 138.203C165.734 138.203 166.724 137.677 167.344 136.625C167.411 136.49 167.536 136.422 167.719 136.422H168.07ZM179.172 134.617C179.172 135.872 178.721 136.951 177.82 137.852C176.919 138.758 175.841 139.211 174.586 139.211C173.352 139.211 172.284 138.763 171.383 137.867C170.477 136.971 170.023 135.909 170.023 134.68C170.023 133.409 170.466 132.318 171.352 131.406C172.242 130.484 173.32 130.023 174.586 130.023C175.831 130.023 176.906 130.477 177.812 131.383C178.719 132.289 179.172 133.367 179.172 134.617ZM178.055 134.57C178.055 133.612 177.719 132.784 177.047 132.086C176.37 131.383 175.555 131.031 174.602 131.031C173.622 131.031 172.797 131.396 172.125 132.125C171.469 132.833 171.141 133.68 171.141 134.664C171.141 135.622 171.477 136.451 172.148 137.148C172.826 137.852 173.643 138.203 174.602 138.203C175.591 138.203 176.419 137.844 177.086 137.125C177.732 136.422 178.055 135.57 178.055 134.57ZM184.492 131.211C182.826 131.346 181.992 132.237 181.992 133.883V138.484C181.992 138.677 181.935 138.812 181.82 138.891C181.711 138.964 181.578 139 181.422 139H180.875V130.727C180.875 130.576 180.919 130.458 181.008 130.375C181.102 130.292 181.245 130.25 181.438 130.25H181.992V131.516H182.023C182.253 130.99 182.583 130.609 183.016 130.375C183.37 130.188 183.862 130.07 184.492 130.023V131.211ZM187.594 134.516C187.594 134.354 187.641 134.232 187.734 134.148C187.828 134.065 187.958 134.023 188.125 134.023H193.234C193.089 133.159 192.701 132.445 192.07 131.883C191.435 131.315 190.682 131.031 189.812 131.031C188.948 131.031 188.195 131.315 187.555 131.883C186.924 132.445 186.539 133.159 186.398 134.023C186.383 134.138 186.372 134.237 186.367 134.32C186.362 134.404 186.359 134.482 186.359 134.555C186.359 134.628 186.362 134.701 186.367 134.773C186.372 134.846 186.378 134.93 186.383 135.023C186.44 135.888 186.807 136.635 187.484 137.266C188.161 137.891 188.932 138.203 189.797 138.203C190.484 138.203 191.115 138.021 191.688 137.656C192.281 137.276 192.695 136.768 192.93 136.133H194.117C193.794 137.049 193.237 137.792 192.445 138.359C191.654 138.927 190.776 139.211 189.812 139.211C188.552 139.211 187.474 138.76 186.578 137.859C185.693 136.969 185.25 135.893 185.25 134.633C185.25 133.378 185.693 132.297 186.578 131.391C187.474 130.479 188.547 130.023 189.797 130.023C191.068 130.023 192.151 130.49 193.047 131.422C193.938 132.344 194.383 133.44 194.383 134.711L194.367 135.031H187.594V134.516Z" fill="#F0F0F0"/>
<defs>
<filter id="filter0_d_28_5184" x="212.43" y="27" width="35" height="35" filterUnits="userSpaceOnUse" color-interpolation-filters="sRGB">
<feFlood flood-opacity="0" result="BackgroundImageFix"/>
<feColorMatrix in="SourceAlpha" type="matrix" values="0 0 0 0 0 0 0 0 0 0 0 0 0 0 0 0 0 0 127 0" result="hardAlpha"/>
<feOffset dy="4"/>
<feGaussianBlur stdDeviation="4"/>
<feComposite in2="hardAlpha" operator="out"/>
<feColorMatrix type="matrix" values="0 0 0 0 0 0 0 0 0 0 0 0 0 0 0 0 0 0 0.25 0"/>
<feBlend mode="normal" in2="BackgroundImageFix" result="effect1_dropShadow_28_5184"/>
<feBlend mode="normal" in="SourceGraphic" in2="effect1_dropShadow_28_5184" result="shape"/>
</filter>
</defs>
</svg>
