<svg width="209" height="277" viewBox="0 0 209 277" fill="none" xmlns="http://www.w3.org/2000/svg">
<path d="M1.23311 269.527C0.69591 269.399 0.156499 269.73 0.0283019 270.268C-0.0998952 270.805 0.231667 271.344 0.768867 271.472L1.23311 269.527ZM157.074 0.679367C156.621 0.363163 155.997 0.473924 155.681 0.926749C155.365 1.37954 155.476 2.00294 155.929 2.31915L157.074 0.679367ZM3.7972 272.17C4.33634 272.29 4.87051 271.95 4.9903 271.411C5.1101 270.872 4.77016 270.338 4.23102 270.218L3.7972 272.17ZM10.1783 271.442C9.63568 271.339 9.1125 271.696 9.00978 272.238C8.90705 272.781 9.26368 273.304 9.80633 273.407L10.1783 271.442ZM15.751 274.435C16.2967 274.52 16.8082 274.147 16.8935 273.601C16.9788 273.055 16.6057 272.544 16.06 272.459L15.751 274.435ZM22.0752 273.297C21.527 273.23 21.0283 273.62 20.9613 274.168C20.8943 274.716 21.2844 275.215 21.8326 275.282L22.0752 273.297ZM27.9025 275.919C28.4527 275.967 28.9378 275.56 28.986 275.01C29.0342 274.46 28.6273 273.975 28.0771 273.926L27.9025 275.919ZM34.0399 274.345C33.4884 274.316 33.0177 274.739 32.9887 275.291C32.9596 275.842 33.3832 276.313 33.9347 276.342L34.0399 274.345ZM40.0862 276.555C40.6385 276.564 41.0934 276.124 41.1025 275.571C41.1116 275.019 40.6712 274.564 40.119 274.555L40.0862 276.555ZM46.1139 274.545C45.5617 274.556 45.1231 275.012 45.1342 275.564C45.1453 276.117 45.6019 276.555 46.1541 276.544L46.1139 274.545ZM52.2655 276.307C52.8169 276.275 53.2381 275.803 53.2064 275.251C53.1746 274.7 52.7019 274.279 52.1506 274.311L52.2655 276.307ZM58.1662 273.85C57.6164 273.902 57.2134 274.391 57.2661 274.94C57.3188 275.49 57.8072 275.893 58.3569 275.84L58.1662 273.85ZM64.3888 275.146C64.9362 275.072 65.3201 274.569 65.2464 274.021C65.1727 273.474 64.6693 273.09 64.1219 273.164L64.3888 275.146ZM70.1083 272.238C69.5643 272.333 69.2003 272.851 69.2954 273.395C69.3904 273.939 69.9085 274.303 70.4526 274.208L70.1083 272.238ZM76.4123 273.047C76.9522 272.93 77.2957 272.398 77.1794 271.858C77.0632 271.319 76.5312 270.975 75.9913 271.091L76.4123 273.047ZM81.8787 269.701C81.3438 269.839 81.0218 270.384 81.1594 270.919C81.2969 271.454 81.8421 271.776 82.377 271.638L81.8787 269.701ZM88.2493 270.003C88.7783 269.844 89.0785 269.287 88.9199 268.758C88.7612 268.229 88.2038 267.929 87.6748 268.087L88.2493 270.003ZM93.41 266.242C92.8877 266.422 92.6098 266.991 92.7894 267.513C92.9689 268.035 93.5379 268.313 94.0601 268.134L93.41 266.242ZM99.7976 266.033C100.312 265.833 100.567 265.254 100.367 264.739C100.167 264.224 99.5877 263.969 99.0729 264.169L99.7976 266.033ZM104.633 261.88C104.127 262.1 103.895 262.69 104.115 263.196C104.335 263.702 104.924 263.934 105.431 263.714L104.633 261.88ZM110.991 261.165C111.488 260.925 111.697 260.327 111.457 259.83C111.217 259.332 110.619 259.123 110.122 259.364L110.991 261.165ZM115.482 256.647C114.995 256.906 114.809 257.511 115.069 257.999C115.328 258.487 115.933 258.672 116.421 258.413L115.482 256.647ZM121.767 255.437C122.244 255.159 122.406 254.547 122.128 254.07C121.85 253.592 121.238 253.431 120.761 253.709L121.767 255.437ZM125.903 250.581C125.437 250.877 125.299 251.495 125.595 251.961C125.891 252.427 126.509 252.565 126.975 252.27L125.903 250.581ZM132.07 248.899C132.525 248.586 132.639 247.963 132.326 247.508C132.013 247.053 131.39 246.939 130.935 247.252L132.07 248.899ZM135.832 243.741C135.39 244.071 135.298 244.697 135.628 245.14C135.959 245.583 136.585 245.674 137.028 245.344L135.832 243.741ZM141.852 241.606C142.283 241.26 142.351 240.63 142.005 240.2C141.658 239.77 141.029 239.701 140.599 240.048L141.852 241.606ZM145.227 236.182C144.809 236.544 144.764 237.176 145.126 237.593C145.487 238.01 146.119 238.055 146.536 237.694L145.227 236.182ZM151.074 233.617C151.478 233.24 151.5 232.607 151.124 232.203C150.748 231.799 150.115 231.777 149.711 232.153L151.074 233.617ZM154.051 227.964C153.661 228.354 153.661 228.987 154.051 229.378C154.442 229.768 155.075 229.768 155.465 229.378L154.051 227.964ZM159.701 224.991C160.078 224.587 160.056 223.954 159.652 223.577C159.248 223.201 158.615 223.223 158.238 223.627L159.701 224.991ZM162.277 219.142C161.914 219.559 161.958 220.191 162.375 220.553C162.792 220.916 163.423 220.872 163.786 220.455L162.277 219.142ZM167.707 215.787C168.055 215.358 167.989 214.728 167.561 214.38C167.132 214.032 166.502 214.098 166.154 214.527L167.707 215.787ZM169.877 209.775C169.544 210.215 169.631 210.843 170.072 211.176C170.512 211.509 171.139 211.422 171.472 210.982L169.877 209.775ZM175.069 206.059C175.387 205.608 175.279 204.984 174.828 204.666C174.377 204.347 173.753 204.455 173.435 204.907L175.069 206.059ZM176.831 199.916C176.528 200.378 176.657 200.998 177.118 201.301C177.58 201.604 178.2 201.475 178.503 201.014L176.831 199.916ZM181.765 195.862C182.052 195.391 181.903 194.776 181.432 194.488C180.961 194.2 180.345 194.349 180.058 194.82L181.765 195.862ZM183.117 189.617C182.845 190.097 183.014 190.708 183.494 190.98C183.975 191.252 184.585 191.083 184.857 190.602L183.117 189.617ZM187.773 185.246C188.029 184.757 187.84 184.153 187.351 183.896C186.862 183.64 186.257 183.829 186.001 184.319L187.773 185.246ZM188.712 178.927C188.472 179.424 188.681 180.022 189.178 180.262C189.675 180.502 190.273 180.293 190.513 179.796L188.712 178.927ZM193.073 174.258C193.296 173.753 193.068 173.163 192.563 172.939C192.058 172.716 191.467 172.944 191.244 173.449L193.073 174.258ZM193.593 167.894C193.387 168.406 193.634 168.989 194.146 169.196C194.658 169.402 195.241 169.155 195.448 168.643L193.593 167.894ZM197.639 162.946C197.828 162.427 197.562 161.853 197.043 161.663C196.524 161.474 195.95 161.74 195.76 162.259L197.639 162.946ZM197.736 156.564C197.563 157.089 197.849 157.654 198.374 157.827C198.899 157.999 199.464 157.713 199.636 157.188L197.736 156.564ZM201.443 151.354C201.598 150.824 201.293 150.269 200.763 150.114C200.233 149.96 199.678 150.264 199.523 150.795L201.443 151.354ZM201.109 144.985C200.973 145.52 201.296 146.065 201.831 146.201C202.367 146.337 202.911 146.014 203.047 145.479L201.109 144.985ZM204.454 139.53C204.572 138.991 204.23 138.458 203.691 138.34C203.151 138.222 202.618 138.564 202.5 139.104L204.454 139.53ZM203.681 133.203C203.582 133.747 203.942 134.267 204.486 134.366C205.029 134.465 205.55 134.104 205.648 133.561L203.681 133.203ZM206.635 127.524C206.714 126.978 206.336 126.47 205.789 126.391C205.243 126.312 204.735 126.69 204.656 127.237L206.635 127.524ZM205.411 121.267C205.352 121.816 205.749 122.309 206.298 122.369C206.847 122.428 207.341 122.031 207.4 121.482L205.411 121.267ZM207.944 115.39C207.982 114.839 207.567 114.361 207.016 114.322C206.465 114.283 205.987 114.698 205.948 115.249L207.944 115.39ZM206.257 109.24C206.239 109.792 206.672 110.254 207.224 110.271C207.776 110.289 208.238 109.856 208.256 109.304L206.257 109.24ZM208.332 103.188C208.329 102.636 207.878 102.192 207.325 102.196C206.773 102.2 206.329 102.65 206.333 103.203L208.332 103.188ZM206.169 97.1878C206.195 97.7395 206.664 98.1655 207.215 98.1394C207.767 98.1132 208.193 97.6448 208.167 97.0932L206.169 97.1878ZM207.752 90.9915C207.703 90.4414 207.217 90.0351 206.667 90.0841C206.117 90.1331 205.71 90.6187 205.759 91.1688L207.752 90.9915ZM205.099 85.1888C205.172 85.7363 205.674 86.1216 206.222 86.0493C206.769 85.977 207.154 85.4745 207.082 84.9269L205.099 85.1888ZM206.149 78.8827C206.053 78.3389 205.534 77.9761 204.99 78.0723C204.446 78.1686 204.083 78.6875 204.18 79.2313L206.149 78.8827ZM202.999 73.3329C203.119 73.8718 203.654 74.2109 204.193 74.0903C204.732 73.9696 205.071 73.4349 204.95 72.896L202.999 73.3329ZM203.477 66.9605C203.331 66.4278 202.782 66.1139 202.249 66.2594C201.716 66.4049 201.402 66.9548 201.548 67.4875L203.477 66.9605ZM199.826 61.7243C199.996 62.2496 200.56 62.5369 201.086 62.3662C201.611 62.1955 201.898 61.6313 201.728 61.106L199.826 61.7243ZM199.696 55.3387C199.5 54.8224 198.923 54.5629 198.406 54.7591C197.89 54.9553 197.631 55.5329 197.827 56.0492L199.696 55.3387ZM195.55 50.481C195.772 50.9868 196.362 51.217 196.868 50.9952C197.373 50.7734 197.604 50.1836 197.382 49.6778L195.55 50.481ZM194.786 44.1443C194.538 43.6505 193.938 43.4506 193.444 43.6979C192.95 43.9452 192.75 44.5461 192.997 45.0399L194.786 44.1443ZM190.164 39.7307C190.437 40.211 191.047 40.3793 191.527 40.1067C192.008 39.8341 192.176 39.2237 191.903 38.7434L190.164 39.7307ZM188.75 33.5126C188.452 33.0472 187.834 32.9112 187.369 33.2087C186.903 33.5063 186.767 34.1246 187.065 34.5899L188.75 33.5126ZM183.687 29.6046C184.009 30.0534 184.634 30.1563 185.083 29.8344C185.531 29.5126 185.634 28.8878 185.312 28.439L183.687 29.6046ZM181.626 23.5765C181.28 23.1455 180.651 23.076 180.22 23.4212C179.789 23.7665 179.719 24.3959 180.065 24.8269L181.626 23.5765ZM176.173 20.226C176.541 20.638 177.173 20.6738 177.585 20.306C177.997 19.9382 178.032 19.306 177.665 18.894L176.173 20.226ZM173.485 14.4551C173.096 14.0631 172.463 14.0607 172.071 14.4498C171.679 14.8388 171.677 15.472 172.066 15.864L173.485 14.4551ZM167.708 11.699C168.117 12.07 168.75 12.0392 169.121 11.63C169.492 11.2209 169.461 10.5885 169.052 10.2175L167.708 11.699ZM164.432 6.23986C164.004 5.89038 163.374 5.9537 163.025 6.38135C162.675 6.80897 162.738 7.43898 163.166 7.78846L164.432 6.23986ZM158.408 4.09686C158.853 4.42432 159.479 4.32925 159.806 3.88452C160.133 3.43975 160.038 2.81378 159.594 2.48633L158.408 4.09686ZM0.768867 271.472C1.78093 271.714 2.79038 271.947 3.7972 272.17L4.23102 270.218C3.2344 269.996 2.23509 269.766 1.23311 269.527L0.768867 271.472ZM9.80633 273.407C11.7987 273.784 13.7803 274.126 15.751 274.435L16.06 272.459C14.1105 272.154 12.1499 271.815 10.1783 271.442L9.80633 273.407ZM21.8326 275.282C23.8682 275.531 25.8916 275.743 27.9025 275.919L28.0771 273.926C26.089 273.752 24.0883 273.543 22.0752 273.297L21.8326 275.282ZM33.9347 276.342C35.999 276.451 38.0496 276.522 40.0862 276.555L40.119 274.555C38.1066 274.522 36.0802 274.452 34.0399 274.345L33.9347 276.342ZM46.1541 276.544C48.2062 276.503 50.2434 276.424 52.2655 276.307L52.1506 274.311C50.1534 274.426 48.1411 274.504 46.1139 274.545L46.1541 276.544ZM58.3569 275.84C60.3837 275.646 62.3944 275.414 64.3888 275.146L64.1219 273.164C62.1528 273.429 60.1674 273.658 58.1662 273.85L58.3569 275.84ZM70.4526 274.208C72.4566 273.858 74.4433 273.471 76.4123 273.047L75.9913 271.091C74.0477 271.51 72.0866 271.892 70.1083 272.238L70.4526 274.208ZM82.377 271.638C84.3533 271.13 86.3109 270.584 88.2493 270.003L87.6748 268.087C85.7616 268.661 83.8294 269.199 81.8787 269.701L82.377 271.638ZM94.0601 268.134C95.9929 267.469 97.9055 266.769 99.7976 266.033L99.0729 264.169C97.2054 264.895 95.3176 265.586 93.41 266.242L94.0601 268.134ZM105.431 263.714C107.306 262.899 109.159 262.049 110.991 261.165L110.122 259.364C108.314 260.236 106.484 261.075 104.633 261.88L105.431 263.714ZM116.421 258.413C118.226 257.454 120.008 256.461 121.767 255.437L120.761 253.709C119.024 254.72 117.264 255.7 115.482 256.647L116.421 258.413ZM126.975 252.27C128.697 251.177 130.396 250.053 132.07 248.899L130.935 247.252C129.281 248.392 127.604 249.502 125.903 250.581L126.975 252.27ZM137.028 245.344C138.661 244.126 140.269 242.88 141.852 241.606L140.599 240.048C139.034 241.307 137.445 242.538 135.832 243.741L137.028 245.344ZM146.536 237.694C148.074 236.361 149.587 235.001 151.074 233.617L149.711 232.153C148.241 233.522 146.746 234.865 145.227 236.182L146.536 237.694ZM155.465 229.378C156.904 227.939 158.316 226.477 159.701 224.991L158.238 223.627C156.869 225.096 155.473 226.542 154.051 227.964L155.465 229.378ZM163.786 220.455C165.12 218.92 166.427 217.364 167.707 215.787L166.154 214.527C164.889 216.086 163.596 217.625 162.277 219.142L163.786 220.455ZM171.472 210.982C172.699 209.36 173.898 207.719 175.069 206.059L173.435 204.907C172.277 206.548 171.091 208.171 169.877 209.775L171.472 210.982ZM178.503 201.014C179.62 199.313 180.707 197.596 181.765 195.862L180.058 194.82C179.011 196.535 177.936 198.234 176.831 199.916L178.503 201.014ZM184.857 190.602C185.859 188.831 186.832 187.045 187.773 185.246L186.001 184.319C185.07 186.099 184.108 187.865 183.117 189.617L184.857 190.602ZM190.513 179.796C191.398 177.962 192.251 176.116 193.073 174.258L191.244 173.449C190.431 175.287 189.587 177.113 188.712 178.927L190.513 179.796ZM195.448 168.643C196.211 166.753 196.941 164.854 197.639 162.946L195.76 162.259C195.07 164.146 194.348 166.025 193.593 167.894L195.448 168.643ZM199.636 157.188C200.272 155.251 200.875 153.305 201.443 151.354L199.523 150.795C198.961 152.724 198.365 154.648 197.736 156.564L199.636 157.188ZM203.047 145.479C203.552 143.5 204.021 141.517 204.454 139.53L202.5 139.104C202.072 141.068 201.608 143.029 201.109 144.985L203.047 145.479ZM205.648 133.561C206.014 131.55 206.343 129.538 206.635 127.524L204.656 127.237C204.367 129.227 204.042 131.216 203.681 133.203L205.648 133.561ZM207.4 121.482C207.619 119.45 207.801 117.419 207.944 115.39L205.948 115.249C205.807 117.253 205.628 119.26 205.411 121.267L207.4 121.482ZM208.256 109.304C208.321 107.261 208.347 105.222 208.332 103.188L206.333 103.203C206.347 105.21 206.321 107.223 206.257 109.24L208.256 109.304ZM208.167 97.0932C208.07 95.052 207.932 93.0176 207.752 90.9915L205.759 91.1688C205.937 93.1671 206.074 95.1739 206.169 97.1878L208.167 97.0932ZM207.082 84.9269C206.815 82.9016 206.504 80.8864 206.149 78.8827L204.18 79.2313C204.529 81.2058 204.836 83.1921 205.099 85.1888L207.082 84.9269ZM204.95 72.896C204.504 70.9035 204.013 68.9245 203.477 66.9605L201.548 67.4875C202.076 69.4213 202.559 71.3703 202.999 73.3329L204.95 72.896ZM201.728 61.106C201.097 59.1662 200.42 57.2432 199.696 55.3387L197.827 56.0492C198.539 57.9229 199.205 59.8151 199.826 61.7243L201.728 61.106ZM197.382 49.6778C196.564 47.8126 195.699 45.9676 194.786 44.1443L192.997 45.0399C193.895 46.8324 194.746 48.6466 195.55 50.481L197.382 49.6778ZM191.903 38.7434C190.9 36.976 189.849 35.2319 188.75 33.5126L187.065 34.5899C188.145 36.2795 189.178 37.9936 190.164 39.7307L191.903 38.7434ZM185.312 28.439C184.131 26.7919 182.902 25.1705 181.626 23.5765L180.065 24.8269C181.319 26.393 182.526 27.9861 183.687 29.6046L185.312 28.439ZM177.665 18.894C176.318 17.386 174.925 15.9059 173.485 14.4551L172.066 15.864C173.481 17.2898 174.85 18.7442 176.173 20.226L177.665 18.894ZM169.052 10.2175C167.557 8.86189 166.017 7.53556 164.432 6.23986L163.166 7.78846C164.725 9.06252 166.239 10.3665 167.708 11.699L169.052 10.2175ZM159.594 2.48633C158.765 1.87613 157.925 1.27375 157.074 0.679367L155.929 2.31915C156.766 2.90398 157.593 3.49659 158.408 4.09686L159.594 2.48633Z" fill="white" fill-opacity="0.22"/>
</svg>
