<svg width="75" height="75" viewBox="0 0 75 75" fill="none" xmlns="http://www.w3.org/2000/svg">
<circle cx="37.4361" cy="37.5296" r="37.0589" fill="#9CC869"/>
<g filter="url(#filter0_d_28_11229)">
<path d="M36.1182 22.0959C32.3412 22.0959 28.7189 23.446 26.0481 25.8492C23.3774 28.2525 21.877 31.5119 21.877 34.9106C21.877 35.3961 22.0913 35.8618 22.4729 36.2051C22.8544 36.5484 23.3719 36.7413 23.9114 36.7413C24.451 36.7413 24.9685 36.5484 25.35 36.2051C25.7316 35.8618 25.9459 35.3961 25.9459 34.9106C25.9459 32.483 27.0176 30.1548 28.9253 28.4382C30.833 26.7216 33.4203 25.7573 36.1182 25.7573C38.816 25.7573 41.4034 26.7216 43.3111 28.4382C45.2187 30.1548 46.2905 32.483 46.2905 34.9106C46.2841 36.5668 45.7853 38.1912 44.846 39.6154L37.6033 53.2173C37.2466 53.7734 36.7336 54.2352 36.1158 54.5565C35.4981 54.8778 34.7973 55.0473 34.0837 55.048C33.0046 55.048 31.9696 54.6622 31.2066 53.9756C30.4435 53.289 30.0148 52.3577 30.0148 51.3866C30.0148 50.9011 29.8005 50.4355 29.4189 50.0922C29.0374 49.7488 28.5199 49.556 27.9804 49.556C27.4408 49.556 26.9233 49.7488 26.5418 50.0922C26.1602 50.4355 25.9459 50.9011 25.9459 51.3866C25.9459 53.3287 26.8033 55.1913 28.3294 56.5646C29.8556 57.9378 31.9254 58.7093 34.0837 58.7093C35.5387 58.7081 36.9667 58.356 38.2191 57.6895C39.4714 57.023 40.5023 56.0666 41.2043 54.9198L48.447 41.318C49.7048 39.3726 50.3648 37.1612 50.3594 34.9106C50.3594 31.5119 48.859 28.2525 46.1882 25.8492C43.5175 23.446 39.8952 22.0959 36.1182 22.0959ZM21.877 44.064C21.4746 44.064 21.0813 44.1713 20.7467 44.3725C20.4121 44.5736 20.1514 44.8596 19.9974 45.1941C19.8434 45.5286 19.8031 45.8967 19.8816 46.2518C19.9601 46.6069 20.1539 46.9331 20.4384 47.1891C20.7229 47.4451 21.0854 47.6195 21.4801 47.6901C21.8747 47.7608 22.2838 47.7245 22.6555 47.5859C23.0273 47.4474 23.345 47.2127 23.5686 46.9117C23.7921 46.6106 23.9114 46.2567 23.9114 45.8946C23.9114 45.4091 23.6971 44.9435 23.3156 44.6001C22.934 44.2568 22.4166 44.064 21.877 44.064ZM49.5252 18.8007C49.3115 18.6565 49.0683 18.5515 48.8095 18.4918C48.5507 18.4322 48.2813 18.419 48.0169 18.453C47.7524 18.487 47.4979 18.5675 47.268 18.69C47.0381 18.8125 46.8373 18.9745 46.677 19.1668C46.5167 19.3592 46.4001 19.578 46.3338 19.8109C46.2675 20.0438 46.2528 20.2861 46.2906 20.5241C46.3283 20.7621 46.4179 20.9911 46.554 21.198C46.6901 21.4048 46.8702 21.5855 47.0839 21.7298C49.3617 23.2626 51.2113 25.2518 52.4861 27.5397C53.761 29.8276 54.4259 32.3512 54.4283 34.9106C54.4283 35.3961 54.6426 35.8618 55.0242 36.2051C55.4057 36.5484 55.9232 36.7413 56.4627 36.7413C57.0023 36.7413 57.5198 36.5484 57.9013 36.2051C58.2829 35.8618 58.4972 35.3961 58.4972 34.9106C58.4854 31.7843 57.6693 28.703 56.1127 25.908C54.5561 23.1131 52.3014 20.6804 49.5252 18.8007ZM36.1182 33.0799C36.6578 33.0799 37.1752 33.2728 37.5568 33.6161C37.9383 33.9594 38.1526 34.4251 38.1526 34.9106C38.1526 35.3961 38.367 35.8618 38.7485 36.2051C39.1301 36.5484 39.6475 36.7413 40.1871 36.7413C40.7267 36.7413 41.2441 36.5484 41.6257 36.2051C42.0072 35.8618 42.2215 35.3961 42.2215 34.9106C42.2215 33.454 41.5785 32.0571 40.4339 31.0272C39.2893 29.9972 37.7369 29.4186 36.1182 29.4186C34.4995 29.4186 32.9471 29.9972 31.8024 31.0272C30.6578 32.0571 30.0148 33.454 30.0148 34.9106C30.0121 36.0059 30.3734 37.077 31.0524 37.9861C31.3327 38.3442 31.6531 38.6754 32.0086 38.9747L32.4155 39.3774C32.6385 39.6783 32.7576 40.0318 32.7576 40.3935C32.7576 40.7551 32.6385 41.1087 32.4155 41.4095C32.1086 41.8078 31.9899 42.2994 32.0852 42.7764C32.1806 43.2534 32.4822 43.6769 32.9241 43.9541C33.2643 44.1678 33.6689 44.2828 34.0837 44.2836C34.4117 44.2832 34.7347 44.2113 35.0252 44.0742C35.3157 43.9372 35.565 43.739 35.752 43.4965C36.4474 42.5826 36.8195 41.501 36.8195 40.3935C36.8195 39.2859 36.4474 38.2043 35.752 37.2905C35.538 37.0174 35.2999 36.7602 35.0399 36.5216L34.7551 36.2653C34.6361 36.1643 34.5271 36.054 34.4296 35.9358C34.2033 35.6327 34.0828 35.2757 34.0837 34.9106C34.0837 34.4251 34.2981 33.9594 34.6796 33.6161C35.0611 33.2728 35.5786 33.0799 36.1182 33.0799ZM27.9804 44.064C28.3827 44.064 28.7761 43.9566 29.1106 43.7554C29.4452 43.5543 29.706 43.2684 29.8599 42.9339C30.0139 42.5993 30.0542 42.2313 29.9757 41.8761C29.8972 41.521 29.7035 41.1948 29.4189 40.9388C29.1344 40.6828 28.7719 40.5084 28.3773 40.4378C27.9826 40.3672 27.5736 40.4034 27.2018 40.542C26.8301 40.6805 26.5123 40.9152 26.2888 41.2162C26.0652 41.5173 25.9459 41.8712 25.9459 42.2333C25.9459 42.7188 26.1602 43.1845 26.5418 43.5278C26.9233 43.8711 27.4408 44.064 27.9804 44.064Z" fill="white"/>
</g>
<defs>
<filter id="filter0_d_28_11229" x="18.8425" y="17.4346" width="40.6548" height="42.2744" filterUnits="userSpaceOnUse" color-interpolation-filters="sRGB">
<feFlood flood-opacity="0" result="BackgroundImageFix"/>
<feColorMatrix in="SourceAlpha" type="matrix" values="0 0 0 0 0 0 0 0 0 0 0 0 0 0 0 0 0 0 127 0" result="hardAlpha"/>
<feOffset/>
<feGaussianBlur stdDeviation="0.5"/>
<feComposite in2="hardAlpha" operator="out"/>
<feColorMatrix type="matrix" values="0 0 0 0 0 0 0 0 0 0 0 0 0 0 0 0 0 0 0.25 0"/>
<feBlend mode="normal" in2="BackgroundImageFix" result="effect1_dropShadow_28_11229"/>
<feBlend mode="normal" in="SourceGraphic" in2="effect1_dropShadow_28_11229" result="shape"/>
</filter>
</defs>
</svg>
