<svg width="22" height="22" viewBox="0 0 22 22" fill="none" xmlns="http://www.w3.org/2000/svg">
<path d="M14.7715 14.7716C12.6887 16.8544 9.31184 16.8544 7.22905 14.7716M14.7715 14.7716C16.8543 12.6888 16.8543 9.31189 14.7715 7.22909M14.7715 14.7716L17.6 17.6M7.22905 14.7716C5.14625 12.6888 5.14625 9.31189 7.22905 7.22909M7.22905 14.7716L4.40066 17.6M14.7715 7.22909C12.6887 5.14629 9.31184 5.14629 7.22905 7.22909M14.7715 7.22909L17.6 4.40066M7.22905 7.22909L4.40066 4.40066M17.6 17.6C13.9551 21.2449 8.04556 21.2449 4.40066 17.6M17.6 17.6C21.2449 13.9551 21.2449 8.04556 17.6 4.40066M4.40066 17.6C0.755769 13.9551 0.755769 8.04555 4.40066 4.40066M17.6 4.40066C13.9551 0.755769 8.04556 0.755769 4.40066 4.40066" stroke="url(#paint0_linear_28_5333)" stroke-width="1.5"/>
<defs>
<linearGradient id="paint0_linear_28_5333" x1="0.314336" y1="-3.12248" x2="15.6051" y2="25.676" gradientUnits="userSpaceOnUse">
<stop stop-color="#1890FF"/>
<stop offset="1" stop-color="#0069CC"/>
</linearGradient>
</defs>
</svg>
