<svg width="32" height="33" viewBox="0 0 32 33" fill="none" xmlns="http://www.w3.org/2000/svg">
<path d="M15.9928 31.0503C15.8152 31.0503 15.6377 31.0161 15.4602 30.9479C15.2827 30.8796 15.1273 30.7885 14.9942 30.6747C11.7542 27.7384 9.33531 25.0129 7.73751 22.4982C6.13972 19.9825 5.34082 17.6321 5.34082 15.4469C5.34082 12.0326 6.41179 9.31259 8.55372 7.28677C10.6948 5.26096 13.1745 4.24805 15.9928 4.24805C18.8111 4.24805 21.2908 5.26096 23.4318 7.28677C25.5738 9.31259 26.6447 12.0326 26.6447 15.4469C26.6447 17.6321 25.8458 19.9825 24.2481 22.4982C22.6503 25.0129 20.2314 27.7384 16.9914 30.6747C16.8583 30.7885 16.7029 30.8796 16.5254 30.9479C16.3478 31.0161 16.1703 31.0503 15.9928 31.0503Z" fill="white"/>
<path d="M14.5947 19.1685C14.7722 19.1685 14.9387 19.1399 15.094 19.0825C15.2494 19.026 15.3936 18.9295 15.5268 18.793L20.2536 13.9447C20.4977 13.6943 20.6197 13.3756 20.6197 12.9886C20.6197 12.6017 20.4977 12.2716 20.2536 11.9985C19.9873 11.7481 19.6655 11.6229 19.2882 11.6229C18.911 11.6229 18.6003 11.7481 18.3562 11.9985L14.5947 15.8567L13.6627 14.9007C13.4186 14.6503 13.1079 14.5251 12.7306 14.5251C12.3534 14.5251 12.0427 14.6503 11.7986 14.9007C11.5323 15.1738 11.3991 15.5038 11.3991 15.8908C11.3991 16.2778 11.5323 16.5964 11.7986 16.8468L13.6627 18.793C13.7958 18.9295 13.9401 19.026 14.0954 19.0825C14.2507 19.1399 14.4172 19.1685 14.5947 19.1685ZM15.9928 31.0503C15.8152 31.0503 15.6377 31.0161 15.4602 30.9479C15.2827 30.8796 15.1273 30.7885 14.9942 30.6747C11.7542 27.7384 9.33531 25.0129 7.73751 22.4982C6.13972 19.9825 5.34082 17.6321 5.34082 15.4469C5.34082 12.0326 6.41179 9.31259 8.55372 7.28677C10.6948 5.26096 13.1745 4.24805 15.9928 4.24805C18.8111 4.24805 21.2908 5.26096 23.4318 7.28677C25.5738 9.31259 26.6447 12.0326 26.6447 15.4469C26.6447 17.6321 25.8458 19.9825 24.2481 22.4982C22.6503 25.0129 20.2314 27.7384 16.9914 30.6747C16.8583 30.7885 16.7029 30.8796 16.5254 30.9479C16.3478 31.0161 16.1703 31.0503 15.9928 31.0503Z" fill="#AC0000"/>
</svg>
