<svg width="22" height="24" viewBox="0 0 22 24" fill="none" xmlns="http://www.w3.org/2000/svg">
<g clip-path="url(#clip0_28_5424)">
<path d="M21.2143 2.60156H15.5964C14.3908 2.60156 13.2123 2.97924 12.1982 3.69174L11 4.53013L9.80179 3.69174C8.78873 2.97938 7.60885 2.60086 6.40357 2.60156H0.785714C0.351116 2.60156 0 2.9846 0 3.45871V18.673C0 19.1471 0.351116 19.5301 0.785714 19.5301H6.40357C7.60915 19.5301 8.78772 19.9078 9.80179 20.6203L10.892 21.3864C10.9239 21.4078 10.9607 21.4212 10.9975 21.4212C11.0344 21.4212 11.0712 21.4105 11.1031 21.3864L12.1933 20.6203C13.2098 19.9078 14.3908 19.5301 15.5964 19.5301H21.2143C21.6489 19.5301 22 19.1471 22 18.673V3.45871C22 2.9846 21.6489 2.60156 21.2143 2.60156ZM6.40357 17.6016H1.76786V4.53013H6.40357C7.27277 4.53013 8.11741 4.80067 8.84665 5.31228L10.0449 6.15067L10.2143 6.27121V18.6462C9.04554 17.9605 7.73929 17.6016 6.40357 17.6016ZM20.2321 17.6016H15.5964C14.2607 17.6016 12.9545 17.9605 11.7857 18.6462V6.27121L11.9551 6.15067L13.1533 5.31228C13.8826 4.80067 14.7272 4.53013 15.5964 4.53013H20.2321V17.6016ZM8.17388 7.95871H3.61183C3.51607 7.95871 3.4375 8.04978 3.4375 8.1596V9.36496C3.4375 9.47478 3.51607 9.56585 3.61183 9.56585H8.17143C8.26719 9.56585 8.34576 9.47478 8.34576 9.36496V8.1596C8.34821 8.04978 8.26964 7.95871 8.17388 7.95871ZM13.6518 8.1596V9.36496C13.6518 9.47478 13.7304 9.56585 13.8261 9.56585H18.3857C18.4815 9.56585 18.56 9.47478 18.56 9.36496V8.1596C18.56 8.04978 18.4815 7.95871 18.3857 7.95871H13.8261C13.7304 7.95871 13.6518 8.04978 13.6518 8.1596ZM8.17388 11.7087H3.61183C3.51607 11.7087 3.4375 11.7998 3.4375 11.9096V13.115C3.4375 13.2248 3.51607 13.3158 3.61183 13.3158H8.17143C8.26719 13.3158 8.34576 13.2248 8.34576 13.115V11.9096C8.34821 11.7998 8.26964 11.7087 8.17388 11.7087ZM18.3882 11.7087H13.8261C13.7304 11.7087 13.6518 11.7998 13.6518 11.9096V13.115C13.6518 13.2248 13.7304 13.3158 13.8261 13.3158H18.3857C18.4815 13.3158 18.56 13.2248 18.56 13.115V11.9096C18.5625 11.7998 18.4839 11.7087 18.3882 11.7087Z" fill="url(#paint0_linear_28_5424)" fill-opacity="0.5"/>
</g>
<defs>
<linearGradient id="paint0_linear_28_5424" x1="11" y1="2.60156" x2="11" y2="21.4212" gradientUnits="userSpaceOnUse">
<stop stop-color="white"/>
<stop offset="1" stop-color="#A5D4FF"/>
</linearGradient>
<clipPath id="clip0_28_5424">
<rect width="22" height="24" fill="white"/>
</clipPath>
</defs>
</svg>
