<svg width="75" height="75" viewBox="0 0 75 75" fill="none" xmlns="http://www.w3.org/2000/svg">
<circle cx="37.6477" cy="37.9417" r="37.0589" fill="#5480FF"/>
<g filter="url(#filter0_d_28_11217)">
<path fill-rule="evenodd" clip-rule="evenodd" d="M45.3943 38.6769C41.9039 39.8928 40.8628 40.745 44.5201 41.8155C47.2908 42.6261 46.3559 43.8923 45.7101 44.6021C45.0851 45.2898 45.1631 46.035 45.2495 46.8595L45.2581 46.9418C45.5526 49.784 42.2292 49.8928 39.5153 49.6949C37.0861 49.5177 37.6255 52.5489 37.9854 54.5709C38.0882 55.1488 38.1764 55.6443 38.1764 55.9589H22.1741C22.1741 55.9589 27.3428 47.6706 23.3074 45.3302C14.234 40.0666 14.2923 30.2966 18.6561 23.2278C22.5435 16.9309 37.7551 16.538 41.8314 20.8165C42.304 21.3131 41.6873 22.1865 41.6873 22.1865C42.0049 22.7262 42.2304 23.4328 42.468 24.1776C42.8354 25.3295 43.232 26.5727 44.0437 27.4304C44.629 28.0482 44.3674 28.7167 44.1602 29.2461C44.0209 29.6022 43.9062 29.8954 44.0901 30.068C44.3024 30.2674 44.6665 30.5385 45.0877 30.8522C46.2387 31.7092 47.8162 32.8839 47.8877 33.7799C47.9804 34.9416 47.1575 35.2867 46.5954 35.5223C46.3166 35.6392 46.102 35.7292 46.0953 35.8786C46.0823 36.1579 46.1548 36.4569 46.2272 36.7554C46.4101 37.5091 46.592 38.259 45.3943 38.6769ZM63.0454 42.2871L48.1835 40.4819L63.0454 38.6775V42.2871ZM60.2575 52.3663L61.8515 49.2401L48.1835 42.3992L60.2575 52.3663ZM60.2575 28.562L61.8515 31.6889L48.1835 38.5306L60.2575 28.562Z" fill="white"/>
</g>
<defs>
<filter id="filter0_d_28_11217" x="14.7925" y="16.9863" width="49.2529" height="39.9727" filterUnits="userSpaceOnUse" color-interpolation-filters="sRGB">
<feFlood flood-opacity="0" result="BackgroundImageFix"/>
<feColorMatrix in="SourceAlpha" type="matrix" values="0 0 0 0 0 0 0 0 0 0 0 0 0 0 0 0 0 0 127 0" result="hardAlpha"/>
<feOffset/>
<feGaussianBlur stdDeviation="0.5"/>
<feComposite in2="hardAlpha" operator="out"/>
<feColorMatrix type="matrix" values="0 0 0 0 0 0 0 0 0 0 0 0 0 0 0 0 0 0 0.23 0"/>
<feBlend mode="normal" in2="BackgroundImageFix" result="effect1_dropShadow_28_11217"/>
<feBlend mode="normal" in="SourceGraphic" in2="effect1_dropShadow_28_11217" result="shape"/>
</filter>
</defs>
</svg>
