<svg width="75" height="75" viewBox="0 0 75 75" fill="none" xmlns="http://www.w3.org/2000/svg">
<circle cx="37.8595" cy="37.5891" r="37.0589" fill="#60EFDB"/>
<g clip-path="url(#clip0_28_11191)" filter="url(#filter0_d_28_11191)">
<path d="M24.3945 44.713C24.3945 44.713 23.4244 49.472 28.3766 48.0338C36.537 45.6622 36.9294 48.2497 39.4327 49.1419C43.1714 50.4721 47.3751 50.3261 51.7205 46.2242C56.2476 41.9477 40.3229 40.7603 35.9774 40.3634C31.6357 39.9698 24.8487 44.6336 24.8487 44.6336" fill="#E2E2E2"/>
<path d="M17.2182 47.6483L14.9801 53.2868V53.6424C14.9801 53.6424 13.9047 55.9918 16.1791 54.3314C16.3317 54.3187 16.488 54.271 16.488 54.271C16.488 54.271 22.5919 49.966 22.7954 49.9088C22.9988 49.8517 25.7311 46.0958 25.7311 46.0958C25.7311 46.0958 20.5536 42.4797 19.6998 43.6258C18.8496 44.7656 17.2182 47.6483 17.2182 47.6483Z" fill="#3C3C3C"/>
<path d="M40.686 29.2653C40.686 29.2653 32.74 25.7222 29.2048 27.9509C26.0947 29.913 23.5332 31.0337 21.9673 31.8242C20.4013 32.6148 18.1196 32.4624 17.8035 36.1737C17.5346 39.3772 17.531 42.0821 16.9461 43.1743C15.2893 46.257 19.7292 48.3619 21.3787 42.5806C23.0718 37.6786 27.9404 41.8694 31.7372 41.0789C35.5376 40.2883 42.579 34.3355 43.3819 32.7386C44.4864 30.5416 40.686 29.2653 40.686 29.2653Z" fill="#E2E2E2"/>
<path d="M21.1211 41.2753C21.1211 41.2753 39.1822 17.0609 40.7917 15.4798C42.2305 14.067 41.1442 14.0067 46.3834 16.9021C47.6986 17.6292 26.8108 42.3199 26.8108 42.3199L20.7941 41.8436L21.1211 41.2753Z" fill="#3C3C3C"/>
<path d="M34.9959 33.1695C34.9959 33.1695 31.9185 37.1222 28.1181 38.7033C24.3177 40.2843 19.6125 40.9161 20.3356 43.6052C21.0586 46.2943 24.6774 48.1928 30.4688 44.3957C33.5462 42.6559 35.3556 44.0783 38.0697 45.1863C40.7838 46.2943 41.3251 48.1897 48.0213 47.2404C54.7174 46.2911 55.3823 47.3769 58.3362 48.6627C61.2319 47.0816 61.5916 42.3384 61.5916 39.3319C61.5916 36.3253 61.1738 36.7126 57.0682 36.3285C53.8128 35.3792 45.0747 31.5726 42.7385 30.2931C41.7974 29.7788 39.563 28.3628 36.7581 31.1789" fill="white"/>
</g>
<defs>
<filter id="filter0_d_28_11191" x="10.1769" y="9.90625" width="52.4" height="52.4004" filterUnits="userSpaceOnUse" color-interpolation-filters="sRGB">
<feFlood flood-opacity="0" result="BackgroundImageFix"/>
<feColorMatrix in="SourceAlpha" type="matrix" values="0 0 0 0 0 0 0 0 0 0 0 0 0 0 0 0 0 0 127 0" result="hardAlpha"/>
<feOffset/>
<feGaussianBlur stdDeviation="0.5"/>
<feComposite in2="hardAlpha" operator="out"/>
<feColorMatrix type="matrix" values="0 0 0 0 0 0 0 0 0 0 0 0 0 0 0 0 0 0 0.25 0"/>
<feBlend mode="normal" in2="BackgroundImageFix" result="effect1_dropShadow_28_11191"/>
<feBlend mode="normal" in="SourceGraphic" in2="effect1_dropShadow_28_11191" result="shape"/>
</filter>
<clipPath id="clip0_28_11191">
<rect width="50.4" height="50.4" fill="white" transform="translate(11.1769 10.9062)"/>
</clipPath>
</defs>
</svg>
