<svg width="371" height="51" viewBox="0 0 371 51" fill="none" xmlns="http://www.w3.org/2000/svg">
<path d="M0.631611 30.3471C0.270889 30.5507 0.143515 31.0082 0.347112 31.3689C0.550711 31.7296 1.00818 31.857 1.36891 31.6534L0.631611 30.3471ZM369.012 50.5706C369.327 50.8401 369.8 50.8037 370.07 50.4892C370.339 50.1747 370.303 49.7013 369.988 49.4317L369.012 50.5706ZM3.91511 30.258C4.28075 30.0634 4.41939 29.6092 4.22477 29.2435C4.03014 28.8779 3.57596 28.7393 3.21032 28.9339L3.91511 30.258ZM8.62357 26.2129C8.24943 26.3906 8.09023 26.838 8.26797 27.2121C8.44572 27.5863 8.89311 27.7455 9.26724 27.5677L8.62357 26.2129ZM14.6229 25.1527C15.0037 24.9896 15.1802 24.5488 15.0171 24.168C14.8541 23.7872 14.4132 23.6107 14.0324 23.7738L14.6229 25.1527ZM19.5995 21.5056C19.2133 21.6553 19.0217 22.0898 19.1714 22.476C19.3212 22.8622 19.7556 23.0539 20.1418 22.9041L19.5995 21.5056ZM25.7202 20.8411C26.1108 20.7033 26.3158 20.275 26.178 19.8844C26.0402 19.4937 25.6118 19.2888 25.2212 19.4266L25.7202 20.8411ZM30.8765 17.52C30.4822 17.647 30.2656 18.0696 30.3926 18.4639C30.5196 18.8581 30.9422 19.0748 31.3364 18.9478L30.8765 17.52ZM37.0624 17.1834C37.4597 17.0663 37.6869 16.6493 37.5698 16.252C37.4527 15.8547 37.0357 15.6275 36.6384 15.7446L37.0624 17.1834ZM42.3535 14.1313C41.9536 14.2394 41.7171 14.6512 41.8252 15.051C41.9333 15.4509 42.3451 15.6874 42.745 15.5793L42.3535 14.1313ZM48.5599 14.0737C48.9619 13.974 49.207 13.5673 49.1074 13.1653C49.0077 12.7632 48.601 12.5181 48.1989 12.6177L48.5599 14.0737ZM53.9661 11.247C53.5623 11.339 53.3094 11.741 53.4014 12.1449C53.4934 12.5487 53.8953 12.8016 54.2992 12.7096L53.9661 11.247ZM60.1607 11.4307C60.5661 11.346 60.8262 10.9487 60.7415 10.5432C60.6568 10.1378 60.2594 9.87772 59.854 9.96241L60.1607 11.4307ZM65.6744 8.79743C65.2676 8.87539 65.001 9.26838 65.079 9.67519C65.157 10.082 65.55 10.3486 65.9568 10.2706L65.6744 8.79743ZM71.8565 9.18869C72.2645 9.11716 72.5373 8.72843 72.4658 8.32044C72.3942 7.91245 72.0055 7.63969 71.5975 7.71122L71.8565 9.18869ZM77.453 6.72931C77.044 6.79484 76.7655 7.17952 76.8311 7.58852C76.8966 7.99752 77.2813 8.27595 77.6903 8.21043L77.453 6.72931ZM83.6197 7.30364C84.0296 7.24389 84.3134 6.86318 84.2537 6.45329C84.1939 6.04341 83.8132 5.75958 83.4033 5.81933L83.6197 7.30364ZM89.2845 5.00203C88.8739 5.05635 88.5851 5.43327 88.6394 5.84391C88.6937 6.25454 89.0706 6.5434 89.4812 6.48908L89.2845 5.00203ZM95.4196 5.7425C95.8309 5.69344 96.1246 5.32025 96.0755 4.90895C96.0265 4.49765 95.6533 4.204 95.242 4.25305L95.4196 5.7425ZM101.157 3.5843C100.745 3.62835 100.447 3.99794 100.491 4.40981C100.535 4.82167 100.904 5.11984 101.316 5.0758L101.157 3.5843ZM107.258 4.47595C107.67 4.43676 107.973 4.07071 107.934 3.65836C107.895 3.246 107.528 2.94349 107.116 2.98268L107.258 4.47595ZM113.06 2.45198C112.647 2.48649 112.34 2.84908 112.375 3.26185C112.409 3.67463 112.772 3.98127 113.185 3.94676L113.06 2.45198ZM119.127 3.48302C119.54 3.45305 119.851 3.09385 119.821 2.68072C119.791 2.2676 119.432 1.95698 119.019 1.98694L119.127 3.48302ZM124.985 1.58642C124.572 1.61196 124.257 1.96781 124.283 2.38124C124.308 2.79466 124.664 3.10911 125.078 3.08356L124.985 1.58642ZM131.02 2.74766C131.434 2.72642 131.752 2.37387 131.731 1.9602C131.709 1.54653 131.357 1.2284 130.943 1.24963L131.02 2.74766ZM136.925 0.973351C136.512 0.990352 136.19 1.33964 136.207 1.7535C136.224 2.16737 136.573 2.48909 136.987 2.47209L136.925 0.973351ZM142.93 2.25778C143.344 2.24491 143.669 1.89886 143.656 1.48484C143.643 1.07083 143.297 0.745636 142.883 0.758503L142.93 2.25778ZM148.868 0.602109C148.454 0.610894 148.125 0.953722 148.134 1.36784C148.143 1.78196 148.486 2.11056 148.9 2.10177L148.868 0.602109ZM154.85 2.00449C155.264 1.99972 155.596 1.66009 155.591 1.24591C155.586 0.83172 155.246 0.499821 154.832 0.504591L154.85 2.00449ZM160.81 0.464535C160.395 0.465324 160.06 0.801751 160.061 1.21596C160.062 1.63018 160.398 1.96532 160.812 1.96453L160.81 0.464535ZM166.773 1.9816C167.187 1.98475 167.525 1.65154 167.528 1.23733C167.531 0.823131 167.198 0.484797 166.784 0.481641L166.773 1.9816ZM172.756 0.555447C172.342 0.54837 172.001 0.87837 171.994 1.29252C171.987 1.70668 172.317 2.04815 172.731 2.05523L172.756 0.555447ZM178.692 2.18528C179.106 2.19627 179.451 1.86951 179.462 1.45544C179.473 1.04137 179.146 0.696794 178.732 0.685804L178.692 2.18528ZM184.702 0.872464C184.288 0.857568 183.941 1.18106 183.926 1.59501C183.911 2.00895 184.235 2.3566 184.648 2.37149L184.702 0.872464ZM190.601 2.6139C191.015 2.63271 191.366 2.31252 191.385 1.89873C191.403 1.48494 191.083 1.13426 190.669 1.11545L190.601 2.6139ZM196.641 1.41536C196.227 1.39261 195.873 1.70945 195.851 2.12304C195.828 2.53663 196.145 2.89035 196.558 2.91309L196.641 1.41536ZM202.504 3.26859C202.917 3.2953 203.274 2.98186 203.301 2.56851C203.327 2.15516 203.014 1.79842 202.6 1.77171L202.504 3.26859ZM208.565 2.18602C208.152 2.15532 207.792 2.46528 207.761 2.87836C207.731 3.29143 208.041 3.65119 208.454 3.68189L208.565 2.18602ZM214.394 4.15271C214.807 4.18747 215.17 3.88104 215.204 3.46829C215.239 3.05553 214.933 2.69275 214.52 2.658L214.394 4.15271ZM220.468 3.18858C220.056 3.14972 219.69 3.45252 219.651 3.86491C219.612 4.27729 219.915 4.6431 220.327 4.68196L220.468 3.18858ZM226.265 5.2718C226.677 5.31485 227.046 5.01578 227.089 4.6038C227.132 4.19183 226.833 3.82297 226.421 3.77993L226.265 5.2718ZM232.343 4.42958C231.932 4.38229 231.56 4.67754 231.513 5.08904C231.465 5.50054 231.761 5.87248 232.172 5.91977L232.343 4.42958ZM238.108 6.63395C238.519 6.68563 238.894 6.39436 238.946 5.98338C238.997 5.5724 238.706 5.19735 238.295 5.14567L238.108 6.63395ZM244.202 5.92081C243.791 5.86467 243.413 6.15185 243.357 6.56224C243.301 6.97264 243.588 7.35083 243.998 7.40697L244.202 5.92081ZM249.916 8.2502C250.326 8.31096 250.707 8.02806 250.768 7.61832C250.829 7.20859 250.546 6.82718 250.136 6.76642L249.916 8.2502ZM256.031 7.67527C255.622 7.60978 255.237 7.88824 255.172 8.29724C255.106 8.70624 255.385 9.09091 255.794 9.1564L256.031 7.67527ZM261.68 10.1351C262.088 10.2056 262.476 9.93176 262.546 9.52357C262.617 9.11539 262.343 8.7274 261.935 8.65698L261.68 10.1351ZM267.816 9.70932C267.409 9.63379 267.017 9.90272 266.942 10.31C266.866 10.7173 267.135 11.1086 267.542 11.1842L267.816 9.70932ZM273.39 12.3078C273.796 12.3886 274.191 12.1248 274.272 11.7186C274.352 11.3123 274.089 10.9174 273.682 10.8366L273.39 12.3078ZM279.545 12.0447C279.14 11.9583 278.742 12.2167 278.655 12.6218C278.569 13.0269 278.827 13.4253 279.232 13.5117L279.545 12.0447ZM285.035 14.7926C285.438 14.8848 285.841 14.6322 285.933 14.2284C286.025 13.8246 285.772 13.4224 285.369 13.3302L285.035 14.7926ZM291.204 14.7093C290.802 14.611 290.396 14.8574 290.298 15.2598C290.199 15.6621 290.446 16.0681 290.848 16.1664L291.204 14.7093ZM296.6 17.6212C297.001 17.726 297.411 17.4861 297.515 17.0854C297.62 16.6846 297.38 16.2748 296.98 16.17L296.6 17.6212ZM302.775 17.739C302.376 17.6273 301.963 17.86 301.851 18.2589C301.739 18.6578 301.972 19.0717 302.371 19.1834L302.775 17.739ZM308.065 20.8343C308.462 20.9533 308.88 20.7281 308.999 20.3314C309.118 19.9346 308.893 19.5165 308.496 19.3975L308.065 20.8343ZM314.232 21.1797C313.838 21.0528 313.415 21.2696 313.288 21.6639C313.162 22.0582 313.378 22.4807 313.773 22.6076L314.232 21.1797ZM319.401 24.4845C319.793 24.6198 320.22 24.412 320.355 24.0206C320.49 23.629 320.283 23.202 319.891 23.0667L319.401 24.4845ZM325.537 25.0907C325.149 24.9464 324.717 25.144 324.573 25.5322C324.428 25.9205 324.626 26.3523 325.014 26.4967L325.537 25.0907ZM330.562 28.6399C330.946 28.7942 331.383 28.6076 331.537 28.2232C331.691 27.8388 331.505 27.4021 331.12 27.2478L330.562 28.6399ZM336.633 29.5491C336.253 29.3841 335.811 29.5583 335.646 29.9382C335.481 30.3181 335.655 30.7599 336.035 30.9249L336.633 29.5491ZM341.474 33.3883C341.848 33.5652 342.295 33.4051 342.472 33.0305C342.649 32.656 342.489 32.209 342.114 32.032L341.474 33.3883ZM347.434 34.6573C347.066 34.4674 346.614 34.6119 346.424 34.9801C346.234 35.3482 346.378 35.8005 346.747 35.9904L347.434 34.6573ZM352.019 38.842C352.379 39.0465 352.837 38.9203 353.041 38.56C353.246 38.1998 353.119 37.742 352.759 37.5375L352.019 38.842ZM357.904 40.611C357.553 40.3903 357.09 40.4957 356.87 40.8463C356.649 41.1968 356.754 41.6599 357.105 41.8805L357.904 40.611ZM362.006 45.1414C362.345 45.38 362.813 45.2988 363.051 44.9602C363.29 44.6216 363.209 44.1537 362.87 43.9152L362.006 45.1414ZM367.716 47.55C367.393 47.2911 366.921 47.3434 366.662 47.6668C366.403 47.9901 366.455 48.4621 366.779 48.721L367.716 47.55ZM1.36891 31.6534C2.20289 31.1827 3.05173 30.7175 3.91511 30.258L3.21032 28.9339C2.33633 29.3991 1.47665 29.8701 0.631611 30.3471L1.36891 31.6534ZM9.26724 27.5677C11.0038 26.7428 12.7897 25.9377 14.6229 25.1527L14.0324 23.7738C12.1822 24.5661 10.3785 25.3791 8.62357 26.2129L9.26724 27.5677ZM20.1418 22.9041C21.9615 22.1986 23.8216 21.5109 25.7202 20.8411L25.2212 19.4266C23.3087 20.1012 21.4342 20.7942 19.5995 21.5056L20.1418 22.9041ZM31.3364 18.9478C33.2123 18.3434 35.1215 17.7553 37.0624 17.1834L36.6384 15.7446C34.6859 16.3199 32.7647 16.9117 30.8765 17.52L31.3364 18.9478ZM42.745 15.5793C44.6562 15.0626 46.5949 14.5608 48.5599 14.0737L48.1989 12.6177C46.2241 13.1073 44.2752 13.6118 42.3535 14.1313L42.745 15.5793ZM54.2992 12.7096C56.2306 12.2697 58.1848 11.8434 60.1607 11.4307L59.854 9.96241C57.8695 10.3769 55.9065 10.8051 53.9661 11.247L54.2992 12.7096ZM65.9568 10.2706C67.9047 9.89733 69.8716 9.53669 71.8565 9.18869L71.5975 7.71122C69.605 8.06055 67.6303 8.42261 65.6744 8.79743L65.9568 10.2706ZM77.6903 8.21043C79.6511 7.89625 81.628 7.594 83.6197 7.30364L83.4033 5.81933C81.4047 6.11068 79.4209 6.414 77.453 6.72931L77.6903 8.21043ZM89.4812 6.48908C91.4478 6.22896 93.4275 5.9801 95.4196 5.7425L95.242 4.25305C93.2437 4.4914 91.2575 4.74106 89.2845 5.00203L89.4812 6.48908ZM101.316 5.0758C103.286 4.86512 105.267 4.66517 107.258 4.47595L107.116 2.98268C105.119 3.17245 103.133 3.37299 101.157 3.5843L101.316 5.0758ZM113.185 3.94676C115.157 3.78187 117.138 3.62729 119.127 3.48302L119.019 1.98694C117.024 2.13161 115.038 2.28662 113.06 2.45198L113.185 3.94676ZM125.078 3.08356C127.052 2.96162 129.033 2.84965 131.02 2.74766L130.943 1.24963C128.951 1.35189 126.965 1.46415 124.985 1.58642L125.078 3.08356ZM136.987 2.47209C138.963 2.39092 140.944 2.31949 142.93 2.25778L142.883 0.758503C140.892 0.820371 138.906 0.891985 136.925 0.973351L136.987 2.47209ZM148.9 2.10177C150.88 2.05979 152.863 2.02736 154.85 2.00449L154.832 0.504591C152.841 0.527515 150.853 0.56002 148.868 0.602109L148.9 2.10177ZM160.812 1.96453C162.797 1.96075 164.784 1.96645 166.773 1.9816L166.784 0.481641C164.791 0.466452 162.799 0.460747 160.81 0.464535L160.812 1.96453ZM172.731 2.05523C174.717 2.08918 176.705 2.13253 178.692 2.18528L178.732 0.685804C176.74 0.632933 174.748 0.589476 172.756 0.555447L172.731 2.05523ZM184.648 2.37149C186.634 2.44293 188.618 2.52374 190.601 2.6139L190.669 1.11545C188.681 1.02507 186.692 0.944077 184.702 0.872464L184.648 2.37149ZM196.558 2.91309C198.543 3.02222 200.525 3.14072 202.504 3.26859L202.6 1.77171C200.616 1.64354 198.63 1.52474 196.641 1.41536L196.558 2.91309ZM208.454 3.68189C210.438 3.82938 212.418 3.98632 214.394 4.15271L214.52 2.658C212.539 2.4912 210.554 2.33387 208.565 2.18602L208.454 3.68189ZM220.327 4.68196C222.312 4.86897 224.291 5.06559 226.265 5.2718L226.421 3.77993C224.442 3.57318 222.458 3.37606 220.468 3.18858L220.327 4.68196ZM232.172 5.91977C234.158 6.14802 236.137 6.38608 238.108 6.63395L238.295 5.14567C236.319 4.89713 234.334 4.65843 232.343 4.42958L232.172 5.91977ZM243.998 7.40697C245.98 7.678 247.953 7.95908 249.916 8.2502L250.136 6.76642C248.167 6.47447 246.189 6.19259 244.202 5.92081L243.998 7.40697ZM255.794 9.1564C257.767 9.47233 259.729 9.79858 261.68 10.1351L261.935 8.65698C259.978 8.31938 258.01 7.99214 256.031 7.67527L255.794 9.1564ZM267.542 11.1842C269.505 11.548 271.454 11.9226 273.39 12.3078L273.682 10.8366C271.74 10.4501 269.784 10.0744 267.816 9.70932L267.542 11.1842ZM279.232 13.5117C281.182 13.9276 283.116 14.3545 285.035 14.7926L285.369 13.3302C283.443 12.8905 281.502 12.462 279.545 12.0447L279.232 13.5117ZM290.848 16.1664C292.784 16.6397 294.702 17.1246 296.6 17.6212L296.98 16.17C295.073 15.6713 293.148 15.1844 291.204 14.7093L290.848 16.1664ZM302.371 19.1834C304.291 19.7213 306.19 20.2716 308.065 20.8343L308.496 19.3975C306.612 18.8321 304.704 18.2793 302.775 17.739L302.371 19.1834ZM313.773 22.6076C315.675 23.2198 317.552 23.8455 319.401 24.4845L319.891 23.0667C318.031 22.4241 316.145 21.7951 314.232 21.1797L313.773 22.6076ZM325.014 26.4967C326.896 27.1964 328.745 27.9108 330.562 28.6399L331.12 27.2478C329.292 26.5138 327.43 25.7948 325.537 25.0907L325.014 26.4967ZM336.035 30.9249C337.887 31.7297 339.701 32.5508 341.474 33.3883L342.114 32.032C340.327 31.1875 338.499 30.3599 336.633 29.5491L336.035 30.9249ZM346.747 35.9904C348.554 36.9224 350.312 37.8729 352.019 38.842L352.759 37.5375C351.034 36.5581 349.258 35.598 347.434 34.6573L346.747 35.9904ZM357.105 41.8805C358.8 42.9469 360.434 44.034 362.006 45.1414L362.87 43.9152C361.276 42.7919 359.619 41.6905 357.904 40.611L357.105 41.8805ZM366.779 48.721C367.542 49.3318 368.286 49.9484 369.012 50.5706L369.988 49.4317C369.249 48.7982 368.492 48.171 367.716 47.55L366.779 48.721Z" fill="white" fill-opacity="0.23"/>
</svg>
