<svg width="39" height="39" viewBox="0 0 39 39" fill="none" xmlns="http://www.w3.org/2000/svg">
<circle cx="19.3" cy="19.3" r="19.3" fill="#254B86"/>
<path fill-rule="evenodd" clip-rule="evenodd" d="M9.96133 22.4123C11.3367 22.4123 12.4517 21.2973 12.4517 19.922C12.4517 18.5466 11.3367 17.4316 9.96133 17.4316C8.58596 17.4316 7.47101 18.5466 7.47101 19.922C7.47101 21.2973 8.58596 22.4123 9.96133 22.4123ZM19.9226 22.4123C21.298 22.4123 22.4129 21.2973 22.4129 19.922C22.4129 18.5466 21.298 17.4316 19.9226 17.4316C18.5473 17.4316 17.4323 18.5466 17.4323 19.922C17.4323 21.2973 18.5473 22.4123 19.9226 22.4123ZM32.3742 19.922C32.3742 21.2973 31.2593 22.4123 29.8839 22.4123C28.5085 22.4123 27.3936 21.2973 27.3936 19.922C27.3936 18.5466 28.5085 17.4316 29.8839 17.4316C31.2593 17.4316 32.3742 18.5466 32.3742 19.922Z" fill="white" fill-opacity="0.6"/>
</svg>
