<svg width="21" height="23" viewBox="0 0 21 23" fill="none" xmlns="http://www.w3.org/2000/svg">
<path d="M7.52004 0.229462C7.38153 0.24818 7.24925 0.29437 7.13258 0.364754C7.13258 0.364754 5.92535 1.05509 4.62746 1.8018C3.32956 2.54765 1.88566 3.36981 1.55546 3.53632C1.53509 3.54436 1.51504 3.55304 1.49533 3.56234C0.296692 4.23447 0.0476106 5.33242 0.00466563 5.94817C0.00180263 5.97679 0.00466563 6.00021 0.00466563 6.03056C-0.00583204 6.26125 0.00466563 6.40955 0.00466563 6.40955V17.7386C0.00466563 19.3846 2.11661 20.1764 4.12071 20.1764C4.78874 20.1764 5.45677 20.0784 6.02937 19.905C6.41111 19.7315 6.685 19.3846 6.685 19.0377V9.93149C6.685 7.9368 7.16217 7.00016 8.59367 6.21962C8.9754 6.04617 12.9779 3.53546 12.9779 3.53546C13.1687 3.362 13.3653 3.0099 13.3653 2.74972V2.6682C13.3653 2.32129 13.1745 2.05591 12.8882 1.88246C12.6019 1.70901 12.2201 1.70901 11.9338 1.88246C11.8384 1.96918 6.01697 5.53102 4.77633 6.1381C3.5357 6.83191 2.37809 6.99929 2.09179 6.65239C2.00304 6.57173 1.92574 6.32456 1.91333 6.08346V6.05658V6.02883C1.91429 5.79293 1.98109 5.3489 2.50979 5.05316C3.04613 4.78171 4.37742 4.00898 5.6715 3.26487C6.21833 2.95006 6.28609 2.91623 6.71458 2.6682C6.77099 2.88006 6.91312 3.06486 7.11268 3.18579C7.31224 3.30673 7.5546 3.35494 7.79151 3.32082C8.02842 3.28671 8.2425 3.17277 8.39115 3.0017C8.53979 2.83062 8.6121 2.61495 8.59367 2.39761V1.09672C8.59473 0.973106 8.56671 0.850713 8.51147 0.737745C8.45623 0.624777 8.37506 0.523846 8.27339 0.441718C8.17171 0.35959 8.0519 0.298163 7.92197 0.261556C7.79204 0.224948 7.655 0.214006 7.52004 0.229462ZM15.1547 3.26487C15.0029 3.28781 14.8595 3.34374 14.7367 3.42792C14.7367 3.42792 9.9326 6.36532 9.10042 6.8692C9.09033 6.87825 9.08047 6.8875 9.07083 6.89695C8.37989 7.36788 7.97049 7.92813 7.78821 8.44068C7.65937 8.80406 7.64029 9.10066 7.63933 9.33569V9.60714C7.63796 9.63401 7.63796 9.66092 7.63933 9.68779V20.1764C7.63933 21.8242 9.72741 22.7782 11.6361 22.7782C12.495 22.7782 13.2699 22.61 13.8425 22.2631C14.9877 21.656 20.5228 17.7377 20.5228 17.7377C20.8091 17.5642 21 17.3197 21 17.0595V5.78513C21 5.3515 20.8149 5.09132 20.4331 4.91787C20.1468 4.74442 19.6763 4.82594 19.39 4.99939C17.8631 6.0401 13.7528 8.97838 12.7985 9.49873C11.4624 10.1925 10.2036 10.366 9.72646 9.93236C9.53559 9.75891 9.548 9.59587 9.548 9.33569C9.55372 9.18652 9.57186 9.05816 9.60812 8.95583C9.66156 8.80492 9.77036 8.61933 10.174 8.33314C10.1931 8.31926 10.1836 8.32013 10.2036 8.30625C10.8936 7.88736 13.0036 6.5804 14.3798 5.73049C14.4578 5.92057 14.6066 6.07979 14.8004 6.18047C14.9941 6.28115 15.2206 6.31692 15.4404 6.28155C15.6602 6.24618 15.8594 6.14191 16.0034 5.98688C16.1473 5.83185 16.2269 5.63587 16.2283 5.43302V4.13213C16.2294 4.00852 16.2014 3.88612 16.1461 3.77315C16.0909 3.66019 16.0097 3.55925 15.9081 3.47713C15.8064 3.395 15.6866 3.33357 15.5566 3.29696C15.4267 3.26036 15.2897 3.24941 15.1547 3.26487ZM19.0913 9.60714V11.3417L14.3197 14.7014V12.9669L19.0913 9.60714Z" fill="#1890FF"/>
</svg>
