<svg width="30" height="30" viewBox="0 0 30 30" fill="none" xmlns="http://www.w3.org/2000/svg">
<circle cx="14.9995" cy="15" r="15" fill="#003075"/>
<path d="M14.9995 14.5L11.2607 11.4734C10.7052 11.0237 10.4275 10.7988 10.2278 10.5232C10.0509 10.279 9.91951 10.0065 9.83965 9.71814C9.74951 9.39268 9.74951 9.04146 9.74951 8.33903V6M14.9995 14.5L18.7383 11.4734C19.2938 11.0237 19.5715 10.7988 19.7712 10.5232C19.9481 10.279 20.0795 10.0065 20.1594 9.71814C20.2495 9.39268 20.2495 9.04146 20.2495 8.33903V6M14.9995 14.5L11.2607 17.5266C10.7052 17.9763 10.4275 18.2012 10.2278 18.4768C10.0509 18.721 9.91951 18.9935 9.83965 19.2819C9.74951 19.6073 9.74951 19.9585 9.74951 20.661V23M14.9995 14.5L18.7383 17.5266C19.2938 17.9763 19.5715 18.2012 19.7712 18.4768C19.9481 18.721 20.0795 18.9935 20.1594 19.2819C20.2495 19.6073 20.2495 19.9585 20.2495 20.661V23M7.99951 6H21.9995M7.99951 23H21.9995" stroke="#D9D9D9" stroke-width="2" stroke-linecap="round" stroke-linejoin="round"/>
<path d="M15.0001 13.3008C12.7198 11.4512 10.9411 9.97424 11.1173 10.0008L18.8956 10.0008C19.1158 9.91819 17.0314 11.6071 15.0001 13.3008Z" fill="#1890FF"/>
<rect x="10.7495" y="21" width="8.5" height="1" fill="#1890FF"/>
</svg>
