<svg width="38" height="38" viewBox="0 0 38 38" fill="none" xmlns="http://www.w3.org/2000/svg">
<path d="M22.4199 16.467L14.5033 10.8145C13.3949 10.0228 11.9224 10.0228 10.8299 10.8145L2.91325 16.467C2.07409 17.0686 1.58325 18.0186 1.58325 19.0478L1.58325 31.667C1.58325 32.5378 2.29575 33.2503 3.16659 33.2503H9.49992L9.49992 23.7503H15.8333L15.8333 33.2503H22.1666C23.0374 33.2503 23.7499 32.5378 23.7499 31.667L23.7499 19.0478C23.7499 18.0186 23.2591 17.0686 22.4199 16.467Z" fill="white" fill-opacity="0.5"/>
<path d="M33.2975 4.75L18.9525 4.75C17.2267 4.75 15.8334 6.14333 15.8334 7.86917L15.9759 8.01167C16.1025 8.09083 16.2292 8.15417 16.3559 8.23333L24.2725 13.8858C25.4759 14.7408 26.3309 16.0075 26.7109 17.4167H30.0834V20.5833H26.9167L26.9167 23.75H30.0834V26.9167H26.9167L26.9167 33.25H33.2975C35.0234 33.25 36.4167 31.8567 36.4167 30.1308V7.86917C36.4167 6.14333 35.0234 4.75 33.2975 4.75ZM30.0834 14.25H26.9167V11.0833L30.0834 11.0833V14.25Z" fill="white" fill-opacity="0.5"/>
</svg>
