<svg width="37" height="37" viewBox="0 0 37 37" fill="none" xmlns="http://www.w3.org/2000/svg">
<circle cx="18.5" cy="18.5" r="18.5" fill="#C68AE0"/>
<g filter="url(#filter0_d_28_5241)">
<path fill-rule="evenodd" clip-rule="evenodd" d="M23.4331 11.3426C23.4331 13.6892 21.2344 15.5915 18.5222 15.5915C15.81 15.5915 13.6113 13.6892 13.6113 11.3426C13.6113 8.99604 15.81 7.09375 18.5222 7.09375C21.2344 7.09375 23.4331 8.99604 23.4331 11.3426ZM8.70037 26.2137C12.936 26.2137 18.5221 28.3382 18.5221 28.3382V16.6537C18.5221 16.6537 12.9974 14.5293 7.47266 14.5293L7.91901 18.7773H7.47323C7.10492 18.7773 6.85938 18.9898 6.85938 19.3085V21.4329C6.85938 21.7516 7.10492 21.964 7.47323 21.964H8.08709C8.1432 21.964 8.19861 21.962 8.25322 21.9581L8.70037 26.2137ZM28.3452 26.2137C24.1095 26.2137 18.5234 28.3382 18.5234 28.3382V16.6537C18.5234 16.6537 24.0482 14.5293 29.5729 14.5293L29.1265 18.7773H29.5726C29.9409 18.7773 30.1865 18.9898 30.1865 19.3085V21.4329C30.1865 21.7516 29.9409 21.964 29.5726 21.964H28.9588C28.9025 21.964 28.847 21.962 28.7923 21.9581L28.3452 26.2137Z" fill="white"/>
</g>
<defs>
<filter id="filter0_d_28_5241" x="5.85938" y="6.09375" width="25.3271" height="23.2441" filterUnits="userSpaceOnUse" color-interpolation-filters="sRGB">
<feFlood flood-opacity="0" result="BackgroundImageFix"/>
<feColorMatrix in="SourceAlpha" type="matrix" values="0 0 0 0 0 0 0 0 0 0 0 0 0 0 0 0 0 0 127 0" result="hardAlpha"/>
<feOffset/>
<feGaussianBlur stdDeviation="0.5"/>
<feComposite in2="hardAlpha" operator="out"/>
<feColorMatrix type="matrix" values="0 0 0 0 0 0 0 0 0 0 0 0 0 0 0 0 0 0 0.25 0"/>
<feBlend mode="normal" in2="BackgroundImageFix" result="effect1_dropShadow_28_5241"/>
<feBlend mode="normal" in="SourceGraphic" in2="effect1_dropShadow_28_5241" result="shape"/>
</filter>
</defs>
</svg>
