<svg width="423" height="289" viewBox="0 0 423 289" fill="none" xmlns="http://www.w3.org/2000/svg">
<path d="M18.2868 235.359H18.2568L16.4468 237.789H18.2868V235.359ZM18.2868 238.959H15.3268V237.659L18.3668 233.579H19.6368V237.789H20.5668V238.959H19.6368V240.579H18.2868V238.959ZM21.3234 239.039H22.8934V240.579H21.3234V239.039ZM25.1367 237.049C25.1367 237.282 25.1367 237.476 25.1367 237.629C25.1433 237.776 25.1667 237.986 25.2067 238.259C25.2467 238.532 25.3033 238.752 25.3767 238.919C25.45 239.079 25.5633 239.226 25.7167 239.359C25.8767 239.486 26.0633 239.549 26.2767 239.549C26.4967 239.549 26.6833 239.486 26.8367 239.359C26.9967 239.226 27.1133 239.079 27.1867 238.919C27.26 238.752 27.3167 238.532 27.3567 238.259C27.3967 237.986 27.42 237.776 27.4267 237.629C27.4333 237.476 27.4367 237.282 27.4367 237.049C27.4367 236.896 27.4333 236.772 27.4267 236.679C27.4267 236.586 27.42 236.446 27.4067 236.259C27.3933 236.066 27.3733 235.906 27.3467 235.779C27.32 235.652 27.2767 235.509 27.2167 235.349C27.1633 235.189 27.0967 235.062 27.0167 234.969C26.9367 234.869 26.8333 234.786 26.7067 234.719C26.58 234.646 26.4367 234.609 26.2767 234.609C26.0967 234.609 25.9367 234.649 25.7967 234.729C25.6567 234.809 25.5467 234.929 25.4667 235.089C25.3867 235.249 25.3233 235.402 25.2767 235.549C25.23 235.689 25.1967 235.872 25.1767 236.099C25.1567 236.326 25.1433 236.496 25.1367 236.609C25.1367 236.716 25.1367 236.862 25.1367 237.049ZM23.7167 237.049C23.7167 235.769 23.95 234.849 24.4167 234.289C24.89 233.722 25.51 233.439 26.2767 233.439C26.6433 233.439 26.9767 233.502 27.2767 233.629C27.5767 233.749 27.8467 233.946 28.0867 234.219C28.3333 234.486 28.5233 234.859 28.6567 235.339C28.79 235.819 28.8567 236.389 28.8567 237.049C28.8567 237.722 28.79 238.306 28.6567 238.799C28.5233 239.286 28.3333 239.666 28.0867 239.939C27.84 240.206 27.5667 240.402 27.2667 240.529C26.9733 240.649 26.6433 240.709 26.2767 240.709C25.5033 240.709 24.8833 240.426 24.4167 239.859C23.95 239.292 23.7167 238.356 23.7167 237.049Z" fill="white"/>
<path d="M18.2868 204.925H18.2568L16.4468 207.355H18.2868V204.925ZM18.2868 208.525H15.3268V207.225L18.3668 203.145H19.6368V207.355H20.5668V208.525H19.6368V210.145H18.2868V208.525ZM21.3234 208.605H22.8934V210.145H21.3234V208.605ZM28.5067 204.315H25.6167L25.3367 205.905L25.3567 205.925C25.7167 205.565 26.1733 205.385 26.7267 205.385C27.3933 205.385 27.92 205.611 28.3067 206.065C28.6933 206.518 28.8867 207.085 28.8867 207.765C28.8867 208.485 28.63 209.088 28.1167 209.575C27.6033 210.055 26.9933 210.288 26.2867 210.275C25.56 210.275 24.9467 210.085 24.4467 209.705C23.9533 209.318 23.7 208.771 23.6867 208.065H25.1067C25.14 208.385 25.26 208.641 25.4667 208.835C25.6733 209.021 25.9367 209.115 26.2567 209.115C26.6167 209.115 26.9067 208.981 27.1267 208.715C27.3533 208.441 27.4667 208.125 27.4667 207.765C27.4667 207.391 27.3567 207.081 27.1367 206.835C26.9233 206.581 26.63 206.455 26.2567 206.455C26.01 206.455 25.8067 206.498 25.6467 206.585C25.4867 206.671 25.3333 206.815 25.1867 207.015H23.9067L24.5967 203.145H28.5067V204.315Z" fill="white"/>
<path d="M20.1668 173.88H17.2768L16.9968 175.47L17.0168 175.49C17.3768 175.13 17.8335 174.95 18.3868 174.95C19.0535 174.95 19.5801 175.177 19.9668 175.63C20.3535 176.083 20.5468 176.65 20.5468 177.33C20.5468 178.05 20.2901 178.653 19.7768 179.14C19.2635 179.62 18.6535 179.853 17.9468 179.84C17.2201 179.84 16.6068 179.65 16.1068 179.27C15.6135 178.883 15.3601 178.337 15.3468 177.63H16.7668C16.8001 177.95 16.9201 178.207 17.1268 178.4C17.3335 178.587 17.5968 178.68 17.9168 178.68C18.2768 178.68 18.5668 178.547 18.7868 178.28C19.0135 178.007 19.1268 177.69 19.1268 177.33C19.1268 176.957 19.0168 176.647 18.7968 176.4C18.5835 176.147 18.2901 176.02 17.9168 176.02C17.6701 176.02 17.4668 176.063 17.3068 176.15C17.1468 176.237 16.9935 176.38 16.8468 176.58H15.5668L16.2568 172.71H20.1668V173.88ZM21.3234 178.17H22.8934V179.71H21.3234V178.17ZM25.1367 176.18C25.1367 176.413 25.1367 176.607 25.1367 176.76C25.1433 176.907 25.1667 177.117 25.2067 177.39C25.2467 177.663 25.3033 177.883 25.3767 178.05C25.45 178.21 25.5633 178.357 25.7167 178.49C25.8767 178.617 26.0633 178.68 26.2767 178.68C26.4967 178.68 26.6833 178.617 26.8367 178.49C26.9967 178.357 27.1133 178.21 27.1867 178.05C27.26 177.883 27.3167 177.663 27.3567 177.39C27.3967 177.117 27.42 176.907 27.4267 176.76C27.4333 176.607 27.4367 176.413 27.4367 176.18C27.4367 176.027 27.4333 175.903 27.4267 175.81C27.4267 175.717 27.42 175.577 27.4067 175.39C27.3933 175.197 27.3733 175.037 27.3467 174.91C27.32 174.783 27.2767 174.64 27.2167 174.48C27.1633 174.32 27.0967 174.193 27.0167 174.1C26.9367 174 26.8333 173.917 26.7067 173.85C26.58 173.777 26.4367 173.74 26.2767 173.74C26.0967 173.74 25.9367 173.78 25.7967 173.86C25.6567 173.94 25.5467 174.06 25.4667 174.22C25.3867 174.38 25.3233 174.533 25.2767 174.68C25.23 174.82 25.1967 175.003 25.1767 175.23C25.1567 175.457 25.1433 175.627 25.1367 175.74C25.1367 175.847 25.1367 175.993 25.1367 176.18ZM23.7167 176.18C23.7167 174.9 23.95 173.98 24.4167 173.42C24.89 172.853 25.51 172.57 26.2767 172.57C26.6433 172.57 26.9767 172.633 27.2767 172.76C27.5767 172.88 27.8467 173.077 28.0867 173.35C28.3333 173.617 28.5233 173.99 28.6567 174.47C28.79 174.95 28.8567 175.52 28.8567 176.18C28.8567 176.853 28.79 177.437 28.6567 177.93C28.5233 178.417 28.3333 178.797 28.0867 179.07C27.84 179.337 27.5667 179.533 27.2667 179.66C26.9733 179.78 26.6433 179.84 26.2767 179.84C25.5033 179.84 24.8833 179.557 24.4167 178.99C23.95 178.423 23.7167 177.487 23.7167 176.18Z" fill="white"/>
<path d="M20.1668 143.444H17.2768L16.9968 145.034L17.0168 145.054C17.3768 144.694 17.8335 144.514 18.3868 144.514C19.0535 144.514 19.5801 144.741 19.9668 145.194C20.3535 145.648 20.5468 146.214 20.5468 146.894C20.5468 147.614 20.2901 148.218 19.7768 148.704C19.2635 149.184 18.6535 149.418 17.9468 149.404C17.2201 149.404 16.6068 149.214 16.1068 148.834C15.6135 148.448 15.3601 147.901 15.3468 147.194H16.7668C16.8001 147.514 16.9201 147.771 17.1268 147.964C17.3335 148.151 17.5968 148.244 17.9168 148.244C18.2768 148.244 18.5668 148.111 18.7868 147.844C19.0135 147.571 19.1268 147.254 19.1268 146.894C19.1268 146.521 19.0168 146.211 18.7968 145.964C18.5835 145.711 18.2901 145.584 17.9168 145.584C17.6701 145.584 17.4668 145.628 17.3068 145.714C17.1468 145.801 16.9935 145.944 16.8468 146.144H15.5668L16.2568 142.274H20.1668V143.444ZM21.3234 147.734H22.8934V149.274H21.3234V147.734ZM28.5067 143.444H25.6167L25.3367 145.034L25.3567 145.054C25.7167 144.694 26.1733 144.514 26.7267 144.514C27.3933 144.514 27.92 144.741 28.3067 145.194C28.6933 145.648 28.8867 146.214 28.8867 146.894C28.8867 147.614 28.63 148.218 28.1167 148.704C27.6033 149.184 26.9933 149.418 26.2867 149.404C25.56 149.404 24.9467 149.214 24.4467 148.834C23.9533 148.448 23.7 147.901 23.6867 147.194H25.1067C25.14 147.514 25.26 147.771 25.4667 147.964C25.6733 148.151 25.9367 148.244 26.2567 148.244C26.6167 148.244 26.9067 148.111 27.1267 147.844C27.3533 147.571 27.4667 147.254 27.4667 146.894C27.4667 146.521 27.3567 146.211 27.1367 145.964C26.9233 145.711 26.63 145.584 26.2567 145.584C26.01 145.584 25.8067 145.628 25.6467 145.714C25.4867 145.801 25.3333 145.944 25.1867 146.144H23.9067L24.5967 142.274H28.5067V143.444Z" fill="white"/>
<path d="M18.0268 115.21C17.6668 115.21 17.3868 115.337 17.1868 115.59C16.9935 115.837 16.8968 116.143 16.8968 116.51C16.8968 116.857 17.0001 117.16 17.2068 117.42C17.4135 117.68 17.6868 117.81 18.0268 117.81C18.3535 117.81 18.6135 117.683 18.8068 117.43C19.0001 117.17 19.0968 116.87 19.0968 116.53C19.0968 116.17 19.0035 115.86 18.8168 115.6C18.6368 115.34 18.3735 115.21 18.0268 115.21ZM19.0468 113.64C19.0001 113.393 18.8901 113.187 18.7168 113.02C18.5501 112.853 18.3468 112.77 18.1068 112.77C17.7935 112.77 17.5301 112.9 17.3168 113.16C17.1101 113.42 16.9701 113.7 16.8968 114C16.8235 114.293 16.7801 114.593 16.7668 114.9L16.7868 114.92C17.1468 114.4 17.6735 114.14 18.3668 114.14C18.6668 114.14 18.9601 114.207 19.2468 114.34C19.5335 114.467 19.7768 114.64 19.9768 114.86C20.3368 115.28 20.5168 115.8 20.5168 116.42C20.5168 117.153 20.2901 117.763 19.8368 118.25C19.3835 118.73 18.7935 118.97 18.0668 118.97C17.6601 118.97 17.2968 118.9 16.9768 118.76C16.6568 118.62 16.3968 118.44 16.1968 118.22C16.0035 117.993 15.8435 117.72 15.7168 117.4C15.5901 117.08 15.5001 116.757 15.4468 116.43C15.4001 116.097 15.3768 115.74 15.3768 115.36C15.3768 114.907 15.4268 114.473 15.5268 114.06C15.6335 113.64 15.7901 113.25 15.9968 112.89C16.2101 112.53 16.5001 112.243 16.8668 112.03C17.2335 111.81 17.6535 111.7 18.1268 111.7C18.7401 111.7 19.2501 111.87 19.6568 112.21C20.0701 112.55 20.3168 113.027 20.3968 113.64H19.0468ZM21.3234 117.3H22.8934V118.84H21.3234V117.3ZM25.1367 115.31C25.1367 115.543 25.1367 115.737 25.1367 115.89C25.1433 116.037 25.1667 116.247 25.2067 116.52C25.2467 116.793 25.3033 117.013 25.3767 117.18C25.45 117.34 25.5633 117.487 25.7167 117.62C25.8767 117.747 26.0633 117.81 26.2767 117.81C26.4967 117.81 26.6833 117.747 26.8367 117.62C26.9967 117.487 27.1133 117.34 27.1867 117.18C27.26 117.013 27.3167 116.793 27.3567 116.52C27.3967 116.247 27.42 116.037 27.4267 115.89C27.4333 115.737 27.4367 115.543 27.4367 115.31C27.4367 115.157 27.4333 115.033 27.4267 114.94C27.4267 114.847 27.42 114.707 27.4067 114.52C27.3933 114.327 27.3733 114.167 27.3467 114.04C27.32 113.913 27.2767 113.77 27.2167 113.61C27.1633 113.45 27.0967 113.323 27.0167 113.23C26.9367 113.13 26.8333 113.047 26.7067 112.98C26.58 112.907 26.4367 112.87 26.2767 112.87C26.0967 112.87 25.9367 112.91 25.7967 112.99C25.6567 113.07 25.5467 113.19 25.4667 113.35C25.3867 113.51 25.3233 113.663 25.2767 113.81C25.23 113.95 25.1967 114.133 25.1767 114.36C25.1567 114.587 25.1433 114.757 25.1367 114.87C25.1367 114.977 25.1367 115.123 25.1367 115.31ZM23.7167 115.31C23.7167 114.03 23.95 113.11 24.4167 112.55C24.89 111.983 25.51 111.7 26.2767 111.7C26.6433 111.7 26.9767 111.763 27.2767 111.89C27.5767 112.01 27.8467 112.207 28.0867 112.48C28.3333 112.747 28.5233 113.12 28.6567 113.6C28.79 114.08 28.8567 114.65 28.8567 115.31C28.8567 115.983 28.79 116.567 28.6567 117.06C28.5233 117.547 28.3333 117.927 28.0867 118.2C27.84 118.467 27.5667 118.663 27.2667 118.79C26.9733 118.91 26.6433 118.97 26.2767 118.97C25.5033 118.97 24.8833 118.687 24.4167 118.12C23.95 117.553 23.7167 116.617 23.7167 115.31Z" fill="white"/>
<path d="M18.0268 83.3261C17.6668 83.3261 17.3868 83.4527 17.1868 83.7061C16.9935 83.9527 16.8968 84.2594 16.8968 84.6261C16.8968 84.9727 17.0001 85.2761 17.2068 85.5361C17.4135 85.7961 17.6868 85.9261 18.0268 85.9261C18.3535 85.9261 18.6135 85.7994 18.8068 85.5461C19.0001 85.2861 19.0968 84.9861 19.0968 84.6461C19.0968 84.2861 19.0035 83.9761 18.8168 83.7161C18.6368 83.4561 18.3735 83.3261 18.0268 83.3261ZM19.0468 81.7561C19.0001 81.5094 18.8901 81.3027 18.7168 81.1361C18.5501 80.9694 18.3468 80.8861 18.1068 80.8861C17.7935 80.8861 17.5301 81.0161 17.3168 81.2761C17.1101 81.5361 16.9701 81.8161 16.8968 82.1161C16.8235 82.4094 16.7801 82.7094 16.7668 83.0161L16.7868 83.0361C17.1468 82.5161 17.6735 82.2561 18.3668 82.2561C18.6668 82.2561 18.9601 82.3227 19.2468 82.4561C19.5335 82.5827 19.7768 82.7561 19.9768 82.9761C20.3368 83.3961 20.5168 83.9161 20.5168 84.5361C20.5168 85.2694 20.2901 85.8794 19.8368 86.3661C19.3835 86.8461 18.7935 87.0861 18.0668 87.0861C17.6601 87.0861 17.2968 87.0161 16.9768 86.8761C16.6568 86.7361 16.3968 86.5561 16.1968 86.3361C16.0035 86.1094 15.8435 85.8361 15.7168 85.5161C15.5901 85.1961 15.5001 84.8727 15.4468 84.5461C15.4001 84.2127 15.3768 83.8561 15.3768 83.4761C15.3768 83.0227 15.4268 82.5894 15.5268 82.1761C15.6335 81.7561 15.7901 81.3661 15.9968 81.0061C16.2101 80.6461 16.5001 80.3594 16.8668 80.1461C17.2335 79.9261 17.6535 79.8161 18.1268 79.8161C18.7401 79.8161 19.2501 79.9861 19.6568 80.3261C20.0701 80.6661 20.3168 81.1427 20.3968 81.7561H19.0468ZM21.3234 85.4161H22.8934V86.9561H21.3234V85.4161ZM28.5067 81.1261H25.6167L25.3367 82.7161L25.3567 82.7361C25.7167 82.3761 26.1733 82.1961 26.7267 82.1961C27.3933 82.1961 27.92 82.4227 28.3067 82.8761C28.6933 83.3294 28.8867 83.8961 28.8867 84.5761C28.8867 85.2961 28.63 85.8994 28.1167 86.3861C27.6033 86.8661 26.9933 87.0994 26.2867 87.0861C25.56 87.0861 24.9467 86.8961 24.4467 86.5161C23.9533 86.1294 23.7 85.5827 23.6867 84.8761H25.1067C25.14 85.1961 25.26 85.4527 25.4667 85.6461C25.6733 85.8327 25.9367 85.9261 26.2567 85.9261C26.6167 85.9261 26.9067 85.7927 27.1267 85.5261C27.3533 85.2527 27.4667 84.9361 27.4667 84.5761C27.4667 84.2027 27.3567 83.8927 27.1367 83.6461C26.9233 83.3927 26.63 83.2661 26.2567 83.2661C26.01 83.2661 25.8067 83.3094 25.6467 83.3961C25.4867 83.4827 25.3333 83.6261 25.1867 83.8261H23.9067L24.5967 79.9561H28.5067V81.1261Z" fill="white"/>
<path d="M20.3368 50.7415C19.6435 51.3415 19.0901 52.2015 18.6768 53.3215C18.2701 54.4348 18.0601 55.5015 18.0468 56.5215H16.5268C16.6868 54.4415 17.4701 52.5482 18.8768 50.8415H15.5568V49.5215H20.3368V50.7415ZM21.3234 54.9815H22.8934V56.5215H21.3234V54.9815ZM25.1367 52.9915C25.1367 53.2248 25.1367 53.4182 25.1367 53.5715C25.1433 53.7182 25.1667 53.9282 25.2067 54.2015C25.2467 54.4748 25.3033 54.6948 25.3767 54.8615C25.45 55.0215 25.5633 55.1682 25.7167 55.3015C25.8767 55.4282 26.0633 55.4915 26.2767 55.4915C26.4967 55.4915 26.6833 55.4282 26.8367 55.3015C26.9967 55.1682 27.1133 55.0215 27.1867 54.8615C27.26 54.6948 27.3167 54.4748 27.3567 54.2015C27.3967 53.9282 27.42 53.7182 27.4267 53.5715C27.4333 53.4182 27.4367 53.2248 27.4367 52.9915C27.4367 52.8382 27.4333 52.7148 27.4267 52.6215C27.4267 52.5282 27.42 52.3882 27.4067 52.2015C27.3933 52.0082 27.3733 51.8482 27.3467 51.7215C27.32 51.5948 27.2767 51.4515 27.2167 51.2915C27.1633 51.1315 27.0967 51.0048 27.0167 50.9115C26.9367 50.8115 26.8333 50.7282 26.7067 50.6615C26.58 50.5882 26.4367 50.5515 26.2767 50.5515C26.0967 50.5515 25.9367 50.5915 25.7967 50.6715C25.6567 50.7515 25.5467 50.8715 25.4667 51.0315C25.3867 51.1915 25.3233 51.3448 25.2767 51.4915C25.23 51.6315 25.1967 51.8148 25.1767 52.0415C25.1567 52.2682 25.1433 52.4382 25.1367 52.5515C25.1367 52.6582 25.1367 52.8048 25.1367 52.9915ZM23.7167 52.9915C23.7167 51.7115 23.95 50.7915 24.4167 50.2315C24.89 49.6648 25.51 49.3815 26.2767 49.3815C26.6433 49.3815 26.9767 49.4448 27.2767 49.5715C27.5767 49.6915 27.8467 49.8882 28.0867 50.1615C28.3333 50.4282 28.5233 50.8015 28.6567 51.2815C28.79 51.7615 28.8567 52.3315 28.8567 52.9915C28.8567 53.6648 28.79 54.2482 28.6567 54.7415C28.5233 55.2282 28.3333 55.6082 28.0867 55.8815C27.84 56.1482 27.5667 56.3448 27.2667 56.4715C26.9733 56.5915 26.6433 56.6515 26.2767 56.6515C25.5033 56.6515 24.8833 56.3682 24.4167 55.8015C23.95 55.2348 23.7167 54.2982 23.7167 52.9915Z" fill="white"/>
<path d="M20.3368 20.3069C19.6435 20.9069 19.0901 21.7669 18.6768 22.8869C18.2701 24.0002 18.0601 25.0669 18.0468 26.0869H16.5268C16.6868 24.0069 17.4701 22.1136 18.8768 20.4069H15.5568V19.0869H20.3368V20.3069ZM21.3234 24.5469H22.8934V26.0869H21.3234V24.5469ZM28.5067 20.2569H25.6167L25.3367 21.8469L25.3567 21.8669C25.7167 21.5069 26.1733 21.3269 26.7267 21.3269C27.3933 21.3269 27.92 21.5536 28.3067 22.0069C28.6933 22.4602 28.8867 23.0269 28.8867 23.7069C28.8867 24.4269 28.63 25.0302 28.1167 25.5169C27.6033 25.9969 26.9933 26.2302 26.2867 26.2169C25.56 26.2169 24.9467 26.0269 24.4467 25.6469C23.9533 25.2602 23.7 24.7136 23.6867 24.0069H25.1067C25.14 24.3269 25.26 24.5836 25.4667 24.7769C25.6733 24.9636 25.9367 25.0569 26.2567 25.0569C26.6167 25.0569 26.9067 24.9236 27.1267 24.6569C27.3533 24.3836 27.4667 24.0669 27.4667 23.7069C27.4667 23.3336 27.3567 23.0236 27.1367 22.7769C26.9233 22.5236 26.63 22.3969 26.2567 22.3969C26.01 22.3969 25.8067 22.4402 25.6467 22.5269C25.4867 22.6136 25.3333 22.7569 25.1867 22.9569H23.9067L24.5967 19.0869H28.5067V20.2569Z" fill="white"/>
<path d="M11.5726 2.86H13.1426V10H11.5726V2.86ZM14.5218 2.86H19.8618V4.18H16.0918V5.71H19.5518V6.93H16.0918V8.68H19.9418V10H14.5218V2.86ZM21.0062 2.86H22.5762V8.68H26.0562V10H21.0062V2.86ZM27.596 4.18H25.456V2.86H31.306V4.18H29.166V10H27.596V4.18ZM33.1993 7.63C33.1993 8.07667 33.3459 8.41 33.6393 8.63C33.9393 8.84333 34.3193 8.95 34.7793 8.95C34.9993 8.95 35.2026 8.93 35.3893 8.89C35.5826 8.84333 35.7593 8.75 35.9193 8.61C36.0859 8.47 36.1693 8.28667 36.1693 8.06C36.1693 7.93333 36.1359 7.82 36.0693 7.72C36.0093 7.62 35.9393 7.54 35.8593 7.48C35.7793 7.41333 35.6559 7.35 35.4893 7.29C35.3226 7.22333 35.1826 7.17667 35.0693 7.15C34.9559 7.11667 34.7859 7.07333 34.5593 7.02C34.3326 6.96 34.1626 6.91333 34.0493 6.88C33.7493 6.80667 33.4859 6.72667 33.2593 6.64C33.0393 6.54667 32.8193 6.42333 32.5993 6.27C32.3793 6.11667 32.2093 5.92 32.0893 5.68C31.9759 5.44 31.9193 5.16333 31.9193 4.85C31.9193 4.16333 32.1859 3.63333 32.7193 3.26C33.2526 2.88 33.8759 2.69 34.5893 2.69C35.1159 2.69 35.5859 2.76333 35.9993 2.91C36.4126 3.05667 36.7559 3.31 37.0293 3.67C37.3093 4.02333 37.4493 4.46333 37.4493 4.99H35.9293C35.8893 4.27 35.4193 3.91 34.5193 3.91C34.2326 3.91 33.9793 3.97667 33.7593 4.11C33.5459 4.24333 33.4393 4.44667 33.4393 4.72C33.4393 4.98667 33.5526 5.17333 33.7793 5.28C34.0126 5.38 34.6093 5.55333 35.5693 5.8C36.9826 6.09333 37.6893 6.78667 37.6893 7.88C37.6893 8.56 37.4293 9.11 36.9093 9.53C36.3959 9.95 35.6659 10.16 34.7193 10.16C34.3126 10.16 33.9293 10.11 33.5693 10.01C33.2093 9.91 32.8859 9.76333 32.5993 9.57C32.3126 9.37 32.0859 9.10333 31.9193 8.77C31.7526 8.43667 31.6726 8.05667 31.6793 7.63H33.1993Z" fill="white"/>
<path d="M13.9195 255.451H16.2595C16.7529 255.451 17.1395 255.327 17.4195 255.081C17.7062 254.834 17.8495 254.471 17.8495 253.991C17.8495 253.511 17.7062 253.147 17.4195 252.901C17.1395 252.654 16.7529 252.531 16.2595 252.531H13.9195V255.451ZM13.2395 251.951H16.4095C17.0562 251.951 17.5695 252.131 17.9495 252.491C18.3362 252.851 18.5295 253.351 18.5295 253.991C18.5295 254.631 18.3362 255.131 17.9495 255.491C17.5695 255.851 17.0562 256.031 16.4095 256.031H13.9195V259.091H13.2395V251.951ZM19.4284 251.951H20.0584V259.091H19.4284V251.951ZM21.2041 255.511C21.2441 254.924 21.4474 254.491 21.8141 254.211C22.1807 253.924 22.6741 253.781 23.2941 253.781C24.5607 253.781 25.1941 254.334 25.1941 255.441V258.181C25.1941 258.434 25.3174 258.561 25.5641 258.561C25.6441 258.561 25.7107 258.547 25.7641 258.521V259.051C25.6307 259.077 25.4941 259.091 25.3541 259.091C25.0607 259.091 24.8641 259.017 24.7641 258.871C24.6641 258.717 24.6141 258.491 24.6141 258.191H24.5941C24.3474 258.557 24.0907 258.824 23.8241 258.991C23.5574 259.151 23.1874 259.231 22.7141 259.231C22.2007 259.231 21.7841 259.107 21.4641 258.861C21.1441 258.607 20.9841 258.231 20.9841 257.731C20.9841 257.544 21.0107 257.377 21.0641 257.231C21.1174 257.077 21.1774 256.951 21.2441 256.851C21.3174 256.744 21.4274 256.651 21.5741 256.571C21.7274 256.484 21.8574 256.421 21.9641 256.381C22.0707 256.334 22.2307 256.291 22.4441 256.251C22.6641 256.211 22.8307 256.184 22.9441 256.171C23.0574 256.151 23.2407 256.127 23.4941 256.101C23.6074 256.087 23.6941 256.077 23.7541 256.071C24.0474 256.044 24.2541 255.987 24.3741 255.901C24.5007 255.814 24.5641 255.637 24.5641 255.371C24.5641 254.977 24.4441 254.704 24.2041 254.551C23.9641 254.391 23.6341 254.311 23.2141 254.311C22.7941 254.311 22.4607 254.411 22.2141 254.611C21.9741 254.804 21.8474 255.104 21.8341 255.511H21.2041ZM24.5641 256.271H24.5441C24.4907 256.371 24.3141 256.447 24.0141 256.501C23.9007 256.521 23.7207 256.551 23.4741 256.591C23.2274 256.624 23.0374 256.654 22.9041 256.681C22.7707 256.701 22.6074 256.741 22.4141 256.801C22.2274 256.854 22.0841 256.914 21.9841 256.981C21.8907 257.047 21.8041 257.144 21.7241 257.271C21.6507 257.391 21.6141 257.531 21.6141 257.691C21.6141 257.997 21.7274 258.244 21.9541 258.431C22.1807 258.617 22.4507 258.711 22.7641 258.711C23.2707 258.711 23.6974 258.564 24.0441 258.271C24.3907 257.971 24.5641 257.577 24.5641 257.091V256.271ZM30.0896 255.551C29.9096 254.724 29.4229 254.311 28.6296 254.311C28.0629 254.311 27.6196 254.531 27.2996 254.971C26.9796 255.404 26.8196 255.917 26.8196 256.511C26.8196 257.104 26.9796 257.621 27.2996 258.061C27.6196 258.494 28.0629 258.711 28.6296 258.711C29.0163 258.711 29.3529 258.571 29.6396 258.291C29.9263 258.011 30.0896 257.661 30.1296 257.241H30.7596C30.6729 257.867 30.4429 258.357 30.0696 258.711C29.6963 259.057 29.2163 259.231 28.6296 259.231C27.8696 259.231 27.2729 258.974 26.8396 258.461C26.4063 257.941 26.1896 257.291 26.1896 256.511C26.1896 255.737 26.4063 255.091 26.8396 254.571C27.2729 254.044 27.8696 253.781 28.6296 253.781C29.2029 253.781 29.6763 253.931 30.0496 254.231C30.4229 254.531 30.6463 254.971 30.7196 255.551H30.0896ZM35.3452 256.151C35.3318 255.651 35.1752 255.221 34.8752 254.861C34.5752 254.494 34.1852 254.311 33.7052 254.311C33.2185 254.311 32.8285 254.491 32.5352 254.851C32.2418 255.204 32.0652 255.637 32.0052 256.151H35.3452ZM32.0052 256.681C32.0052 257.207 32.1485 257.677 32.4352 258.091C32.7285 258.504 33.1518 258.711 33.7052 258.711C34.5652 258.711 35.1052 258.271 35.3252 257.391H35.9552C35.6752 258.617 34.9252 259.231 33.7052 259.231C32.9252 259.231 32.3418 258.977 31.9552 258.471C31.5685 257.957 31.3752 257.304 31.3752 256.511C31.3752 256.031 31.4518 255.594 31.6052 255.201C31.7585 254.801 32.0152 254.464 32.3752 254.191C32.7418 253.917 33.1852 253.781 33.7052 253.781C34.2318 253.781 34.6718 253.924 35.0252 254.211C35.3852 254.497 35.6385 254.854 35.7852 255.281C35.9318 255.707 35.9952 256.174 35.9752 256.681H32.0052ZM36.8207 253.931H37.4007V254.801H37.4307C37.784 254.121 38.3474 253.781 39.1207 253.781C39.474 253.781 39.784 253.867 40.0507 254.041C40.324 254.214 40.5074 254.464 40.6007 254.791C40.7474 254.464 40.9674 254.214 41.2607 254.041C41.5607 253.867 41.8874 253.781 42.2407 253.781C43.3807 253.781 43.9507 254.384 43.9507 255.591V259.091H43.3207V255.621C43.3207 255.181 43.2274 254.854 43.0407 254.641C42.854 254.421 42.5407 254.311 42.1007 254.311C41.1674 254.311 40.7007 254.931 40.7007 256.171V259.091H40.0707V255.591C40.0707 254.737 39.7107 254.311 38.9907 254.311C38.4774 254.311 38.0907 254.484 37.8307 254.831C37.5774 255.177 37.4507 255.637 37.4507 256.211V259.091H36.8207V253.931ZM48.8608 256.151C48.8474 255.651 48.6908 255.221 48.3908 254.861C48.0908 254.494 47.7008 254.311 47.2208 254.311C46.7341 254.311 46.3441 254.491 46.0508 254.851C45.7574 255.204 45.5808 255.637 45.5208 256.151H48.8608ZM45.5208 256.681C45.5208 257.207 45.6641 257.677 45.9508 258.091C46.2441 258.504 46.6674 258.711 47.2208 258.711C48.0808 258.711 48.6208 258.271 48.8408 257.391H49.4708C49.1908 258.617 48.4408 259.231 47.2208 259.231C46.4408 259.231 45.8574 258.977 45.4708 258.471C45.0841 257.957 44.8908 257.304 44.8908 256.511C44.8908 256.031 44.9674 255.594 45.1208 255.201C45.2741 254.801 45.5308 254.464 45.8908 254.191C46.2574 253.917 46.7008 253.781 47.2208 253.781C47.7474 253.781 48.1874 253.924 48.5408 254.211C48.9008 254.497 49.1541 254.854 49.3008 255.281C49.4474 255.707 49.5108 256.174 49.4908 256.681H45.5208ZM50.3263 253.931H50.9563V254.821H50.9763C51.0963 254.507 51.3097 254.257 51.6163 254.071C51.923 253.877 52.2597 253.781 52.6263 253.781C53.3197 253.781 53.8063 253.951 54.0863 254.291C54.373 254.624 54.5163 255.117 54.5163 255.771V259.091H53.8863V255.871C53.8863 254.831 53.4497 254.311 52.5763 254.311C52.0897 254.311 51.6997 254.477 51.4063 254.811C51.1197 255.137 50.9697 255.561 50.9563 256.081V259.091H50.3263V253.931ZM56.7074 253.931H57.7574V254.461H56.7074V257.941C56.7074 258.167 56.7408 258.334 56.8074 258.441C56.8741 258.547 57.0108 258.607 57.2174 258.621C57.3974 258.621 57.5774 258.611 57.7574 258.591V259.121C57.6974 259.121 57.6041 259.124 57.4774 259.131C57.3508 259.137 57.2574 259.141 57.1974 259.141C56.7708 259.141 56.4741 259.057 56.3074 258.891C56.1474 258.724 56.0708 258.424 56.0774 257.991V254.461H55.1774V253.931H56.0774V252.381H56.7074V253.931ZM26.5518 263.951H32.2018V264.531H29.7118V271.091H29.0318V264.531H26.5518V263.951ZM35.3452 268.151C35.3318 267.651 35.1752 267.221 34.8752 266.861C34.5752 266.494 34.1852 266.311 33.7052 266.311C33.2185 266.311 32.8285 266.491 32.5352 266.851C32.2418 267.204 32.0652 267.637 32.0052 268.151H35.3452ZM32.0052 268.681C32.0052 269.207 32.1485 269.677 32.4352 270.091C32.7285 270.504 33.1518 270.711 33.7052 270.711C34.5652 270.711 35.1052 270.271 35.3252 269.391H35.9552C35.6752 270.617 34.9252 271.231 33.7052 271.231C32.9252 271.231 32.3418 270.977 31.9552 270.471C31.5685 269.957 31.3752 269.304 31.3752 268.511C31.3752 268.031 31.4518 267.594 31.6052 267.201C31.7585 266.801 32.0152 266.464 32.3752 266.191C32.7418 265.917 33.1852 265.781 33.7052 265.781C34.2318 265.781 34.6718 265.924 35.0252 266.211C35.3852 266.497 35.6385 266.854 35.7852 267.281C35.9318 267.707 35.9952 268.174 35.9752 268.681H32.0052ZM39.9107 267.441C39.8974 267.067 39.764 266.787 39.5107 266.601C39.2574 266.407 38.9407 266.311 38.5607 266.311C38.234 266.311 37.9474 266.384 37.7007 266.531C37.4607 266.671 37.3407 266.894 37.3407 267.201C37.3407 267.601 37.6974 267.891 38.4107 268.071L39.2507 268.261C39.664 268.321 40.0107 268.471 40.2907 268.711C40.5774 268.951 40.7207 269.277 40.7207 269.691C40.7207 270.211 40.514 270.597 40.1007 270.851C39.6874 271.104 39.204 271.231 38.6507 271.231C37.344 271.231 36.6374 270.627 36.5307 269.421H37.1607C37.1874 269.834 37.3374 270.154 37.6107 270.381C37.8907 270.601 38.2474 270.711 38.6807 270.711C39.0407 270.711 39.364 270.631 39.6507 270.471C39.944 270.304 40.0907 270.057 40.0907 269.731C40.0907 269.457 39.9907 269.254 39.7907 269.121C39.5974 268.987 39.3207 268.877 38.9607 268.791L38.1507 268.611C37.6774 268.491 37.3174 268.331 37.0707 268.131C36.8307 267.931 36.7107 267.631 36.7107 267.231C36.7107 266.744 36.904 266.381 37.2907 266.141C37.6774 265.901 38.1307 265.781 38.6507 265.781C39.1907 265.781 39.634 265.924 39.9807 266.211C40.3274 266.491 40.514 266.901 40.5407 267.441H39.9107ZM42.6352 265.931H43.6852V266.461H42.6352V269.941C42.6352 270.167 42.6685 270.334 42.7352 270.441C42.8018 270.547 42.9385 270.607 43.1452 270.621C43.3252 270.621 43.5052 270.611 43.6852 270.591V271.121C43.6252 271.121 43.5318 271.124 43.4052 271.131C43.2785 271.137 43.1852 271.141 43.1252 271.141C42.6985 271.141 42.4018 271.057 42.2352 270.891C42.0752 270.724 41.9985 270.424 42.0052 269.991V266.461H41.1052V265.931H42.0052V264.381H42.6352V265.931Z" fill="white"/>
<path d="M113.453 265.203H107.921C107.929 264.811 107.997 264.451 108.125 264.123C108.253 263.787 108.441 263.487 108.689 263.223C108.945 262.951 109.185 262.727 109.409 262.551C109.641 262.367 109.937 262.159 110.297 261.927C111.121 261.367 111.657 260.967 111.905 260.727C112.441 260.207 112.693 259.659 112.661 259.083C112.661 258.555 112.477 258.139 112.109 257.835C111.749 257.523 111.305 257.367 110.777 257.367C110.129 257.367 109.645 257.591 109.325 258.039C109.013 258.479 108.865 259.035 108.881 259.707H108.125C108.109 258.811 108.329 258.091 108.785 257.547C109.249 257.003 109.925 256.731 110.813 256.731C111.581 256.731 112.205 256.935 112.685 257.343C113.173 257.751 113.417 258.335 113.417 259.095C113.417 259.735 113.225 260.291 112.841 260.763C112.465 261.235 111.953 261.675 111.305 262.083C111.217 262.147 111.037 262.263 110.765 262.431C110.501 262.599 110.281 262.743 110.105 262.863C109.937 262.983 109.745 263.135 109.529 263.319C109.321 263.495 109.153 263.683 109.025 263.883C108.905 264.083 108.825 264.291 108.785 264.507H113.453V265.203Z" fill="white"/>
<rect x="65.293" y="243.586" width="34" height="45.4143" rx="5" fill="#1C4D86"/>
<path d="M69.648 250.574H71.858L73.528 255.484H73.548L75.128 250.574H77.338V257.714H75.868V252.654H75.848L74.098 257.714H72.888L71.138 252.704H71.118V257.714H69.648V250.574ZM80.1203 253.954C79.9269 254.267 79.8303 254.661 79.8303 255.134C79.8303 255.607 79.9269 256.001 80.1203 256.314C80.3203 256.627 80.6403 256.784 81.0803 256.784C81.5269 256.784 81.8469 256.627 82.0403 256.314C82.2403 256.001 82.3403 255.607 82.3403 255.134C82.3403 254.661 82.2403 254.267 82.0403 253.954C81.8469 253.634 81.5269 253.474 81.0803 253.474C80.6403 253.474 80.3203 253.634 80.1203 253.954ZM79.1303 257.114C78.6503 256.621 78.4103 255.961 78.4103 255.134C78.4103 254.307 78.6536 253.647 79.1403 253.154C79.6269 252.654 80.2736 252.404 81.0803 252.404C81.8936 252.404 82.5436 252.654 83.0303 253.154C83.5169 253.647 83.7603 254.307 83.7603 255.134C83.7603 255.961 83.5169 256.621 83.0303 257.114C82.5436 257.601 81.8936 257.844 81.0803 257.844C80.2669 257.844 79.6169 257.601 79.1303 257.114ZM88.2036 254.364C88.1102 253.771 87.7602 253.474 87.1536 253.474C86.7402 253.474 86.4336 253.644 86.2336 253.984C86.0402 254.317 85.9436 254.707 85.9436 255.154C85.9436 255.594 86.0369 255.977 86.2236 256.304C86.4169 256.624 86.7169 256.784 87.1236 256.784C87.7769 256.784 88.1536 256.434 88.2536 255.734H89.6236C89.5302 256.414 89.2636 256.937 88.8236 257.304C88.3902 257.664 87.8269 257.844 87.1336 257.844C86.3536 257.844 85.7236 257.601 85.2436 257.114C84.7636 256.621 84.5236 255.984 84.5236 255.204C84.5236 254.377 84.7569 253.704 85.2236 253.184C85.6969 252.664 86.3436 252.404 87.1636 252.404C87.8169 252.404 88.3736 252.574 88.8336 252.914C89.3002 253.254 89.5536 253.737 89.5936 254.364H88.2036ZM90.5557 250.574H91.9757V254.404L93.7657 252.544H95.4457L93.4957 254.444L95.6657 257.714H93.9457L92.5257 255.404L91.9757 255.934V257.714H90.5557V250.574ZM70.5786 263.894H68.4386V262.574H74.2886V263.894H72.1486V269.714H70.5786V263.894ZM77.3286 266.574C77.2619 266.201 77.1386 265.924 76.9586 265.744C76.7853 265.564 76.5319 265.474 76.1986 265.474C75.7919 265.474 75.4986 265.591 75.3186 265.824C75.1386 266.051 75.0386 266.301 75.0186 266.574H77.3286ZM75.0186 267.474C75.0386 267.927 75.1519 268.261 75.3586 268.474C75.5719 268.681 75.8819 268.784 76.2886 268.784C76.5619 268.784 76.8053 268.717 77.0186 268.584C77.2319 268.444 77.3619 268.287 77.4086 268.114H78.6586C78.2853 269.267 77.4786 269.844 76.2386 269.844C75.4319 269.844 74.7886 269.597 74.3086 269.104C73.8353 268.604 73.5986 267.947 73.5986 267.134C73.5986 266.347 73.8419 265.697 74.3286 265.184C74.8219 264.664 75.4586 264.404 76.2386 264.404C77.0786 264.404 77.7219 264.704 78.1686 265.304C78.6153 265.904 78.8086 266.627 78.7486 267.474H75.0186ZM80.6908 268.034C80.6908 268.321 80.7974 268.537 81.0108 268.684C81.2241 268.831 81.4808 268.904 81.7808 268.904C82.0208 268.904 82.2341 268.851 82.4208 268.744C82.6141 268.637 82.7108 268.471 82.7108 268.244C82.7108 268.044 82.5874 267.891 82.3408 267.784C82.0941 267.677 81.6808 267.564 81.1008 267.444C80.8541 267.391 80.6474 267.334 80.4808 267.274C80.3208 267.214 80.1541 267.134 79.9808 267.034C79.8074 266.927 79.6774 266.794 79.5908 266.634C79.5041 266.474 79.4608 266.284 79.4608 266.064C79.4608 265.751 79.5241 265.481 79.6508 265.254C79.7774 265.027 79.9508 264.854 80.1708 264.734C80.3974 264.614 80.6341 264.531 80.8808 264.484C81.1341 264.431 81.4108 264.404 81.7108 264.404C82.3441 264.404 82.8674 264.534 83.2808 264.794C83.7008 265.047 83.9374 265.467 83.9908 266.054H82.6408C82.6074 265.587 82.2841 265.354 81.6708 265.354C81.1441 265.354 80.8808 265.514 80.8808 265.834C80.8808 265.907 80.8941 265.974 80.9208 266.034C80.9541 266.087 81.0008 266.137 81.0608 266.184C81.1274 266.224 81.1941 266.261 81.2608 266.294C81.3274 266.321 81.4141 266.351 81.5208 266.384C81.6341 266.411 81.7308 266.434 81.8108 266.454C81.8974 266.474 82.0108 266.501 82.1508 266.534C82.2908 266.561 82.4041 266.584 82.4908 266.604C83.0041 266.724 83.4041 266.887 83.6908 267.094C83.9841 267.301 84.1308 267.621 84.1308 268.054C84.1308 268.381 84.0641 268.667 83.9308 268.914C83.7974 269.154 83.6141 269.341 83.3808 269.474C83.1541 269.601 82.9074 269.694 82.6408 269.754C82.3741 269.814 82.0841 269.844 81.7708 269.844C81.3374 269.844 80.9508 269.794 80.6108 269.694C80.2708 269.587 79.9774 269.394 79.7308 269.114C79.4841 268.827 79.3541 268.467 79.3408 268.034H80.6908ZM86.7619 264.544H87.8019V265.494H86.7619V268.054C86.7619 268.294 86.8019 268.454 86.8819 268.534C86.9619 268.614 87.1219 268.654 87.3619 268.654C87.5419 268.654 87.6885 268.641 87.8019 268.614V269.714C87.6019 269.747 87.3252 269.764 86.9719 269.764C86.4585 269.764 86.0585 269.681 85.7719 269.514C85.4852 269.341 85.3419 269.017 85.3419 268.544V265.494H84.4819V264.544H85.3419V262.994H86.7619V264.544ZM94.6407 269.714H93.2207V265.174H91.4607V264.104C92.0074 264.117 92.4674 264.014 92.8407 263.794C93.214 263.574 93.4374 263.214 93.5107 262.714H94.6407V269.714Z" fill="white"/>
<path d="M140.027 262.527C139.995 263.199 140.167 263.739 140.543 264.147C140.927 264.547 141.455 264.747 142.127 264.747C142.711 264.747 143.215 264.583 143.639 264.255C144.063 263.919 144.275 263.463 144.275 262.887C144.275 262.311 144.087 261.871 143.711 261.567C143.335 261.263 142.851 261.111 142.259 261.111H141.623V260.475H142.259C142.699 260.475 143.091 260.343 143.435 260.079C143.787 259.815 143.963 259.439 143.963 258.951C143.963 258.423 143.791 258.027 143.447 257.763C143.103 257.499 142.663 257.367 142.127 257.367C141.511 257.367 141.035 257.563 140.699 257.955C140.363 258.347 140.203 258.859 140.219 259.491H139.463C139.463 258.683 139.703 258.023 140.183 257.511C140.671 256.991 141.315 256.731 142.115 256.731C142.835 256.731 143.447 256.915 143.951 257.283C144.463 257.643 144.719 258.171 144.719 258.867C144.719 259.331 144.595 259.731 144.347 260.067C144.099 260.395 143.751 260.615 143.303 260.727V260.751C143.847 260.839 144.271 261.067 144.575 261.435C144.879 261.803 145.031 262.267 145.031 262.827C145.031 263.627 144.751 264.251 144.191 264.699C143.639 265.147 142.955 265.371 142.139 265.371C141.243 265.371 140.523 265.119 139.979 264.615C139.443 264.103 139.207 263.407 139.271 262.527H140.027Z" fill="white"/>
<path d="M172.745 262.479V257.907H172.721L169.553 262.479H172.745ZM168.869 262.383L172.757 256.803H173.441V262.479H174.701V263.115H173.441V265.203H172.745V263.115H168.869V262.383Z" fill="white"/>
<path d="M200.358 262.803C200.374 263.379 200.574 263.847 200.958 264.207C201.35 264.567 201.838 264.747 202.422 264.747C203.046 264.747 203.55 264.523 203.934 264.075C204.326 263.627 204.522 263.087 204.522 262.455C204.522 261.831 204.318 261.311 203.91 260.895C203.51 260.479 202.998 260.271 202.374 260.271C201.566 260.271 200.942 260.603 200.502 261.267H199.854L200.67 256.911H204.87V257.607H201.198L200.658 260.391L200.682 260.415C200.89 260.175 201.154 259.987 201.474 259.851C201.794 259.707 202.122 259.635 202.458 259.635C203.314 259.635 203.998 259.907 204.51 260.451C205.022 260.987 205.278 261.683 205.278 262.539C205.278 263.355 204.994 264.031 204.426 264.567C203.866 265.103 203.178 265.371 202.362 265.371C201.562 265.371 200.906 265.143 200.394 264.687C199.882 264.223 199.618 263.595 199.602 262.803H200.358Z" fill="white"/>
<path d="M231.903 258.927C231.839 258.455 231.651 258.079 231.339 257.799C231.027 257.511 230.631 257.367 230.151 257.367C229.687 257.367 229.291 257.487 228.963 257.727C228.643 257.967 228.403 258.291 228.243 258.699C228.091 259.099 227.983 259.495 227.919 259.887C227.863 260.271 227.835 260.683 227.835 261.123H227.859C228.059 260.707 228.359 260.371 228.759 260.115C229.167 259.859 229.611 259.731 230.091 259.731C230.923 259.731 231.591 259.995 232.095 260.523C232.607 261.043 232.863 261.715 232.863 262.539C232.863 263.363 232.595 264.043 232.059 264.579C231.531 265.107 230.851 265.371 230.019 265.371C228.979 265.371 228.227 265.035 227.763 264.363C227.307 263.683 227.079 262.535 227.079 260.919C227.079 260.655 227.091 260.379 227.115 260.091C227.147 259.803 227.223 259.447 227.343 259.023C227.471 258.599 227.635 258.227 227.835 257.907C228.035 257.587 228.327 257.311 228.711 257.079C229.103 256.847 229.559 256.731 230.079 256.731C231.623 256.731 232.483 257.463 232.659 258.927H231.903ZM230.079 260.367C229.439 260.367 228.931 260.579 228.555 261.003C228.179 261.419 227.991 261.947 227.991 262.587C227.991 263.227 228.163 263.747 228.507 264.147C228.859 264.547 229.387 264.747 230.091 264.747C230.675 264.747 231.155 264.539 231.531 264.123C231.915 263.699 232.107 263.187 232.107 262.587C232.107 261.955 231.923 261.427 231.555 261.003C231.195 260.579 230.703 260.367 230.079 260.367Z" fill="white"/>
<path d="M255.934 256.911H261.334V257.607C261.078 257.871 260.83 258.151 260.59 258.447C260.35 258.735 260.066 259.131 259.738 259.635C259.418 260.131 259.138 260.643 258.898 261.171C258.666 261.691 258.458 262.307 258.274 263.019C258.09 263.731 257.978 264.459 257.938 265.203H257.122C257.218 263.771 257.526 262.479 258.046 261.327C258.574 260.167 259.418 258.927 260.578 257.607H255.934V256.911Z" fill="white"/>
<path d="M289.314 260.391C289.81 260.407 290.23 260.283 290.574 260.019C290.926 259.747 291.102 259.351 291.102 258.831C291.102 258.367 290.934 258.007 290.598 257.751C290.27 257.495 289.842 257.367 289.314 257.367C288.818 257.367 288.394 257.499 288.042 257.763C287.69 258.019 287.514 258.375 287.514 258.831C287.514 259.359 287.69 259.755 288.042 260.019C288.402 260.283 288.826 260.407 289.314 260.391ZM291.858 258.831C291.858 259.287 291.738 259.679 291.498 260.007C291.258 260.327 290.922 260.551 290.49 260.679V260.703C291.042 260.815 291.466 261.059 291.762 261.435C292.058 261.803 292.206 262.275 292.206 262.851C292.206 263.659 291.934 264.283 291.39 264.723C290.846 265.155 290.154 265.371 289.314 265.371C288.474 265.371 287.782 265.155 287.238 264.723C286.694 264.283 286.422 263.659 286.422 262.851C286.438 262.291 286.594 261.819 286.89 261.435C287.194 261.043 287.606 260.799 288.126 260.703V260.679C287.214 260.391 286.758 259.775 286.758 258.831C286.758 258.159 287.01 257.643 287.514 257.283C288.018 256.915 288.614 256.731 289.302 256.731C289.99 256.731 290.586 256.915 291.09 257.283C291.602 257.643 291.858 258.159 291.858 258.831ZM289.314 264.747C289.946 264.747 290.458 264.587 290.85 264.267C291.25 263.947 291.45 263.475 291.45 262.851C291.45 262.275 291.242 261.823 290.826 261.495C290.41 261.167 289.906 261.011 289.314 261.027C288.706 261.011 288.198 261.163 287.79 261.483C287.382 261.803 287.178 262.259 287.178 262.851C287.178 263.459 287.378 263.927 287.778 264.255C288.178 264.583 288.69 264.747 289.314 264.747Z" fill="white"/>
<path d="M346.13 258.603C346.45 258.595 346.694 258.583 346.862 258.567C347.038 258.551 347.234 258.515 347.45 258.459C347.666 258.395 347.83 258.311 347.942 258.207C348.062 258.095 348.17 257.939 348.266 257.739C348.37 257.531 348.446 257.279 348.494 256.983H349.106V265.383H348.35V259.143H346.13V258.603ZM353.722 257.187C354.082 257.003 354.498 256.911 354.97 256.911C355.442 256.911 355.854 257.003 356.206 257.187C356.566 257.363 356.85 257.591 357.058 257.871C357.266 258.143 357.434 258.479 357.562 258.879C357.698 259.271 357.786 259.655 357.826 260.031C357.874 260.399 357.898 260.799 357.898 261.231C357.898 264.111 356.922 265.551 354.97 265.551C353.018 265.551 352.042 264.115 352.042 261.243C352.042 260.811 352.062 260.407 352.102 260.031C352.15 259.655 352.238 259.271 352.366 258.879C352.502 258.479 352.674 258.143 352.882 257.871C353.09 257.591 353.37 257.363 353.722 257.187ZM357.142 261.231C357.142 258.775 356.418 257.547 354.97 257.547C353.522 257.547 352.798 258.775 352.798 261.231C352.798 263.695 353.522 264.927 354.97 264.927C356.418 264.927 357.142 263.695 357.142 261.231Z" fill="white"/>
<path d="M374.488 258.603C374.808 258.595 375.052 258.583 375.22 258.567C375.396 258.551 375.592 258.515 375.808 258.459C376.024 258.395 376.188 258.311 376.3 258.207C376.42 258.095 376.528 257.939 376.624 257.739C376.728 257.531 376.804 257.279 376.852 256.983H377.464V265.383H376.708V259.143H374.488V258.603ZM381.156 258.603C381.476 258.595 381.72 258.583 381.888 258.567C382.064 258.551 382.26 258.515 382.476 258.459C382.692 258.395 382.856 258.311 382.968 258.207C383.088 258.095 383.196 257.939 383.292 257.739C383.396 257.531 383.472 257.279 383.52 256.983H384.132V265.383H383.376V259.143H381.156V258.603Z" fill="white"/>
<path d="M404.52 258.603C404.84 258.595 405.084 258.583 405.252 258.567C405.428 258.551 405.624 258.515 405.84 258.459C406.056 258.395 406.22 258.311 406.332 258.207C406.452 258.095 406.56 257.939 406.656 257.739C406.76 257.531 406.836 257.279 406.884 256.983H407.496V265.383H406.74V259.143H404.52V258.603ZM415.988 265.383H410.456C410.464 264.991 410.532 264.631 410.66 264.303C410.788 263.967 410.976 263.667 411.224 263.403C411.48 263.131 411.72 262.907 411.944 262.731C412.176 262.547 412.472 262.339 412.832 262.107C413.656 261.547 414.192 261.147 414.44 260.907C414.976 260.387 415.228 259.839 415.196 259.263C415.196 258.735 415.012 258.319 414.644 258.015C414.284 257.703 413.84 257.547 413.312 257.547C412.664 257.547 412.18 257.771 411.86 258.219C411.548 258.659 411.4 259.215 411.416 259.887H410.66C410.644 258.991 410.864 258.271 411.32 257.727C411.784 257.183 412.46 256.911 413.348 256.911C414.116 256.911 414.74 257.115 415.22 257.523C415.708 257.931 415.952 258.515 415.952 259.275C415.952 259.915 415.76 260.471 415.376 260.943C415 261.415 414.488 261.855 413.84 262.263C413.752 262.327 413.572 262.443 413.3 262.611C413.036 262.779 412.816 262.923 412.64 263.043C412.472 263.163 412.28 263.315 412.064 263.499C411.856 263.675 411.688 263.863 411.56 264.063C411.44 264.263 411.36 264.471 411.32 264.687H415.988V265.383Z" fill="white"/>
<path d="M318.544 263.187C318.608 263.659 318.796 264.039 319.108 264.327C319.42 264.607 319.816 264.747 320.296 264.747C320.76 264.747 321.152 264.627 321.472 264.387C321.8 264.147 322.04 263.827 322.192 263.427C322.352 263.019 322.46 262.623 322.516 262.239C322.58 261.847 322.612 261.431 322.612 260.991H322.588C322.388 261.407 322.084 261.743 321.676 261.999C321.276 262.255 320.836 262.383 320.356 262.383C319.524 262.383 318.852 262.123 318.34 261.603C317.836 261.075 317.584 260.399 317.584 259.575C317.584 258.751 317.848 258.071 318.376 257.535C318.912 256.999 319.596 256.731 320.428 256.731C321.46 256.731 322.208 257.071 322.672 257.751C323.136 258.431 323.368 259.579 323.368 261.195C323.368 261.459 323.352 261.735 323.32 262.023C323.296 262.311 323.22 262.667 323.092 263.091C322.972 263.515 322.812 263.887 322.612 264.207C322.412 264.519 322.116 264.791 321.724 265.023C321.34 265.255 320.888 265.371 320.368 265.371C318.824 265.371 317.964 264.643 317.788 263.187H318.544ZM320.368 261.747C321.008 261.747 321.516 261.539 321.892 261.123C322.268 260.699 322.456 260.167 322.456 259.527C322.456 258.887 322.28 258.367 321.928 257.967C321.584 257.567 321.06 257.367 320.356 257.367C319.772 257.367 319.288 257.579 318.904 258.003C318.528 258.419 318.34 258.927 318.34 259.527C318.34 260.159 318.52 260.687 318.88 261.111C319.248 261.535 319.744 261.747 320.368 261.747Z" fill="white"/>
<path d="M48.6953 204.058L80.6825 180.836L110.958 200.055L140.589 176.512L171.508 195.25L202.427 150.087L229.803 171.708H258.468L289.065 148.646L319.018 186.602L349.293 99.6387L380.535 54.4756" stroke="#9CC869"/>
<path d="M380.314 54.3041L406.792 26.7529" stroke="#9CC869" stroke-width="2" stroke-dasharray="4 4"/>
<path d="M48.6953 237.83L80.6823 200.054L110.957 200.054L140.91 217.831L171.508 178.434L202.427 160.176L230.125 178.434L258.468 127.986L289.387 115.974L319.018 115.974L349.293 139.997L380.535 41.0225" stroke="#C68AE0"/>
<path d="M380.314 41.417L406.469 41.417" stroke="#C68AE0" stroke-width="2" stroke-dasharray="4 4"/>
<path d="M48.6953 124.96L80.6827 97.2369L110.958 97.2369L140.589 97.2369L172.477 121.26L202.397 87.6323L230.126 121.26L258.468 135.193L289.388 101.561L319.019 89.0692L349.294 69.3703L380.213 29.9727" stroke="#79CEED"/>
<path d="M380.26 29.863L405.824 21.4199" stroke="#79CEED" stroke-width="2" stroke-dasharray="4 4"/>
<path d="M48.6953 121.405L80.6823 165.942L111.28 122.221L140.588 160.657L171.83 139.998L202.427 155.853L230.125 126.064L257.824 155.853L289.387 126.545L319.018 89.0689H349.293L380.213 21.8047" stroke="#547FFF"/>
<path d="M379.67 21.4199H406.148" stroke="#547FFF" stroke-width="2" stroke-dasharray="4 4"/>
<path d="M290.049 126.738C290.049 127.258 289.896 127.708 289.672 128.016C289.448 128.324 289.181 128.46 288.935 128.46C288.689 128.46 288.422 128.324 288.198 128.016C287.974 127.708 287.82 127.258 287.82 126.738C287.82 126.219 287.974 125.769 288.198 125.461C288.422 125.153 288.689 125.017 288.935 125.017C289.181 125.017 289.448 125.153 289.672 125.461C289.896 125.769 290.049 126.219 290.049 126.738Z" fill="#0F2746" stroke="#547FFF"/>
<path d="M259.049 155.179C259.049 155.698 258.896 156.148 258.672 156.456C258.448 156.764 258.181 156.901 257.935 156.901C257.689 156.901 257.422 156.764 257.198 156.456C256.974 156.148 256.82 155.698 256.82 155.179C256.82 154.659 256.974 154.21 257.198 153.902C257.422 153.593 257.689 153.457 257.935 153.457C258.181 153.457 258.448 153.593 258.672 153.902C258.896 154.21 259.049 154.659 259.049 155.179Z" fill="#0F2746" stroke="#547FFF"/>
<path d="M231.282 126.738C231.282 127.258 231.128 127.708 230.904 128.016C230.68 128.324 230.414 128.46 230.167 128.46C229.921 128.46 229.654 128.324 229.43 128.016C229.206 127.708 229.053 127.258 229.053 126.738C229.053 126.219 229.206 125.769 229.43 125.461C229.654 125.153 229.921 125.017 230.167 125.017C230.414 125.017 230.68 125.153 230.904 125.461C231.128 125.769 231.282 126.219 231.282 126.738Z" fill="#0F2746" stroke="#547FFF"/>
<path d="M203.512 156.066C203.512 156.585 203.359 157.035 203.135 157.343C202.911 157.651 202.644 157.787 202.398 157.787C202.151 157.787 201.885 157.651 201.661 157.343C201.437 157.035 201.283 156.585 201.283 156.066C201.283 155.546 201.437 155.096 201.661 154.788C201.885 154.48 202.151 154.344 202.398 154.344C202.644 154.344 202.911 154.48 203.135 154.788C203.359 155.096 203.512 155.546 203.512 156.066Z" fill="#0F2746" stroke="#547FFF"/>
<path d="M173.161 140.07C173.161 140.589 173.007 141.039 172.783 141.347C172.559 141.655 172.292 141.791 172.046 141.791C171.8 141.791 171.533 141.655 171.309 141.347C171.085 141.039 170.932 140.589 170.932 140.07C170.932 139.55 171.085 139.1 171.309 138.792C171.533 138.484 171.8 138.348 172.046 138.348C172.292 138.348 172.559 138.484 172.783 138.792C173.007 139.1 173.161 139.55 173.161 140.07Z" fill="#0F2746" stroke="#547FFF"/>
<path d="M142.161 160.509C142.161 161.028 142.007 161.478 141.783 161.786C141.559 162.094 141.292 162.231 141.046 162.231C140.8 162.231 140.533 162.094 140.309 161.786C140.085 161.478 139.932 161.028 139.932 160.509C139.932 159.99 140.085 159.54 140.309 159.232C140.533 158.923 140.8 158.787 141.046 158.787C141.292 158.787 141.559 158.923 141.783 159.232C142.007 159.54 142.161 159.99 142.161 160.509Z" fill="#0F2746" stroke="#547FFF"/>
<path d="M112.456 122.295C112.456 122.815 112.302 123.264 112.078 123.572C111.854 123.881 111.587 124.017 111.341 124.017C111.095 124.017 110.828 123.881 110.604 123.572C110.38 123.264 110.227 122.815 110.227 122.295C110.227 121.776 110.38 121.326 110.604 121.018C110.828 120.71 111.095 120.573 111.341 120.573C111.587 120.573 111.854 120.71 112.078 121.018C112.302 121.326 112.456 121.776 112.456 122.295Z" fill="#0F2746" stroke="#547FFF"/>
<path d="M381.108 21.8654C381.108 22.3849 380.954 22.8348 380.731 23.1426C380.507 23.4509 380.24 23.5873 379.993 23.5873C379.747 23.5873 379.48 23.4509 379.256 23.1426C379.033 22.8348 378.879 22.3849 378.879 21.8654C378.879 21.346 379.033 20.896 379.256 20.5882C379.48 20.2799 379.747 20.1436 379.993 20.1436C380.24 20.1436 380.507 20.2799 380.731 20.5882C380.954 20.896 381.108 21.346 381.108 21.8654Z" fill="#0F2746" stroke="#547FFF"/>
<path d="M49.811 121.405C49.811 121.925 49.6573 122.375 49.4337 122.683C49.2096 122.991 48.9428 123.127 48.6965 123.127C48.4503 123.127 48.1834 122.991 47.9594 122.683C47.7357 122.375 47.582 121.925 47.582 121.405C47.582 120.886 47.7357 120.436 47.9594 120.128C48.1834 119.82 48.4503 119.684 48.6965 119.684C48.9428 119.684 49.2096 119.82 49.4337 120.128C49.6573 120.436 49.811 120.886 49.811 121.405Z" fill="#0F2746" stroke="#547FFF"/>
<path d="M350.11 88.5217C350.11 89.0411 349.956 89.4911 349.733 89.7988C349.508 90.1072 349.242 90.2435 348.995 90.2435C348.749 90.2435 348.482 90.1072 348.258 89.7988C348.035 89.4911 347.881 89.0411 347.881 88.5217C347.881 88.0022 348.035 87.5523 348.258 87.2445C348.482 86.9362 348.749 86.7998 348.995 86.7998C349.242 86.7998 349.508 86.9362 349.733 87.2445C349.956 87.5523 350.11 88.0022 350.11 88.5217Z" fill="#0F2746" stroke="#547FFF"/>
<path d="M319.756 89.4113C319.756 89.9308 319.603 90.3807 319.379 90.6885C319.155 90.9968 318.888 91.1332 318.642 91.1332C318.396 91.1332 318.129 90.9968 317.905 90.6885C317.681 90.3807 317.527 89.9308 317.527 89.4113C317.527 88.8919 317.681 88.4419 317.905 88.1341C318.129 87.8258 318.396 87.6895 318.642 87.6895C318.888 87.6895 319.155 87.8258 319.379 88.1341C319.603 88.4419 319.756 88.8919 319.756 89.4113Z" fill="#0F2746" stroke="#547FFF"/>
</svg>
