<svg width="28" height="28" viewBox="0 0 28 28" fill="none" xmlns="http://www.w3.org/2000/svg">
<path d="M28 14C28 21.732 21.732 28 14 28C6.26801 28 0 21.732 0 14C0 6.26801 6.26801 0 14 0C21.732 0 28 6.26801 28 14Z" fill="#A8B7CF" fill-opacity="0.3"/>
<path d="M10.2667 7H17.7333C19.2268 7 19.9735 7 20.544 7.28341C21.0457 7.53271 21.4537 7.9305 21.7094 8.41977C22 8.97599 22 9.70413 22 11.1604V15.8409C22 17.2972 22 18.0253 21.7094 18.5815C21.4537 19.0708 21.0457 19.4686 20.544 19.7179C19.9735 20.0013 19.2268 20.0013 17.7333 20.0013H15.4967C14.942 20.0013 14.6646 20.0013 14.3993 20.0544C14.1639 20.1015 13.9362 20.1794 13.7222 20.286C13.481 20.4061 13.2645 20.5751 12.8313 20.913L10.7109 22.5671C10.341 22.8556 10.1561 22.9998 10.0005 23C9.86513 23.0001 9.73709 22.9401 9.65265 22.837C9.55556 22.7184 9.55556 22.4875 9.55556 22.0256V20.0013C8.72891 20.0013 8.31559 20.0013 7.97648 19.9127C7.05624 19.6723 6.33744 18.9714 6.09086 18.074C6 17.7434 6 17.3403 6 16.5343V11.1604C6 9.70413 6 8.97599 6.29065 8.41977C6.54631 7.9305 6.95426 7.53271 7.45603 7.28341C8.02646 7 8.77319 7 10.2667 7Z" fill="white" stroke="white" stroke-width="2" stroke-linecap="round" stroke-linejoin="round"/>
<circle cx="13.9997" cy="17.5876" r="1.17647" fill="#A8B7CF"/>
<path d="M14.1926 14.7629C14.139 14.9594 13.8603 14.9594 13.8067 14.7629L12.6568 10.5466C12.6221 10.4193 12.7179 10.2939 12.8497 10.2939H15.1496C15.2814 10.2939 15.3772 10.4193 15.3425 10.5466L14.1926 14.7629Z" fill="#A8B7CF" stroke="#A8B7CF" stroke-linejoin="round"/>
</svg>
