<svg width="28" height="25" viewBox="0 0 28 25" fill="none" xmlns="http://www.w3.org/2000/svg">
<g clip-path="url(#clip0_31_17244)">
<path d="M15.6898 10.2461C15.0438 10.2461 14.5432 10.7467 14.5432 11.3648C14.5432 11.9829 15.0438 12.4835 15.6898 12.4835C16.28 12.4835 16.7806 11.9829 16.7806 11.3648C16.7806 10.7467 16.28 10.2461 15.6898 10.2461ZM7.85895 10.2461C7.2129 10.2461 6.71228 10.7467 6.71228 11.3648C6.71228 11.9829 7.2129 12.4835 7.85895 12.4835C8.44906 12.4835 8.94968 11.9829 8.94968 11.3648C8.94968 10.7467 8.44906 10.2461 7.85895 10.2461Z" fill="#A8B7CF"/>
<path d="M24.6671 8.12132C23.3219 6.27547 21.4425 5.0421 19.3813 4.48555V4.48835C18.903 3.95696 18.3632 3.46753 17.7591 3.03124C13.1809 -0.29689 6.75393 0.71833 3.41182 5.29661C0.718549 9.01628 0.833216 14.0197 3.57962 17.5743L3.602 21.2828C3.602 21.3723 3.61598 21.4618 3.64395 21.5457C3.79218 22.0184 4.29559 22.2785 4.76545 22.1302L8.30613 21.0143C9.24304 21.3472 10.2107 21.5373 11.1728 21.5905L11.1588 21.6017C13.6507 23.4167 16.9173 23.9621 19.9126 22.9721L23.4673 24.1299C23.5568 24.1579 23.6491 24.1747 23.7442 24.1747C24.2392 24.1747 24.6391 23.7747 24.6391 23.2797V19.5321C27.1031 16.1871 27.1674 11.5641 24.6671 8.12132ZM8.69767 19.0286L8.36206 18.8888L5.59328 19.7558L5.56532 16.8472L5.34158 16.5955C2.97553 13.7092 2.81891 9.55046 5.03393 6.49921C7.73 2.80191 12.8984 1.98526 16.5845 4.65336C20.2818 7.34103 21.1013 12.501 18.4304 16.176C16.1902 19.2496 12.1796 20.3851 8.69767 19.0286ZM22.8213 18.5532L22.5975 18.8329L22.6255 21.7415L19.8847 20.8186L19.5491 20.9584C17.9829 21.5401 16.3132 21.5877 14.7666 21.1542L14.761 21.1514C16.8278 20.5165 18.7016 19.23 20.0525 17.3786C22.1892 14.4336 22.536 10.7335 21.2942 7.57876L21.311 7.58994C21.9543 8.05141 22.5444 8.62754 23.045 9.32393C25.0754 12.1095 24.9608 15.9019 22.8213 18.5532Z" fill="#A8B7CF"/>
<path d="M11.7745 10.2461C11.1284 10.2461 10.6278 10.7467 10.6278 11.3648C10.6278 11.9829 11.1284 12.4835 11.7745 12.4835C12.3646 12.4835 12.8652 11.9829 12.8652 11.3648C12.8652 10.7467 12.3646 10.2461 11.7745 10.2461Z" fill="#A8B7CF"/>
</g>
<defs>
<clipPath id="clip0_31_17244">
<rect width="26.1484" height="23.6581" fill="white" transform="translate(0.909668 0.962891)"/>
</clipPath>
</defs>
</svg>
