<svg width="28" height="28" viewBox="0 0 28 28" fill="none" xmlns="http://www.w3.org/2000/svg">
<circle cx="14" cy="14" r="14" fill="#1890FF"/>
<path d="M25 14C25 20.0751 20.0751 25 14 25C7.92487 25 3 20.0751 3 14C3 7.92487 7.92487 3 14 3C20.0751 3 25 7.92487 25 14Z" fill="white"/>
<path d="M10.799 10.7C11.0576 9.96483 11.5681 9.34492 12.24 8.95005C12.9118 8.55518 13.7018 8.41083 14.4699 8.54258C15.238 8.67433 15.9347 9.07368 16.4366 9.66988C16.9385 10.2661 17.2132 11.0207 17.212 11.8C17.212 14 13.912 15.1 13.912 15.1V16.6444M14 19.5H14.011M25 14C25 20.0751 20.0751 25 14 25C7.92487 25 3 20.0751 3 14C3 7.92487 7.92487 3 14 3C20.0751 3 25 7.92487 25 14Z" stroke="#1890FF" stroke-width="2" stroke-linecap="round" stroke-linejoin="round"/>
</svg>
