<svg width="35" height="39" viewBox="0 0 35 39" fill="none" xmlns="http://www.w3.org/2000/svg">
<path d="M30.625 4.625L22.7875 4.625C22 2.45 19.9375 0.875 17.5 0.875C15.0625 0.875 13 2.45 12.2125 4.625L4.375 4.625C2.3125 4.625 0.625 6.3125 0.625 8.375L0.625 34.625C0.625 36.6875 2.3125 38.375 4.375 38.375L30.625 38.375C32.6875 38.375 34.375 36.6875 34.375 34.625L34.375 8.375C34.375 6.3125 32.6875 4.625 30.625 4.625ZM17.5 4.15625C18.2687 4.15625 18.9062 4.79375 18.9062 5.5625C18.9062 6.33125 18.2687 6.96875 17.5 6.96875C16.7313 6.96875 16.0938 6.33125 16.0938 5.5625C16.0938 4.79375 16.7313 4.15625 17.5 4.15625ZM11.6875 30.875L9.0625 30.875C8.5375 30.875 8.125 30.4625 8.125 29.9375V27.2562C8.125 27.0125 8.21875 26.7688 8.40625 26.6L19.3 15.7062L23.275 19.6812L12.3437 30.6125C12.1676 30.7823 11.9321 30.8765 11.6875 30.875ZM26.5937 16.3813L24.6063 18.3687L20.6313 14.3938L22.6187 12.4063C22.9937 12.0313 23.575 12.0313 23.95 12.4063L26.5937 15.05C26.9687 15.425 26.9687 16.0063 26.5937 16.3813Z" fill="white" fill-opacity="0.5"/>
</svg>
